{"glyphs":{"0":{"ha":979,"x_min":0,"x_max":0,"o":"m 490 -22 b 919 492 756 -22 919 174 b 490 1008 919 811 754 1008 b 60 492 224 1008 60 811 b 490 -22 60 174 224 -22 z m 490 175 b 308 492 371 175 308 279 b 490 811 308 704 371 811 b 671 492 607 811 671 704 b 490 175 671 279 607 175 z "},"1":{"ha":653,"x_min":0,"x_max":0,"o":"m 268 0 l 510 0 l 510 986 l 317 986 b 136 793 317 840 265 793 l 51 793 l 51 622 l 268 622 z "},"2":{"ha":924,"x_min":0,"x_max":0,"o":"m 81 0 l 846 0 l 846 197 l 367 197 b 590 389 372 244 439 308 b 846 707 771 486 846 553 b 475 1008 846 888 710 1008 b 81 665 239 1008 97 882 l 328 651 b 478 811 338 754 390 811 b 599 704 556 811 599 767 b 421 533 599 638 556 604 b 81 0 178 406 81 268 z "},"3":{"ha":925,"x_min":0,"x_max":0,"o":"m 464 -22 b 864 278 711 -22 864 90 b 660 519 864 401 792 485 b 833 728 771 554 833 628 b 458 1008 833 901 703 1008 b 74 722 232 1008 93 896 l 317 710 b 458 811 325 768 368 811 b 586 700 547 811 586 767 b 456 593 586 624 528 593 l 363 593 l 363 424 l 456 424 b 615 297 554 424 615 379 b 464 175 615 219 553 175 b 307 310 371 175 317 218 l 61 301 b 464 -22 71 100 211 -22 z "},"4":{"ha":965,"x_min":0,"x_max":0,"o":"m 549 0 l 790 0 l 790 179 l 904 179 l 904 378 l 790 378 l 790 986 l 499 986 l 61 367 l 61 179 l 549 179 z m 311 378 l 549 700 l 549 378 z "},"5":{"ha":953,"x_min":0,"x_max":0,"o":"m 474 -22 b 876 332 719 -22 876 111 b 546 658 876 517 753 658 b 331 582 451 658 379 629 l 357 789 l 810 789 l 810 986 l 154 986 l 85 401 l 324 401 b 472 489 344 450 397 489 b 629 332 569 489 629 425 b 474 176 629 233 572 176 b 319 288 388 176 336 213 l 75 278 b 474 -22 92 94 221 -22 z "},"6":{"ha":935,"x_min":0,"x_max":0,"o":"m 471 -22 b 858 324 701 -22 858 101 b 522 642 858 515 725 642 b 308 557 421 642 350 606 b 501 815 326 735 394 815 b 635 726 578 815 613 783 l 853 742 b 503 1008 818 907 699 1008 b 75 440 217 1008 75 772 b 471 -22 75 150 206 -22 z m 468 164 b 315 321 375 164 315 228 b 472 479 315 415 379 479 b 621 321 561 479 621 414 b 468 164 621 225 558 164 z "},"7":{"ha":833,"x_min":0,"x_max":0,"o":"m 242 0 l 486 0 b 786 801 486 356 592 585 l 786 986 l 47 986 l 47 789 l 543 789 b 242 0 364 575 242 306 z "},"8":{"ha":957,"x_min":0,"x_max":0,"o":"m 478 -22 b 908 268 744 -22 908 76 b 704 529 908 399 831 490 b 861 738 801 564 861 638 b 478 1008 861 900 728 1008 b 96 738 229 1008 96 900 b 251 529 96 639 154 564 b 47 268 125 492 47 397 b 478 -22 47 76 214 -22 z m 478 176 b 296 308 369 176 296 226 b 478 444 296 390 365 444 b 661 308 592 444 661 390 b 478 176 661 226 588 176 z m 478 604 b 342 707 393 604 342 638 b 478 811 342 771 389 811 b 615 707 568 811 615 771 b 478 604 615 638 564 604 z "},"9":{"ha":942,"x_min":0,"x_max":0,"o":"m 449 -22 b 867 519 729 -22 867 171 b 454 1008 867 839 731 1008 b 75 650 225 1008 75 869 b 404 322 75 453 207 322 b 632 415 508 322 582 351 b 449 171 622 240 565 171 b 322 246 383 171 342 197 l 94 232 b 449 -22 144 63 258 -22 z m 463 486 b 317 654 374 486 317 550 b 464 822 317 758 374 822 b 614 653 558 822 614 758 b 463 486 614 550 556 486 z "}," ":{"ha":307,"x_min":0,"x_max":0,"o":""},"A":{"ha":1063,"x_min":0,"x_max":0,"o":"m 36 0 l 283 0 l 347 186 l 714 186 l 779 0 l 1026 0 l 671 986 l 392 986 z m 413 378 l 532 725 l 650 378 z "},"Á":{"ha":1063,"x_min":0,"x_max":0,"o":"m 36 0 l 283 0 l 347 186 l 714 186 l 779 0 l 1026 0 l 671 986 l 392 986 z m 413 378 l 532 725 l 650 378 z m 424 1067 l 603 1067 l 728 1279 l 501 1279 z "},"Ă":{"ha":1063,"x_min":0,"x_max":0,"o":"m 36 0 l 283 0 l 347 186 l 714 186 l 779 0 l 1026 0 l 671 986 l 392 986 z m 413 378 l 532 725 l 650 378 z m 532 1067 b 757 1279 667 1067 751 1143 l 624 1279 b 532 1190 618 1215 585 1190 b 440 1279 479 1190 447 1215 l 307 1279 b 532 1067 313 1143 399 1067 z "},"Ǎ":{"ha":1063,"x_min":0,"x_max":0,"o":"m 36 0 l 283 0 l 347 186 l 714 186 l 779 0 l 1026 0 l 671 986 l 392 986 z m 413 378 l 532 725 l 650 378 z m 290 1279 l 426 1058 l 650 1058 l 786 1279 l 625 1279 l 539 1156 l 451 1279 z "},"Â":{"ha":1063,"x_min":0,"x_max":0,"o":"m 36 0 l 283 0 l 347 186 l 714 186 l 779 0 l 1026 0 l 671 986 l 392 986 z m 413 378 l 532 725 l 650 378 z m 285 1058 l 446 1058 l 533 1182 l 619 1058 l 781 1058 l 644 1279 l 421 1279 z "},"Ä":{"ha":1063,"x_min":0,"x_max":0,"o":"m 36 0 l 283 0 l 347 186 l 714 186 l 779 0 l 1026 0 l 671 986 l 392 986 z m 413 378 l 532 725 l 650 378 z m 261 1069 l 485 1069 l 485 1247 l 261 1247 z m 578 1069 l 803 1069 l 803 1247 l 578 1247 z "},"À":{"ha":1063,"x_min":0,"x_max":0,"o":"m 36 0 l 283 0 l 347 186 l 714 186 l 779 0 l 1026 0 l 671 986 l 392 986 z m 413 378 l 532 725 l 650 378 z m 458 1067 l 638 1067 l 560 1279 l 333 1279 z "},"Ā":{"ha":1063,"x_min":0,"x_max":0,"o":"m 36 0 l 283 0 l 347 186 l 714 186 l 779 0 l 1026 0 l 671 986 l 392 986 z m 413 378 l 532 725 l 650 378 z m 317 1074 l 746 1074 l 746 1243 l 317 1243 z "},"Ą":{"ha":1063,"x_min":0,"x_max":0,"o":"m 36 0 l 283 0 l 347 186 l 714 186 l 779 0 l 847 0 l 818 -35 b 760 -176 783 -76 760 -119 b 926 -306 760 -258 819 -306 b 1079 -269 989 -306 1053 -289 l 1039 -153 b 982 -171 1026 -162 1003 -171 b 947 -136 964 -171 947 -160 b 988 -50 947 -112 963 -83 l 1026 0 l 671 986 l 392 986 z m 413 378 l 532 725 l 650 378 z "},"Å":{"ha":1063,"x_min":0,"x_max":0,"o":"m 36 0 l 283 0 l 347 186 l 714 186 l 779 0 l 1026 0 l 671 986 l 392 986 z m 413 378 l 532 725 l 650 378 z m 532 1047 b 681 1193 615 1047 681 1110 b 532 1339 681 1276 615 1339 b 385 1193 449 1339 385 1276 b 532 1047 385 1110 449 1047 z m 532 1144 b 483 1193 503 1144 483 1164 b 532 1243 483 1222 503 1243 b 582 1193 561 1243 582 1222 b 532 1144 582 1164 561 1144 z "},"Ã":{"ha":1063,"x_min":0,"x_max":0,"o":"m 36 0 l 283 0 l 347 186 l 714 186 l 779 0 l 1026 0 l 671 986 l 392 986 z m 413 378 l 532 725 l 650 378 z m 604 1079 b 772 1290 713 1079 771 1161 l 657 1290 b 608 1215 654 1233 633 1215 b 560 1238 592 1215 579 1222 b 444 1281 522 1268 489 1281 b 283 1072 342 1281 283 1197 l 397 1072 b 449 1144 403 1126 424 1144 b 496 1124 465 1144 479 1138 b 604 1079 533 1092 560 1079 z "},"Æ":{"ha":1492,"x_min":0,"x_max":0,"o":"m 36 0 l 288 0 l 394 210 l 753 210 l 753 0 l 1433 0 l 1433 197 l 994 197 l 994 396 l 1406 396 l 1406 593 l 994 593 l 994 789 l 1422 789 l 1422 986 l 564 986 z m 506 422 l 696 790 l 753 790 l 753 422 z "},"B":{"ha":986,"x_min":0,"x_max":0,"o":"m 94 0 l 538 0 b 922 272 785 0 922 89 b 671 510 922 411 836 496 b 881 718 806 524 881 596 b 493 986 881 903 742 986 l 94 986 z m 524 190 l 336 190 l 336 418 l 524 418 b 679 303 615 418 679 381 b 524 190 679 226 614 190 z m 485 585 l 336 585 l 336 796 l 485 796 b 638 690 578 796 638 764 b 485 585 638 619 575 585 z "},"C":{"ha":1025,"x_min":0,"x_max":0,"o":"m 522 -22 b 979 367 785 -22 938 118 l 728 376 b 525 175 710 249 644 175 b 301 492 386 175 301 297 b 526 811 301 682 381 811 b 726 622 635 811 706 740 l 976 632 b 526 1008 935 875 792 1008 b 53 492 236 1008 53 804 b 522 -22 53 168 250 -22 z "},"Ć":{"ha":1025,"x_min":0,"x_max":0,"o":"m 522 -22 b 979 367 785 -22 938 118 l 728 376 b 525 175 710 249 644 175 b 301 492 386 175 301 297 b 526 811 301 682 381 811 b 726 622 635 811 706 740 l 976 632 b 526 1008 935 875 792 1008 b 53 492 236 1008 53 804 b 522 -22 53 168 250 -22 z m 428 1067 l 607 1067 l 732 1279 l 506 1279 z "},"Č":{"ha":1025,"x_min":0,"x_max":0,"o":"m 522 -22 b 979 367 785 -22 938 118 l 728 376 b 525 175 710 249 644 175 b 301 492 386 175 301 297 b 526 811 301 682 381 811 b 726 622 635 811 706 740 l 976 632 b 526 1008 935 875 792 1008 b 53 492 236 1008 53 804 b 522 -22 53 168 250 -22 z m 294 1279 l 431 1058 l 654 1058 l 790 1279 l 629 1279 l 543 1156 l 456 1279 z "},"Ç":{"ha":1025,"x_min":0,"x_max":0,"o":"m 522 -328 b 704 -175 621 -328 704 -282 b 571 -42 704 -107 665 -51 l 585 -19 b 979 367 810 1 940 139 l 728 376 b 525 175 710 249 644 175 b 301 492 386 175 301 297 b 526 811 301 682 381 811 b 726 622 635 811 706 740 l 976 632 b 526 1008 935 875 792 1008 b 53 492 236 1008 53 804 b 458 -18 53 194 219 10 l 433 -61 l 496 -118 b 581 -169 564 -118 581 -139 b 517 -219 581 -201 556 -219 b 438 -167 475 -219 451 -201 l 339 -211 b 522 -328 365 -281 428 -328 z "},"Ĉ":{"ha":1025,"x_min":0,"x_max":0,"o":"m 522 -22 b 979 367 785 -22 938 118 l 728 376 b 525 175 710 249 644 175 b 301 492 386 175 301 297 b 526 811 301 682 381 811 b 726 622 635 811 706 740 l 976 632 b 526 1008 935 875 792 1008 b 53 492 236 1008 53 804 b 522 -22 53 168 250 -22 z m 289 1058 l 450 1058 l 538 1182 l 624 1058 l 785 1058 l 649 1279 l 425 1279 z "},"Ċ":{"ha":1025,"x_min":0,"x_max":0,"o":"m 522 -22 b 979 367 785 -22 938 118 l 728 376 b 525 175 710 249 644 175 b 301 492 386 175 301 297 b 526 811 301 682 381 811 b 726 622 635 811 706 740 l 976 632 b 526 1008 935 875 792 1008 b 53 492 236 1008 53 804 b 522 -22 53 168 250 -22 z m 414 1069 l 660 1069 l 660 1247 l 414 1247 z "},"D":{"ha":1006,"x_min":0,"x_max":0,"o":"m 94 0 l 454 0 b 953 492 774 0 953 176 b 446 986 953 808 771 986 l 94 986 z m 446 197 l 336 197 l 336 789 l 446 789 b 704 493 624 789 704 694 b 446 197 704 292 624 197 z "},"Ď":{"ha":1006,"x_min":0,"x_max":0,"o":"m 94 0 l 454 0 b 953 492 774 0 953 176 b 446 986 953 808 771 986 l 94 986 z m 446 197 l 336 197 l 336 789 l 446 789 b 704 493 624 789 704 694 b 446 197 704 292 624 197 z m 211 1279 l 347 1058 l 571 1058 l 707 1279 l 546 1279 l 460 1156 l 372 1279 z "},"Đ":{"ha":1106,"x_min":0,"x_max":0,"o":"m 53 433 l 194 433 l 194 0 l 554 0 b 1053 492 874 0 1053 176 b 546 986 1053 808 871 986 l 194 986 l 194 553 l 53 553 z m 546 197 l 436 197 l 436 433 l 583 433 l 583 553 l 436 553 l 436 789 l 546 789 b 804 493 724 789 804 694 b 546 197 804 292 724 197 z "},"Ð":{"ha":1106,"x_min":0,"x_max":0,"o":"m 53 433 l 194 433 l 194 0 l 554 0 b 1053 492 874 0 1053 176 b 546 986 1053 808 871 986 l 194 986 l 194 553 l 53 553 z m 546 197 l 436 197 l 436 433 l 583 433 l 583 553 l 436 553 l 436 789 l 546 789 b 804 493 724 789 804 694 b 546 197 804 292 724 197 z "},"E":{"ha":872,"x_min":0,"x_max":0,"o":"m 94 0 l 814 0 l 814 197 l 336 197 l 336 396 l 786 396 l 786 593 l 336 593 l 336 789 l 803 789 l 803 986 l 94 986 z "},"É":{"ha":872,"x_min":0,"x_max":0,"o":"m 94 0 l 814 0 l 814 197 l 336 197 l 336 396 l 786 396 l 786 593 l 336 593 l 336 789 l 803 789 l 803 986 l 94 986 z m 340 1068 l 519 1068 l 644 1281 l 418 1281 z "},"Ě":{"ha":872,"x_min":0,"x_max":0,"o":"m 94 0 l 814 0 l 814 197 l 336 197 l 336 396 l 786 396 l 786 593 l 336 593 l 336 789 l 803 789 l 803 986 l 94 986 z m 207 1281 l 343 1060 l 567 1060 l 703 1281 l 542 1281 l 456 1157 l 368 1281 z "},"Ê":{"ha":872,"x_min":0,"x_max":0,"o":"m 94 0 l 814 0 l 814 197 l 336 197 l 336 396 l 786 396 l 786 593 l 336 593 l 336 789 l 803 789 l 803 986 l 94 986 z m 201 1060 l 363 1060 l 450 1183 l 536 1060 l 697 1060 l 561 1281 l 338 1281 z "},"Ë":{"ha":872,"x_min":0,"x_max":0,"o":"m 94 0 l 814 0 l 814 197 l 336 197 l 336 396 l 786 396 l 786 593 l 336 593 l 336 789 l 803 789 l 803 986 l 94 986 z m 179 1071 l 403 1071 l 403 1249 l 179 1249 z m 496 1071 l 721 1071 l 721 1249 l 496 1249 z "},"Ė":{"ha":872,"x_min":0,"x_max":0,"o":"m 94 0 l 814 0 l 814 197 l 336 197 l 336 396 l 786 396 l 786 593 l 336 593 l 336 789 l 803 789 l 803 986 l 94 986 z m 326 1071 l 572 1071 l 572 1249 l 326 1249 z "},"È":{"ha":872,"x_min":0,"x_max":0,"o":"m 94 0 l 814 0 l 814 197 l 336 197 l 336 396 l 786 396 l 786 593 l 336 593 l 336 789 l 803 789 l 803 986 l 94 986 z m 375 1068 l 554 1068 l 476 1281 l 250 1281 z "},"Ē":{"ha":872,"x_min":0,"x_max":0,"o":"m 94 0 l 814 0 l 814 197 l 336 197 l 336 396 l 786 396 l 786 593 l 336 593 l 336 789 l 803 789 l 803 986 l 94 986 z m 235 1075 l 664 1075 l 664 1244 l 235 1244 z "},"Ę":{"ha":872,"x_min":0,"x_max":0,"o":"m 94 0 l 635 0 l 606 -35 b 547 -176 571 -76 547 -119 b 714 -306 547 -258 607 -306 b 867 -269 776 -306 840 -289 l 826 -153 b 769 -171 814 -162 790 -171 b 735 -136 751 -171 735 -160 b 775 -50 735 -112 750 -83 l 814 0 l 814 197 l 336 197 l 336 396 l 786 396 l 786 593 l 336 593 l 336 789 l 803 789 l 803 986 l 94 986 z "},"Ẽ":{"ha":872,"x_min":0,"x_max":0,"o":"m 94 0 l 814 0 l 814 197 l 336 197 l 336 396 l 786 396 l 786 593 l 336 593 l 336 789 l 803 789 l 803 986 l 94 986 z m 525 1081 b 693 1292 633 1081 692 1163 l 578 1292 b 529 1217 575 1235 554 1217 b 481 1239 513 1217 500 1224 b 365 1282 443 1269 410 1282 b 204 1074 263 1282 204 1199 l 318 1074 b 369 1146 324 1128 344 1146 b 417 1125 386 1146 400 1139 b 525 1081 454 1093 481 1081 z "},"Ə":{"ha":1064,"x_min":0,"x_max":0,"o":"m 524 -22 b 1011 493 785 -22 1011 190 b 524 1008 1011 807 793 1008 b 79 692 314 1008 142 886 l 335 679 b 528 811 371 764 443 811 b 763 567 660 811 753 711 l 53 567 l 54 488 b 524 -22 64 169 272 -22 z m 528 175 b 314 368 418 175 340 250 l 753 368 b 528 175 724 250 642 175 z "},"F":{"ha":846,"x_min":0,"x_max":0,"o":"m 94 0 l 336 0 l 336 383 l 769 383 l 769 581 l 336 581 l 336 789 l 794 789 l 794 986 l 94 986 z "},"G":{"ha":1035,"x_min":0,"x_max":0,"o":"m 513 -22 b 822 132 654 -22 771 38 l 831 0 l 975 0 l 975 518 l 531 518 l 531 350 l 735 350 b 536 175 724 244 651 175 b 301 492 374 175 301 304 b 531 811 301 678 379 811 b 722 644 647 811 703 749 l 972 656 b 529 1008 926 875 792 1008 b 53 492 229 1008 53 789 b 513 -22 53 186 226 -22 z "},"Ğ":{"ha":1035,"x_min":0,"x_max":0,"o":"m 513 -22 b 822 132 654 -22 771 38 l 831 0 l 975 0 l 975 518 l 531 518 l 531 350 l 735 350 b 536 175 724 244 651 175 b 301 492 374 175 301 304 b 531 811 301 678 379 811 b 722 644 647 811 703 749 l 972 656 b 529 1008 926 875 792 1008 b 53 492 229 1008 53 789 b 513 -22 53 186 226 -22 z m 538 1067 b 763 1279 672 1067 757 1143 l 629 1279 b 538 1190 624 1215 590 1190 b 446 1279 485 1190 453 1215 l 313 1279 b 538 1067 318 1143 404 1067 z "},"Ǧ":{"ha":1035,"x_min":0,"x_max":0,"o":"m 513 -22 b 822 132 654 -22 771 38 l 831 0 l 975 0 l 975 518 l 531 518 l 531 350 l 735 350 b 536 175 724 244 651 175 b 301 492 374 175 301 304 b 531 811 301 678 379 811 b 722 644 647 811 703 749 l 972 656 b 529 1008 926 875 792 1008 b 53 492 229 1008 53 789 b 513 -22 53 186 226 -22 z m 296 1279 l 432 1058 l 656 1058 l 792 1279 l 631 1279 l 544 1156 l 457 1279 z "},"Ĝ":{"ha":1035,"x_min":0,"x_max":0,"o":"m 513 -22 b 822 132 654 -22 771 38 l 831 0 l 975 0 l 975 518 l 531 518 l 531 350 l 735 350 b 536 175 724 244 651 175 b 301 492 374 175 301 304 b 531 811 301 678 379 811 b 722 644 647 811 703 749 l 972 656 b 529 1008 926 875 792 1008 b 53 492 229 1008 53 789 b 513 -22 53 186 226 -22 z m 290 1058 l 451 1058 l 539 1182 l 625 1058 l 786 1058 l 650 1279 l 426 1279 z "},"Ģ":{"ha":1035,"x_min":0,"x_max":0,"o":"m 513 -22 b 822 132 654 -22 771 38 l 831 0 l 975 0 l 975 518 l 531 518 l 531 350 l 735 350 b 536 175 724 244 651 175 b 301 492 374 175 301 304 b 531 811 301 678 379 811 b 722 644 647 811 703 749 l 972 656 b 529 1008 926 875 792 1008 b 53 492 229 1008 53 789 b 513 -22 53 186 226 -22 z m 428 -350 l 564 -350 l 644 -214 l 644 -58 l 450 -58 l 450 -232 l 499 -232 z "},"Ġ":{"ha":1035,"x_min":0,"x_max":0,"o":"m 513 -22 b 822 132 654 -22 771 38 l 831 0 l 975 0 l 975 518 l 531 518 l 531 350 l 735 350 b 536 175 724 244 651 175 b 301 492 374 175 301 304 b 531 811 301 678 379 811 b 722 644 647 811 703 749 l 972 656 b 529 1008 926 875 792 1008 b 53 492 229 1008 53 789 b 513 -22 53 186 226 -22 z m 415 1069 l 661 1069 l 661 1247 l 415 1247 z "},"Ḡ":{"ha":1035,"x_min":0,"x_max":0,"o":"m 513 -22 b 822 132 654 -22 771 38 l 831 0 l 975 0 l 975 518 l 531 518 l 531 350 l 735 350 b 536 175 724 244 651 175 b 301 492 374 175 301 304 b 531 811 301 678 379 811 b 722 644 647 811 703 749 l 972 656 b 529 1008 926 875 792 1008 b 53 492 229 1008 53 789 b 513 -22 53 186 226 -22 z m 324 1074 l 753 1074 l 753 1243 l 324 1243 z "},"Ǥ":{"ha":1089,"x_min":0,"x_max":0,"o":"m 539 -22 b 943 243 703 -22 872 46 l 1043 243 l 1043 346 l 968 346 b 976 460 974 381 976 418 l 976 518 l 531 518 l 531 397 l 729 397 b 725 346 729 379 728 363 l 531 346 l 531 243 l 685 243 b 533 175 651 200 601 175 b 301 492 376 175 301 307 b 533 811 301 678 375 811 b 721 657 632 811 697 750 l 972 669 b 539 1008 922 879 767 1008 b 53 492 243 1008 53 788 b 539 -22 53 197 244 -22 z "},"H":{"ha":1006,"x_min":0,"x_max":0,"o":"m 94 0 l 336 0 l 336 397 l 669 397 l 669 0 l 911 0 l 911 986 l 669 986 l 669 596 l 336 596 l 336 986 l 94 986 z "},"Ħ":{"ha":1086,"x_min":0,"x_max":0,"o":"m 733 0 l 976 0 l 976 654 l 1061 654 l 1061 853 l 976 853 l 976 986 l 733 986 l 733 853 l 353 853 l 353 986 l 110 986 l 110 853 l 25 853 l 25 654 l 110 654 l 110 0 l 353 0 l 353 315 l 733 315 z m 353 514 l 353 654 l 733 654 l 733 514 z "},"Ĥ":{"ha":1006,"x_min":0,"x_max":0,"o":"m 94 0 l 336 0 l 336 397 l 669 397 l 669 0 l 911 0 l 911 986 l 669 986 l 669 596 l 336 596 l 336 986 l 94 986 z m 254 1058 l 415 1058 l 503 1182 l 589 1058 l 750 1058 l 614 1279 l 390 1279 z "},"I":{"ha":431,"x_min":0,"x_max":0,"o":"m 94 0 l 336 0 l 336 986 l 94 986 z "},"Ĳ":{"ha":1315,"x_min":0,"x_max":0,"o":"m 94 0 l 336 0 l 336 986 l 94 986 z m 868 -22 b 1242 358 1090 -22 1242 126 l 1242 986 l 1000 986 l 1000 358 b 868 175 1000 232 950 175 b 732 372 785 175 735 235 l 490 361 b 868 -22 493 140 622 -22 z "},"Í":{"ha":431,"x_min":0,"x_max":0,"o":"m 94 0 l 336 0 l 336 986 l 94 986 z m 107 1067 l 286 1067 l 411 1279 l 185 1279 z "},"Î":{"ha":431,"x_min":0,"x_max":0,"o":"m 94 0 l 336 0 l 336 986 l 94 986 z m -32 1058 l 129 1058 l 217 1182 l 303 1058 l 464 1058 l 328 1279 l 104 1279 z "},"Ï":{"ha":431,"x_min":0,"x_max":0,"o":"m 94 0 l 336 0 l 336 986 l 94 986 z m -56 1069 l 168 1069 l 168 1247 l -56 1247 z m 261 1069 l 486 1069 l 486 1247 l 261 1247 z "},"İ":{"ha":431,"x_min":0,"x_max":0,"o":"m 94 0 l 336 0 l 336 986 l 94 986 z m 92 1069 l 338 1069 l 338 1247 l 92 1247 z "},"Ì":{"ha":431,"x_min":0,"x_max":0,"o":"m 94 0 l 336 0 l 336 986 l 94 986 z m 142 1067 l 321 1067 l 243 1279 l 17 1279 z "},"Ī":{"ha":431,"x_min":0,"x_max":0,"o":"m 94 0 l 336 0 l 336 986 l 94 986 z m 0 1074 l 429 1074 l 429 1243 l 0 1243 z "},"Į":{"ha":431,"x_min":0,"x_max":0,"o":"m 94 0 l 157 0 l 128 -35 b 69 -176 93 -76 69 -119 b 236 -306 69 -258 129 -306 b 389 -269 299 -306 363 -289 l 349 -153 b 292 -171 336 -162 313 -171 b 257 -136 274 -171 257 -160 b 297 -50 257 -112 272 -83 l 336 0 l 336 986 l 94 986 z "},"Ĩ":{"ha":431,"x_min":0,"x_max":0,"o":"m 94 0 l 336 0 l 336 986 l 94 986 z m 292 1079 b 460 1290 400 1079 458 1161 l 344 1290 b 296 1215 342 1233 321 1215 b 247 1238 279 1215 267 1222 b 132 1281 210 1268 176 1281 b -29 1072 29 1281 -29 1197 l 85 1072 b 136 1144 90 1126 111 1144 b 183 1124 153 1144 167 1138 b 292 1079 221 1092 247 1079 z "},"J":{"ha":885,"x_min":0,"x_max":0,"o":"m 438 -22 b 811 358 660 -22 811 126 l 811 986 l 569 986 l 569 358 b 438 175 569 232 519 175 b 301 372 354 175 304 235 l 60 361 b 438 -22 63 140 192 -22 z "},"Ĵ":{"ha":885,"x_min":0,"x_max":0,"o":"m 438 -22 b 811 358 660 -22 811 126 l 811 986 l 569 986 l 569 358 b 438 175 569 232 519 175 b 301 372 354 175 304 235 l 60 361 b 438 -22 63 140 192 -22 z m 443 1058 l 604 1058 l 692 1182 l 778 1058 l 939 1058 l 803 1279 l 579 1279 z "},"K":{"ha":1003,"x_min":0,"x_max":0,"o":"m 94 0 l 336 0 l 336 276 l 431 389 l 693 0 l 964 0 l 589 549 l 943 986 l 665 986 l 336 576 l 336 986 l 94 986 z "},"Ǩ":{"ha":1003,"x_min":0,"x_max":0,"o":"m 94 0 l 336 0 l 336 276 l 431 389 l 693 0 l 964 0 l 589 549 l 943 986 l 665 986 l 336 576 l 336 986 l 94 986 z m 247 1279 l 383 1058 l 607 1058 l 743 1279 l 582 1279 l 496 1156 l 408 1279 z "},"Ķ":{"ha":1003,"x_min":0,"x_max":0,"o":"m 94 0 l 336 0 l 336 276 l 431 389 l 693 0 l 964 0 l 589 549 l 943 986 l 665 986 l 336 576 l 336 986 l 94 986 z m 392 -350 l 528 -350 l 608 -214 l 608 -58 l 414 -58 l 414 -232 l 463 -232 z "},"L":{"ha":822,"x_min":0,"x_max":0,"o":"m 94 0 l 778 0 l 778 197 l 336 197 l 336 986 l 94 986 z "},"Ĺ":{"ha":822,"x_min":0,"x_max":0,"o":"m 94 0 l 778 0 l 778 197 l 336 197 l 336 986 l 94 986 z m 107 1067 l 286 1067 l 411 1279 l 185 1279 z "},"Ľ":{"ha":821,"x_min":0,"x_max":0,"o":"m 94 0 l 778 0 l 778 197 l 336 197 l 336 986 l 94 986 z m 457 594 l 593 594 l 672 986 l 497 986 z "},"Ļ":{"ha":822,"x_min":0,"x_max":0,"o":"m 94 0 l 778 0 l 778 197 l 336 197 l 336 986 l 94 986 z m 328 -350 l 464 -350 l 544 -214 l 544 -58 l 350 -58 l 350 -232 l 399 -232 z "},"Ł":{"ha":876,"x_min":0,"x_max":0,"o":"m 51 368 l 149 413 l 149 0 l 832 0 l 832 197 l 390 197 l 390 525 l 572 608 l 510 740 l 390 685 l 390 986 l 149 986 l 149 574 l -10 500 z "},"M":{"ha":1288,"x_min":0,"x_max":0,"o":"m 94 0 l 336 0 l 336 597 l 550 3 l 736 3 l 951 597 l 951 0 l 1193 0 l 1193 986 l 874 986 l 644 314 l 414 986 l 94 986 z "},"N":{"ha":1046,"x_min":0,"x_max":0,"o":"m 94 0 l 336 0 l 336 592 l 696 0 l 951 0 l 951 986 l 710 986 l 710 368 l 349 986 l 94 986 z "},"Ń":{"ha":1046,"x_min":0,"x_max":0,"o":"m 94 0 l 336 0 l 336 592 l 696 0 l 951 0 l 951 986 l 710 986 l 710 368 l 349 986 l 94 986 z m 418 1067 l 597 1067 l 722 1279 l 496 1279 z "},"Ň":{"ha":1046,"x_min":0,"x_max":0,"o":"m 94 0 l 336 0 l 336 592 l 696 0 l 951 0 l 951 986 l 710 986 l 710 368 l 349 986 l 94 986 z m 285 1279 l 421 1058 l 644 1058 l 781 1279 l 619 1279 l 533 1156 l 446 1279 z "},"Ņ":{"ha":1046,"x_min":0,"x_max":0,"o":"m 94 0 l 336 0 l 336 592 l 696 0 l 951 0 l 951 986 l 710 986 l 710 368 l 349 986 l 94 986 z m 410 -350 l 546 -350 l 626 -214 l 626 -58 l 432 -58 l 432 -232 l 481 -232 z "},"Ñ":{"ha":1046,"x_min":0,"x_max":0,"o":"m 94 0 l 336 0 l 336 592 l 696 0 l 951 0 l 951 986 l 710 986 l 710 368 l 349 986 l 94 986 z m 603 1079 b 771 1290 711 1079 769 1161 l 656 1290 b 607 1215 653 1233 632 1215 b 558 1238 590 1215 578 1222 b 443 1281 521 1268 488 1281 b 282 1072 340 1281 282 1197 l 396 1072 b 447 1144 401 1126 422 1144 b 494 1124 464 1144 478 1138 b 603 1079 532 1092 558 1079 z "},"Ŋ":{"ha":1043,"x_min":0,"x_max":0,"o":"m 94 0 l 336 0 l 336 594 l 710 0 l 710 -6 b 631 -72 710 -50 683 -72 l 526 -72 l 526 -233 l 706 -233 b 950 -4 854 -233 950 -144 l 950 986 l 707 986 l 707 401 l 347 986 l 94 986 z "},"O":{"ha":1085,"x_min":0,"x_max":0,"o":"m 543 -22 b 1033 492 849 -22 1033 175 b 543 1008 1033 808 849 1008 b 53 492 236 1008 53 808 b 543 -22 53 175 236 -22 z m 543 175 b 301 492 390 175 301 290 b 543 811 301 693 390 811 b 785 492 694 811 785 693 b 543 175 785 290 694 175 z "},"Ó":{"ha":1085,"x_min":0,"x_max":0,"o":"m 543 -22 b 1033 492 849 -22 1033 175 b 543 1008 1033 808 849 1008 b 53 492 236 1008 53 808 b 543 -22 53 175 236 -22 z m 543 175 b 301 492 390 175 301 290 b 543 811 301 693 390 811 b 785 492 694 811 785 693 b 543 175 785 290 694 175 z m 433 1067 l 613 1067 l 738 1279 l 511 1279 z "},"Ô":{"ha":1085,"x_min":0,"x_max":0,"o":"m 543 -22 b 1033 492 849 -22 1033 175 b 543 1008 1033 808 849 1008 b 53 492 236 1008 53 808 b 543 -22 53 175 236 -22 z m 543 175 b 301 492 390 175 301 290 b 543 811 301 693 390 811 b 785 492 694 811 785 693 b 543 175 785 290 694 175 z m 294 1058 l 456 1058 l 543 1182 l 629 1058 l 790 1058 l 654 1279 l 431 1279 z "},"Ö":{"ha":1085,"x_min":0,"x_max":0,"o":"m 543 -22 b 1033 492 849 -22 1033 175 b 543 1008 1033 808 849 1008 b 53 492 236 1008 53 808 b 543 -22 53 175 236 -22 z m 543 175 b 301 492 390 175 301 290 b 543 811 301 693 390 811 b 785 492 694 811 785 693 b 543 175 785 290 694 175 z m 272 1069 l 496 1069 l 496 1247 l 272 1247 z m 589 1069 l 814 1069 l 814 1247 l 589 1247 z "},"Ò":{"ha":1085,"x_min":0,"x_max":0,"o":"m 543 -22 b 1033 492 849 -22 1033 175 b 543 1008 1033 808 849 1008 b 53 492 236 1008 53 808 b 543 -22 53 175 236 -22 z m 543 175 b 301 492 390 175 301 290 b 543 811 301 693 390 811 b 785 492 694 811 785 693 b 543 175 785 290 694 175 z m 468 1067 l 647 1067 l 569 1279 l 343 1279 z "},"Ő":{"ha":1085,"x_min":0,"x_max":0,"o":"m 543 -22 b 1033 492 849 -22 1033 175 b 543 1008 1033 808 849 1008 b 53 492 236 1008 53 808 b 543 -22 53 175 236 -22 z m 543 175 b 301 492 390 175 301 290 b 543 811 301 693 390 811 b 785 492 694 811 785 693 b 543 175 785 290 694 175 z m 322 1067 l 501 1067 l 626 1279 l 400 1279 z m 590 1067 l 769 1067 l 894 1279 l 668 1279 z "},"Ō":{"ha":1085,"x_min":0,"x_max":0,"o":"m 543 -22 b 1033 492 849 -22 1033 175 b 543 1008 1033 808 849 1008 b 53 492 236 1008 53 808 b 543 -22 53 175 236 -22 z m 543 175 b 301 492 390 175 301 290 b 543 811 301 693 390 811 b 785 492 694 811 785 693 b 543 175 785 290 694 175 z m 328 1074 l 757 1074 l 757 1243 l 328 1243 z "},"Ø":{"ha":1086,"x_min":0,"x_max":0,"o":"m 67 -22 l 236 -22 l 282 40 b 544 -22 354 0 443 -22 b 1035 492 850 -22 1035 175 b 903 869 1035 650 989 781 l 1007 1008 l 839 1008 l 796 951 b 544 1008 725 989 642 1008 b 54 492 238 1008 54 808 b 176 125 54 339 97 213 z m 544 175 b 413 214 493 175 449 188 l 754 671 b 786 492 775 622 786 563 b 544 175 786 290 696 175 z m 303 492 b 544 811 303 693 392 811 b 667 778 592 811 632 800 l 329 328 b 303 492 311 374 303 428 z "},"Õ":{"ha":1085,"x_min":0,"x_max":0,"o":"m 543 -22 b 1033 492 849 -22 1033 175 b 543 1008 1033 808 849 1008 b 53 492 236 1008 53 808 b 543 -22 53 175 236 -22 z m 543 175 b 301 492 390 175 301 290 b 543 811 301 693 390 811 b 785 492 694 811 785 693 b 543 175 785 290 694 175 z m 618 1079 b 786 1290 726 1079 785 1161 l 671 1290 b 622 1215 668 1233 647 1215 b 574 1238 606 1215 593 1222 b 458 1281 536 1268 503 1281 b 297 1072 356 1281 297 1197 l 411 1072 b 463 1144 417 1126 438 1144 b 510 1124 479 1144 493 1138 b 618 1079 547 1092 574 1079 z "},"Œ":{"ha":1558,"x_min":0,"x_max":0,"o":"m 539 -22 b 818 75 651 -22 747 14 l 818 0 l 1500 0 l 1500 197 l 1061 197 l 1061 396 l 1472 396 l 1472 593 l 1061 593 l 1061 789 l 1489 789 l 1489 986 l 818 986 l 818 911 b 539 1008 747 972 651 1008 b 53 492 243 1008 53 788 b 539 -22 53 197 244 -22 z m 539 175 b 301 492 372 175 301 325 b 539 811 301 660 371 811 b 775 492 706 811 775 660 b 539 175 775 325 704 175 z "},"P":{"ha":943,"x_min":0,"x_max":0,"o":"m 94 0 l 336 0 l 336 326 l 503 326 b 892 657 744 326 892 453 b 503 986 892 861 744 986 l 94 986 z m 486 525 l 336 525 l 336 789 l 486 789 b 644 657 585 789 644 743 b 486 525 644 569 583 525 z "},"Þ":{"ha":900,"x_min":0,"x_max":0,"o":"m 94 0 l 336 0 l 336 206 l 476 206 b 849 510 714 206 849 317 b 476 810 849 700 714 810 l 336 810 l 336 986 l 94 986 z m 336 404 l 336 611 l 469 611 b 600 508 557 611 600 576 b 469 404 600 440 557 404 z "},"Q":{"ha":1076,"x_min":0,"x_max":0,"o":"m 717 10 l 792 -82 l 981 -82 l 847 83 b 1024 492 958 175 1024 308 b 539 1008 1024 788 854 1008 b 53 492 222 1008 53 788 b 539 -22 53 186 244 -22 b 717 10 614 -22 675 -11 z m 539 175 b 301 492 372 175 301 325 b 539 811 301 660 371 811 b 775 492 706 811 775 660 b 707 267 775 379 749 313 l 646 347 l 456 347 l 590 183 b 539 175 575 178 557 175 z "},"R":{"ha":981,"x_min":0,"x_max":0,"o":"m 94 0 l 336 0 l 336 349 l 521 349 b 653 240 615 349 647 314 l 668 0 l 915 0 l 892 281 b 731 450 885 379 833 436 b 907 693 839 485 907 572 b 546 986 907 871 765 986 l 94 986 z m 508 546 l 336 546 l 336 789 l 506 789 b 660 668 606 789 660 747 b 508 546 660 590 606 546 z "},"Ŕ":{"ha":981,"x_min":0,"x_max":0,"o":"m 94 0 l 336 0 l 336 349 l 521 349 b 653 240 615 349 647 314 l 668 0 l 915 0 l 892 281 b 731 450 885 379 833 436 b 907 693 839 485 907 572 b 546 986 907 871 765 986 l 94 986 z m 508 546 l 336 546 l 336 789 l 506 789 b 660 668 606 789 660 747 b 508 546 660 590 606 546 z m 374 1067 l 553 1067 l 678 1279 l 451 1279 z "},"Ř":{"ha":981,"x_min":0,"x_max":0,"o":"m 94 0 l 336 0 l 336 349 l 521 349 b 653 240 615 349 647 314 l 668 0 l 915 0 l 892 281 b 731 450 885 379 833 436 b 907 693 839 485 907 572 b 546 986 907 871 765 986 l 94 986 z m 508 546 l 336 546 l 336 789 l 506 789 b 660 668 606 789 660 747 b 508 546 660 590 606 546 z m 240 1279 l 376 1058 l 600 1058 l 736 1279 l 575 1279 l 489 1156 l 401 1279 z "},"Ŗ":{"ha":981,"x_min":0,"x_max":0,"o":"m 94 0 l 336 0 l 336 349 l 521 349 b 653 240 615 349 647 314 l 668 0 l 915 0 l 892 281 b 731 450 885 379 833 436 b 907 693 839 485 907 572 b 546 986 907 871 765 986 l 94 986 z m 508 546 l 336 546 l 336 789 l 506 789 b 660 668 606 789 660 747 b 508 546 660 590 606 546 z m 396 -350 l 532 -350 l 613 -214 l 613 -58 l 418 -58 l 418 -232 l 467 -232 z "},"S":{"ha":957,"x_min":0,"x_max":0,"o":"m 497 -22 b 890 283 742 -22 890 94 b 515 589 890 436 797 536 b 328 714 371 617 328 646 b 465 814 328 774 379 814 b 636 657 567 814 628 753 l 876 668 b 468 1008 856 867 722 1008 b 85 706 228 1008 85 885 b 449 404 85 531 188 460 b 647 272 617 368 647 333 b 500 172 647 206 593 172 b 308 339 383 172 324 232 l 67 328 b 497 -22 81 114 233 -22 z "},"Ś":{"ha":957,"x_min":0,"x_max":0,"o":"m 497 -22 b 890 283 742 -22 890 94 b 515 589 890 436 797 536 b 328 714 371 617 328 646 b 465 814 328 774 379 814 b 636 657 567 814 628 753 l 876 668 b 468 1008 856 867 722 1008 b 85 706 228 1008 85 885 b 449 404 85 531 188 460 b 647 272 617 368 647 333 b 500 172 647 206 593 172 b 308 339 383 172 324 232 l 67 328 b 497 -22 81 114 233 -22 z m 382 1067 l 561 1067 l 686 1279 l 460 1279 z "},"Š":{"ha":957,"x_min":0,"x_max":0,"o":"m 497 -22 b 890 283 742 -22 890 94 b 515 589 890 436 797 536 b 328 714 371 617 328 646 b 465 814 328 774 379 814 b 636 657 567 814 628 753 l 876 668 b 468 1008 856 867 722 1008 b 85 706 228 1008 85 885 b 449 404 85 531 188 460 b 647 272 617 368 647 333 b 500 172 647 206 593 172 b 308 339 383 172 324 232 l 67 328 b 497 -22 81 114 233 -22 z m 249 1279 l 385 1058 l 608 1058 l 744 1279 l 583 1279 l 497 1156 l 410 1279 z "},"Ş":{"ha":957,"x_min":0,"x_max":0,"o":"m 475 -328 b 657 -175 574 -328 657 -282 b 524 -42 657 -107 618 -51 l 536 -21 b 890 283 757 -10 890 104 b 515 589 890 436 797 536 b 328 714 371 617 328 646 b 465 814 328 774 379 814 b 636 657 567 814 628 753 l 876 668 b 468 1008 856 867 722 1008 b 85 706 228 1008 85 885 b 449 404 85 531 188 460 b 647 272 617 368 647 333 b 500 172 647 206 593 172 b 308 339 383 172 324 232 l 67 328 b 411 -17 79 139 200 10 l 386 -61 l 449 -118 b 533 -169 517 -118 533 -139 b 469 -219 533 -201 508 -219 b 390 -167 428 -219 404 -201 l 292 -211 b 475 -328 318 -281 381 -328 z "},"Ŝ":{"ha":957,"x_min":0,"x_max":0,"o":"m 497 -22 b 890 283 742 -22 890 94 b 515 589 890 436 797 536 b 328 714 371 617 328 646 b 465 814 328 774 379 814 b 636 657 567 814 628 753 l 876 668 b 468 1008 856 867 722 1008 b 85 706 228 1008 85 885 b 449 404 85 531 188 460 b 647 272 617 368 647 333 b 500 172 647 206 593 172 b 308 339 383 172 324 232 l 67 328 b 497 -22 81 114 233 -22 z m 243 1058 l 404 1058 l 492 1182 l 578 1058 l 739 1058 l 603 1279 l 379 1279 z "},"Ș":{"ha":957,"x_min":0,"x_max":0,"o":"m 497 -22 b 890 283 742 -22 890 94 b 515 589 890 436 797 536 b 328 714 371 617 328 646 b 465 814 328 774 379 814 b 636 657 567 814 628 753 l 876 668 b 468 1008 856 867 722 1008 b 85 706 228 1008 85 885 b 449 404 85 531 188 460 b 647 272 617 368 647 333 b 500 172 647 206 593 172 b 308 339 383 172 324 232 l 67 328 b 497 -22 81 114 233 -22 z m 382 -350 l 518 -350 l 599 -214 l 599 -58 l 404 -58 l 404 -232 l 453 -232 z "},"ẞ":{"ha":1053,"x_min":0,"x_max":0,"o":"m 94 633 l 94 0 l 336 0 l 336 633 b 486 789 336 736 388 789 l 646 789 l 443 608 l 443 425 l 578 426 b 742 311 682 426 742 385 b 590 197 742 242 686 197 l 429 197 l 429 0 l 590 0 b 988 307 849 0 988 111 b 710 581 988 447 879 549 l 946 790 l 946 986 l 486 986 b 94 633 231 986 94 863 z "},"T":{"ha":903,"x_min":0,"x_max":0,"o":"m 331 0 l 574 0 l 574 789 l 865 789 l 865 986 l 39 986 l 39 789 l 331 789 z "},"Ŧ":{"ha":903,"x_min":0,"x_max":0,"o":"m 331 0 l 574 0 l 574 383 l 740 383 l 740 504 l 574 504 l 574 789 l 865 789 l 865 986 l 39 986 l 39 789 l 331 789 l 331 504 l 165 504 l 165 383 l 331 383 z "},"Ť":{"ha":903,"x_min":0,"x_max":0,"o":"m 331 0 l 574 0 l 574 789 l 865 789 l 865 986 l 39 986 l 39 789 l 331 789 z m 210 1279 l 346 1058 l 569 1058 l 706 1279 l 544 1279 l 458 1156 l 371 1279 z "},"Ţ":{"ha":903,"x_min":0,"x_max":0,"o":"m 331 0 l 382 0 l 347 -61 l 410 -118 b 494 -169 478 -118 494 -139 b 431 -219 494 -201 469 -219 b 351 -167 389 -219 365 -201 l 253 -211 b 436 -328 279 -281 342 -328 b 618 -175 535 -328 618 -282 b 485 -42 618 -107 579 -51 l 511 0 l 574 0 l 574 789 l 865 789 l 865 986 l 39 986 l 39 789 l 331 789 z "},"Ț":{"ha":903,"x_min":0,"x_max":0,"o":"m 331 0 l 574 0 l 574 789 l 865 789 l 865 986 l 39 986 l 39 789 l 331 789 z m 343 -350 l 479 -350 l 560 -214 l 560 -58 l 365 -58 l 365 -232 l 414 -232 z "},"U":{"ha":983,"x_min":0,"x_max":0,"o":"m 492 -22 b 910 360 749 -22 910 126 l 910 988 l 668 988 l 668 360 b 492 175 668 242 606 175 b 315 360 378 175 315 242 l 315 988 l 74 988 l 74 360 b 492 -22 74 126 236 -22 z "},"Ú":{"ha":983,"x_min":0,"x_max":0,"o":"m 492 -22 b 910 360 749 -22 910 126 l 910 988 l 668 988 l 668 360 b 492 175 668 242 606 175 b 315 360 378 175 315 242 l 315 988 l 74 988 l 74 360 b 492 -22 74 126 236 -22 z m 382 1067 l 561 1067 l 686 1279 l 460 1279 z "},"Ŭ":{"ha":983,"x_min":0,"x_max":0,"o":"m 492 -22 b 910 360 749 -22 910 126 l 910 988 l 668 988 l 668 360 b 492 175 668 242 606 175 b 315 360 378 175 315 242 l 315 988 l 74 988 l 74 360 b 492 -22 74 126 236 -22 z m 492 1067 b 717 1279 626 1067 711 1143 l 583 1279 b 492 1190 578 1215 544 1190 b 400 1279 439 1190 407 1215 l 267 1279 b 492 1067 272 1143 358 1067 z "},"Û":{"ha":983,"x_min":0,"x_max":0,"o":"m 492 -22 b 910 360 749 -22 910 126 l 910 988 l 668 988 l 668 360 b 492 175 668 242 606 175 b 315 360 378 175 315 242 l 315 988 l 74 988 l 74 360 b 492 -22 74 126 236 -22 z m 243 1058 l 404 1058 l 492 1182 l 578 1058 l 739 1058 l 603 1279 l 379 1279 z "},"Ü":{"ha":983,"x_min":0,"x_max":0,"o":"m 492 -22 b 910 360 749 -22 910 126 l 910 988 l 668 988 l 668 360 b 492 175 668 242 606 175 b 315 360 378 175 315 242 l 315 988 l 74 988 l 74 360 b 492 -22 74 126 236 -22 z m 221 1069 l 444 1069 l 444 1247 l 221 1247 z m 538 1069 l 763 1069 l 763 1247 l 538 1247 z "},"Ù":{"ha":983,"x_min":0,"x_max":0,"o":"m 492 -22 b 910 360 749 -22 910 126 l 910 988 l 668 988 l 668 360 b 492 175 668 242 606 175 b 315 360 378 175 315 242 l 315 988 l 74 988 l 74 360 b 492 -22 74 126 236 -22 z m 418 1067 l 597 1067 l 519 1279 l 293 1279 z "},"Ű":{"ha":983,"x_min":0,"x_max":0,"o":"m 492 -22 b 910 360 749 -22 910 126 l 910 988 l 668 988 l 668 360 b 492 175 668 242 606 175 b 315 360 378 175 315 242 l 315 988 l 74 988 l 74 360 b 492 -22 74 126 236 -22 z m 271 1067 l 450 1067 l 575 1279 l 349 1279 z m 539 1067 l 718 1067 l 843 1279 l 617 1279 z "},"Ū":{"ha":983,"x_min":0,"x_max":0,"o":"m 492 -22 b 910 360 749 -22 910 126 l 910 988 l 668 988 l 668 360 b 492 175 668 242 606 175 b 315 360 378 175 315 242 l 315 988 l 74 988 l 74 360 b 492 -22 74 126 236 -22 z m 276 1074 l 706 1074 l 706 1243 l 276 1243 z "},"Ų":{"ha":983,"x_min":0,"x_max":0,"o":"m 74 360 b 482 -22 74 129 232 -18 b 383 -181 425 -61 382 -107 b 524 -306 383 -251 446 -306 b 653 -262 579 -306 626 -286 l 653 -146 b 575 -179 625 -168 599 -179 b 525 -132 544 -179 525 -160 b 693 15 525 -83 558 -47 b 910 360 831 74 910 196 l 910 988 l 668 988 l 668 360 b 492 175 668 242 606 175 b 315 360 378 175 315 242 l 315 988 l 74 988 z "},"Ů":{"ha":983,"x_min":0,"x_max":0,"o":"m 492 -22 b 910 360 749 -22 910 126 l 910 988 l 668 988 l 668 360 b 492 175 668 242 606 175 b 315 360 378 175 315 242 l 315 988 l 74 988 l 74 360 b 492 -22 74 126 236 -22 z m 492 1047 b 640 1193 575 1047 640 1110 b 492 1339 640 1276 575 1339 b 344 1193 408 1339 344 1276 b 492 1047 344 1110 408 1047 z m 492 1144 b 443 1193 463 1144 443 1164 b 492 1243 443 1222 463 1243 b 542 1193 521 1243 542 1222 b 492 1144 542 1164 521 1144 z "},"Ũ":{"ha":983,"x_min":0,"x_max":0,"o":"m 492 -22 b 910 360 749 -22 910 126 l 910 988 l 668 988 l 668 360 b 492 175 668 242 606 175 b 315 360 378 175 315 242 l 315 988 l 74 988 l 74 360 b 492 -22 74 126 236 -22 z m 568 1079 b 736 1290 676 1079 735 1161 l 621 1290 b 572 1215 618 1233 597 1215 b 524 1238 556 1215 543 1222 b 408 1281 486 1268 453 1281 b 247 1072 306 1281 247 1197 l 361 1072 b 413 1144 367 1126 388 1144 b 460 1124 429 1144 443 1138 b 568 1079 497 1092 524 1079 z "},"V":{"ha":1064,"x_min":0,"x_max":0,"o":"m 392 0 l 669 0 l 1028 986 l 779 986 l 532 272 l 285 986 l 36 986 z "},"W":{"ha":1413,"x_min":0,"x_max":0,"o":"m 304 0 l 557 0 l 707 586 l 857 0 l 1108 0 l 1376 986 l 1125 986 l 968 335 l 807 986 l 606 986 l 444 335 l 286 986 l 36 986 z "},"Ẃ":{"ha":1413,"x_min":0,"x_max":0,"o":"m 304 0 l 557 0 l 707 586 l 857 0 l 1108 0 l 1376 986 l 1125 986 l 968 335 l 807 986 l 606 986 l 444 335 l 286 986 l 36 986 z m 597 1067 l 776 1067 l 901 1279 l 675 1279 z "},"Ŵ":{"ha":1413,"x_min":0,"x_max":0,"o":"m 304 0 l 557 0 l 707 586 l 857 0 l 1108 0 l 1376 986 l 1125 986 l 968 335 l 807 986 l 606 986 l 444 335 l 286 986 l 36 986 z m 458 1058 l 619 1058 l 707 1182 l 793 1058 l 954 1058 l 818 1279 l 594 1279 z "},"Ẅ":{"ha":1413,"x_min":0,"x_max":0,"o":"m 304 0 l 557 0 l 707 586 l 857 0 l 1108 0 l 1376 986 l 1125 986 l 968 335 l 807 986 l 606 986 l 444 335 l 286 986 l 36 986 z m 436 1069 l 660 1069 l 660 1247 l 436 1247 z m 753 1069 l 978 1069 l 978 1247 l 753 1247 z "},"Ẁ":{"ha":1413,"x_min":0,"x_max":0,"o":"m 304 0 l 557 0 l 707 586 l 857 0 l 1108 0 l 1376 986 l 1125 986 l 968 335 l 807 986 l 606 986 l 444 335 l 286 986 l 36 986 z m 632 1067 l 811 1067 l 733 1279 l 507 1279 z "},"X":{"ha":1042,"x_min":0,"x_max":0,"o":"m 40 0 l 321 0 l 521 317 l 722 0 l 1001 0 l 664 497 l 999 986 l 718 986 l 524 675 l 322 986 l 43 986 l 379 494 z "},"Y":{"ha":994,"x_min":0,"x_max":0,"o":"m 376 0 l 619 0 l 619 376 l 960 986 l 696 986 l 499 610 l 300 986 l 36 986 l 376 376 z "},"Ý":{"ha":994,"x_min":0,"x_max":0,"o":"m 376 0 l 619 0 l 619 376 l 960 986 l 696 986 l 499 610 l 300 986 l 36 986 l 376 376 z m 390 1067 l 569 1067 l 694 1279 l 468 1279 z "},"Ŷ":{"ha":994,"x_min":0,"x_max":0,"o":"m 376 0 l 619 0 l 619 376 l 960 986 l 696 986 l 499 610 l 300 986 l 36 986 l 376 376 z m 251 1058 l 413 1058 l 500 1182 l 586 1058 l 747 1058 l 611 1279 l 388 1279 z "},"Ÿ":{"ha":994,"x_min":0,"x_max":0,"o":"m 376 0 l 619 0 l 619 376 l 960 986 l 696 986 l 499 610 l 300 986 l 36 986 l 376 376 z m 228 1069 l 451 1069 l 451 1247 l 228 1247 z m 544 1069 l 769 1069 l 769 1247 l 544 1247 z "},"Ỳ":{"ha":994,"x_min":0,"x_max":0,"o":"m 376 0 l 619 0 l 619 376 l 960 986 l 696 986 l 499 610 l 300 986 l 36 986 l 376 376 z m 425 1067 l 604 1067 l 526 1279 l 300 1279 z "},"Ỹ":{"ha":994,"x_min":0,"x_max":0,"o":"m 376 0 l 619 0 l 619 376 l 960 986 l 696 986 l 499 610 l 300 986 l 36 986 l 376 376 z m 575 1079 b 743 1290 683 1079 742 1161 l 628 1290 b 579 1215 625 1233 604 1215 b 531 1238 563 1215 550 1222 b 415 1281 493 1268 460 1281 b 254 1072 313 1281 254 1197 l 368 1072 b 419 1144 374 1126 394 1144 b 467 1124 436 1144 450 1138 b 575 1079 504 1092 531 1079 z "},"Z":{"ha":854,"x_min":0,"x_max":0,"o":"m 40 0 l 814 0 l 814 197 l 332 197 l 794 797 l 794 986 l 64 986 l 64 789 l 490 789 l 40 189 z "},"Ź":{"ha":854,"x_min":0,"x_max":0,"o":"m 40 0 l 814 0 l 814 197 l 332 197 l 794 797 l 794 986 l 64 986 l 64 789 l 490 789 l 40 189 z m 365 1067 l 544 1067 l 669 1279 l 443 1279 z "},"Ž":{"ha":854,"x_min":0,"x_max":0,"o":"m 40 0 l 814 0 l 814 197 l 332 197 l 794 797 l 794 986 l 64 986 l 64 789 l 490 789 l 40 189 z m 197 1279 l 333 1058 l 557 1058 l 693 1279 l 532 1279 l 446 1156 l 358 1279 z "},"Ż":{"ha":854,"x_min":0,"x_max":0,"o":"m 40 0 l 814 0 l 814 197 l 332 197 l 794 797 l 794 986 l 64 986 l 64 789 l 490 789 l 40 189 z m 317 1069 l 563 1069 l 563 1247 l 317 1247 z "},"Ꞌ":{"ha":275,"x_min":0,"x_max":0,"o":"m 74 500 l 204 500 l 222 783 l 222 986 l 53 986 l 53 783 z "},"a":{"ha":868,"x_min":0,"x_max":0,"o":"m 317 -17 b 576 115 451 -17 538 33 b 747 -10 597 15 674 -10 b 832 0 779 -10 817 -4 l 832 156 l 814 156 b 771 213 786 156 771 167 l 771 449 b 421 764 771 657 654 764 b 63 510 219 764 92 682 l 300 501 b 421 600 311 565 350 600 b 532 467 492 600 532 554 l 300 419 b 50 188 136 386 50 319 b 317 -17 50 58 158 -17 z m 378 139 b 296 210 322 139 296 165 b 386 293 296 253 328 281 l 532 326 l 532 296 b 378 139 532 194 468 139 z "},"á":{"ha":868,"x_min":0,"x_max":0,"o":"m 317 -17 b 576 115 451 -17 538 33 b 747 -10 597 15 674 -10 b 832 0 779 -10 817 -4 l 832 156 l 814 156 b 771 213 786 156 771 167 l 771 449 b 421 764 771 657 654 764 b 63 510 219 764 92 682 l 300 501 b 421 600 311 565 350 600 b 532 467 492 600 532 554 l 300 419 b 50 188 136 386 50 319 b 317 -17 50 58 158 -17 z m 378 139 b 296 210 322 139 296 165 b 386 293 296 253 328 281 l 532 326 l 532 296 b 378 139 532 194 468 139 z m 314 828 l 493 828 l 618 1040 l 392 1040 z "},"ă":{"ha":868,"x_min":0,"x_max":0,"o":"m 317 -17 b 576 115 451 -17 538 33 b 747 -10 597 15 674 -10 b 832 0 779 -10 817 -4 l 832 156 l 814 156 b 771 213 786 156 771 167 l 771 449 b 421 764 771 657 654 764 b 63 510 219 764 92 682 l 300 501 b 421 600 311 565 350 600 b 532 467 492 600 532 554 l 300 419 b 50 188 136 386 50 319 b 317 -17 50 58 158 -17 z m 378 139 b 296 210 322 139 296 165 b 386 293 296 253 328 281 l 532 326 l 532 296 b 378 139 532 194 468 139 z m 422 828 b 647 1040 557 828 642 904 l 514 1040 b 422 951 508 976 475 951 b 331 1040 369 951 338 976 l 197 1040 b 422 828 203 904 289 828 z "},"ǎ":{"ha":868,"x_min":0,"x_max":0,"o":"m 317 -17 b 576 115 451 -17 538 33 b 747 -10 597 15 674 -10 b 832 0 779 -10 817 -4 l 832 156 l 814 156 b 771 213 786 156 771 167 l 771 449 b 421 764 771 657 654 764 b 63 510 219 764 92 682 l 300 501 b 421 600 311 565 350 600 b 532 467 492 600 532 554 l 300 419 b 50 188 136 386 50 319 b 317 -17 50 58 158 -17 z m 378 139 b 296 210 322 139 296 165 b 386 293 296 253 328 281 l 532 326 l 532 296 b 378 139 532 194 468 139 z m 181 1040 l 317 819 l 540 819 l 676 1040 l 515 1040 l 429 917 l 342 1040 z "},"â":{"ha":868,"x_min":0,"x_max":0,"o":"m 317 -17 b 576 115 451 -17 538 33 b 747 -10 597 15 674 -10 b 832 0 779 -10 817 -4 l 832 156 l 814 156 b 771 213 786 156 771 167 l 771 449 b 421 764 771 657 654 764 b 63 510 219 764 92 682 l 300 501 b 421 600 311 565 350 600 b 532 467 492 600 532 554 l 300 419 b 50 188 136 386 50 319 b 317 -17 50 58 158 -17 z m 378 139 b 296 210 322 139 296 165 b 386 293 296 253 328 281 l 532 326 l 532 296 b 378 139 532 194 468 139 z m 175 819 l 336 819 l 424 943 l 510 819 l 671 819 l 535 1040 l 311 1040 z "},"ä":{"ha":868,"x_min":0,"x_max":0,"o":"m 317 -17 b 576 115 451 -17 538 33 b 747 -10 597 15 674 -10 b 832 0 779 -10 817 -4 l 832 156 l 814 156 b 771 213 786 156 771 167 l 771 449 b 421 764 771 657 654 764 b 63 510 219 764 92 682 l 300 501 b 421 600 311 565 350 600 b 532 467 492 600 532 554 l 300 419 b 50 188 136 386 50 319 b 317 -17 50 58 158 -17 z m 378 139 b 296 210 322 139 296 165 b 386 293 296 253 328 281 l 532 326 l 532 296 b 378 139 532 194 468 139 z m 151 831 l 375 831 l 375 1008 l 151 1008 z m 468 831 l 693 831 l 693 1008 l 468 1008 z "},"à":{"ha":868,"x_min":0,"x_max":0,"o":"m 317 -17 b 576 115 451 -17 538 33 b 747 -10 597 15 674 -10 b 832 0 779 -10 817 -4 l 832 156 l 814 156 b 771 213 786 156 771 167 l 771 449 b 421 764 771 657 654 764 b 63 510 219 764 92 682 l 300 501 b 421 600 311 565 350 600 b 532 467 492 600 532 554 l 300 419 b 50 188 136 386 50 319 b 317 -17 50 58 158 -17 z m 378 139 b 296 210 322 139 296 165 b 386 293 296 253 328 281 l 532 326 l 532 296 b 378 139 532 194 468 139 z m 349 828 l 528 828 l 450 1040 l 224 1040 z "},"ā":{"ha":868,"x_min":0,"x_max":0,"o":"m 317 -17 b 576 115 451 -17 538 33 b 747 -10 597 15 674 -10 b 832 0 779 -10 817 -4 l 832 156 l 814 156 b 771 213 786 156 771 167 l 771 449 b 421 764 771 657 654 764 b 63 510 219 764 92 682 l 300 501 b 421 600 311 565 350 600 b 532 467 492 600 532 554 l 300 419 b 50 188 136 386 50 319 b 317 -17 50 58 158 -17 z m 378 139 b 296 210 322 139 296 165 b 386 293 296 253 328 281 l 532 326 l 532 296 b 378 139 532 194 468 139 z m 208 835 l 638 835 l 638 1004 l 208 1004 z "},"ą":{"ha":868,"x_min":0,"x_max":0,"o":"m 317 -17 b 576 115 451 -17 538 33 b 658 7 589 57 619 24 l 624 -35 b 565 -176 589 -76 565 -119 b 732 -306 565 -258 625 -306 b 885 -269 794 -306 858 -289 l 844 -153 b 788 -171 832 -162 808 -171 b 753 -136 769 -171 753 -160 b 793 -50 753 -112 768 -83 l 832 0 l 832 156 l 814 156 b 771 213 786 156 771 167 l 771 449 b 421 764 771 657 654 764 b 63 510 219 764 92 682 l 300 501 b 421 600 311 565 350 600 b 532 467 492 600 532 554 l 300 419 b 50 188 136 386 50 319 b 317 -17 50 58 158 -17 z m 378 139 b 296 210 322 139 296 165 b 386 293 296 253 328 281 l 532 326 l 532 296 b 378 139 532 194 468 139 z "},"å":{"ha":868,"x_min":0,"x_max":0,"o":"m 317 -17 b 576 115 451 -17 538 33 b 747 -10 597 15 674 -10 b 832 0 779 -10 817 -4 l 832 156 l 814 156 b 771 213 786 156 771 167 l 771 449 b 421 764 771 657 654 764 b 63 510 219 764 92 682 l 300 501 b 421 600 311 565 350 600 b 532 467 492 600 532 554 l 300 419 b 50 188 136 386 50 319 b 317 -17 50 58 158 -17 z m 378 139 b 296 210 322 139 296 165 b 386 293 296 253 328 281 l 532 326 l 532 296 b 378 139 532 194 468 139 z m 422 808 b 571 954 506 808 571 871 b 422 1100 571 1038 506 1100 b 275 954 339 1100 275 1038 b 422 808 275 871 339 808 z m 422 906 b 374 954 393 906 374 925 b 422 1004 374 983 393 1004 b 472 954 451 1004 472 983 b 422 906 472 925 451 906 z "},"ã":{"ha":868,"x_min":0,"x_max":0,"o":"m 317 -17 b 576 115 451 -17 538 33 b 747 -10 597 15 674 -10 b 832 0 779 -10 817 -4 l 832 156 l 814 156 b 771 213 786 156 771 167 l 771 449 b 421 764 771 657 654 764 b 63 510 219 764 92 682 l 300 501 b 421 600 311 565 350 600 b 532 467 492 600 532 554 l 300 419 b 50 188 136 386 50 319 b 317 -17 50 58 158 -17 z m 378 139 b 296 210 322 139 296 165 b 386 293 296 253 328 281 l 532 326 l 532 296 b 378 139 532 194 468 139 z m 499 840 b 667 1051 607 840 665 922 l 551 1051 b 503 976 549 994 528 976 b 454 999 486 976 474 983 b 339 1042 417 1029 383 1042 b 178 833 236 1042 178 958 l 292 833 b 343 906 297 888 318 906 b 390 885 360 906 374 899 b 499 840 428 853 454 840 z "},"æ":{"ha":1357,"x_min":0,"x_max":0,"o":"m 324 -18 b 618 124 464 -17 564 28 b 931 -17 686 35 794 -17 b 1297 224 1117 -17 1256 68 l 1058 238 b 935 157 1040 181 996 157 b 788 311 849 157 792 207 l 1307 311 l 1307 356 b 929 764 1307 607 1161 764 b 679 685 829 764 744 736 b 418 764 618 738 529 764 b 63 511 222 764 92 681 l 301 501 b 417 600 311 564 351 600 b 528 464 489 600 528 554 l 306 419 b 50 199 142 386 50 329 b 324 -18 50 67 179 -17 z m 399 118 b 296 201 321 117 296 164 b 426 303 296 271 343 288 l 533 325 l 533 279 b 399 118 531 176 476 121 z m 1067 447 l 788 447 b 929 594 796 540 850 594 b 1067 447 1008 594 1061 546 z "},"b":{"ha":900,"x_min":0,"x_max":0,"o":"m 543 -17 b 851 374 731 -17 851 138 b 543 764 851 610 731 764 b 324 640 442 764 364 713 l 324 986 l 85 986 l 85 0 l 315 0 l 319 108 b 543 -17 361 29 438 -17 z m 468 160 b 324 374 376 160 324 239 b 469 588 324 510 376 588 b 606 374 551 588 606 510 b 468 160 606 238 550 160 z "},"c":{"ha":858,"x_min":0,"x_max":0,"o":"m 442 -17 b 822 294 654 -17 804 103 l 576 303 b 442 160 567 204 515 160 b 296 374 347 160 296 238 b 442 586 296 508 347 586 b 576 450 514 586 564 540 l 822 461 b 442 764 801 650 649 764 b 50 374 206 764 50 608 b 442 -17 50 138 206 -17 z "},"ć":{"ha":858,"x_min":0,"x_max":0,"o":"m 442 -17 b 822 294 654 -17 804 103 l 576 303 b 442 160 567 204 515 160 b 296 374 347 160 296 238 b 442 586 296 508 347 586 b 576 450 514 586 564 540 l 822 461 b 442 764 801 650 649 764 b 50 374 206 764 50 608 b 442 -17 50 138 206 -17 z m 333 828 l 513 828 l 638 1040 l 411 1040 z "},"č":{"ha":858,"x_min":0,"x_max":0,"o":"m 442 -17 b 822 294 654 -17 804 103 l 576 303 b 442 160 567 204 515 160 b 296 374 347 160 296 238 b 442 586 296 508 347 586 b 576 450 514 586 564 540 l 822 461 b 442 764 801 650 649 764 b 50 374 206 764 50 608 b 442 -17 50 138 206 -17 z m 200 1040 l 336 819 l 560 819 l 696 1040 l 535 1040 l 449 917 l 361 1040 z "},"ç":{"ha":858,"x_min":0,"x_max":0,"o":"m 426 -328 b 608 -175 525 -328 608 -282 b 475 -42 608 -107 569 -51 l 492 -14 b 822 294 678 3 806 118 l 576 303 b 442 160 567 204 515 160 b 296 374 347 160 296 238 b 442 586 296 508 347 586 b 576 450 514 586 564 540 l 822 461 b 442 764 801 650 649 764 b 50 374 206 764 50 608 b 367 -11 50 164 174 18 l 338 -61 l 400 -118 b 485 -169 468 -118 485 -139 b 421 -219 485 -201 460 -219 b 342 -167 379 -219 356 -201 l 243 -211 b 426 -328 269 -281 332 -328 z "},"ĉ":{"ha":858,"x_min":0,"x_max":0,"o":"m 442 -17 b 822 294 654 -17 804 103 l 576 303 b 442 160 567 204 515 160 b 296 374 347 160 296 238 b 442 586 296 508 347 586 b 576 450 514 586 564 540 l 822 461 b 442 764 801 650 649 764 b 50 374 206 764 50 608 b 442 -17 50 138 206 -17 z m 194 819 l 356 819 l 443 943 l 529 819 l 690 819 l 554 1040 l 331 1040 z "},"ċ":{"ha":858,"x_min":0,"x_max":0,"o":"m 442 -17 b 822 294 654 -17 804 103 l 576 303 b 442 160 567 204 515 160 b 296 374 347 160 296 238 b 442 586 296 508 347 586 b 576 450 514 586 564 540 l 822 461 b 442 764 801 650 649 764 b 50 374 206 764 50 608 b 442 -17 50 138 206 -17 z m 318 831 l 564 831 l 564 1008 l 318 1008 z "},"d":{"ha":900,"x_min":0,"x_max":0,"o":"m 353 -17 b 581 108 456 -17 539 29 l 585 0 l 817 0 l 817 986 l 578 986 l 578 640 b 353 764 538 717 461 764 b 50 374 171 764 50 613 b 353 -17 50 135 165 -17 z m 436 160 b 296 374 351 160 296 244 b 436 588 296 506 350 588 b 578 374 528 588 578 519 b 436 160 578 229 526 160 z "},"ď":{"ha":978,"x_min":0,"x_max":0,"o":"m 353 -17 b 581 108 456 -17 539 29 l 585 0 l 817 0 l 817 986 l 578 986 l 578 640 b 353 764 538 717 461 764 b 50 374 171 764 50 613 b 353 -17 50 135 165 -17 z m 436 160 b 296 374 351 160 296 244 b 436 588 296 506 350 588 b 578 374 528 588 578 519 b 436 160 578 229 526 160 z m 864 606 l 1000 606 l 1079 997 l 904 997 z "},"đ":{"ha":979,"x_min":0,"x_max":0,"o":"m 431 794 l 578 794 l 578 640 b 353 764 538 717 461 764 b 50 374 171 764 50 613 b 353 -17 50 135 165 -17 b 581 108 456 -17 539 29 l 585 0 l 817 0 l 817 794 l 908 794 l 908 915 l 817 915 l 817 986 l 578 986 l 578 915 l 431 915 z m 436 160 b 296 374 351 160 296 244 b 436 588 296 506 350 588 b 578 374 528 588 578 519 b 436 160 578 229 526 160 z "},"ð":{"ha":883,"x_min":0,"x_max":0,"o":"m 318 685 l 501 765 b 594 628 544 729 575 683 b 442 660 547 647 494 660 b 50 321 183 660 50 531 b 442 -17 50 111 183 -17 b 833 368 700 -17 833 111 b 672 842 833 551 785 722 l 803 899 l 764 996 l 582 917 b 314 1003 510 963 421 993 l 249 849 b 378 828 297 846 340 839 l 278 783 z m 442 156 b 296 321 347 156 296 221 b 442 488 296 421 347 488 b 588 324 535 488 588 421 b 442 156 588 221 535 156 z "},"e":{"ha":865,"x_min":0,"x_max":0,"o":"m 439 -17 b 806 224 625 -17 764 68 l 567 238 b 443 157 549 181 504 157 b 296 311 357 157 300 207 l 815 311 l 815 356 b 438 764 815 607 669 764 b 50 374 203 764 50 608 b 439 -17 50 138 203 -17 z m 575 447 l 296 447 b 438 594 304 540 358 594 b 575 447 517 594 569 546 z "},"é":{"ha":865,"x_min":0,"x_max":0,"o":"m 439 -17 b 806 224 625 -17 764 68 l 567 238 b 443 157 549 181 504 157 b 296 311 357 157 300 207 l 815 311 l 815 356 b 438 764 815 607 669 764 b 50 374 203 764 50 608 b 439 -17 50 138 203 -17 z m 575 447 l 296 447 b 438 594 304 540 358 594 b 575 447 517 594 569 546 z m 333 825 l 513 825 l 638 1038 l 411 1038 z "},"ě":{"ha":865,"x_min":0,"x_max":0,"o":"m 439 -17 b 806 224 625 -17 764 68 l 567 238 b 443 157 549 181 504 157 b 296 311 357 157 300 207 l 815 311 l 815 356 b 438 764 815 607 669 764 b 50 374 203 764 50 608 b 439 -17 50 138 203 -17 z m 575 447 l 296 447 b 438 594 304 540 358 594 b 575 447 517 594 569 546 z m 200 1038 l 336 817 l 560 817 l 696 1038 l 535 1038 l 449 914 l 361 1038 z "},"ê":{"ha":865,"x_min":0,"x_max":0,"o":"m 439 -17 b 806 224 625 -17 764 68 l 567 238 b 443 157 549 181 504 157 b 296 311 357 157 300 207 l 815 311 l 815 356 b 438 764 815 607 669 764 b 50 374 203 764 50 608 b 439 -17 50 138 203 -17 z m 575 447 l 296 447 b 438 594 304 540 358 594 b 575 447 517 594 569 546 z m 194 817 l 356 817 l 443 940 l 529 817 l 690 817 l 554 1038 l 331 1038 z "},"ë":{"ha":865,"x_min":0,"x_max":0,"o":"m 439 -17 b 806 224 625 -17 764 68 l 567 238 b 443 157 549 181 504 157 b 296 311 357 157 300 207 l 815 311 l 815 356 b 438 764 815 607 669 764 b 50 374 203 764 50 608 b 439 -17 50 138 203 -17 z m 575 447 l 296 447 b 438 594 304 540 358 594 b 575 447 517 594 569 546 z m 171 828 l 394 828 l 394 1006 l 171 1006 z m 488 828 l 713 828 l 713 1006 l 488 1006 z "},"ė":{"ha":865,"x_min":0,"x_max":0,"o":"m 439 -17 b 806 224 625 -17 764 68 l 567 238 b 443 157 549 181 504 157 b 296 311 357 157 300 207 l 815 311 l 815 356 b 438 764 815 607 669 764 b 50 374 203 764 50 608 b 439 -17 50 138 203 -17 z m 575 447 l 296 447 b 438 594 304 540 358 594 b 575 447 517 594 569 546 z m 318 828 l 564 828 l 564 1006 l 318 1006 z "},"è":{"ha":865,"x_min":0,"x_max":0,"o":"m 439 -17 b 806 224 625 -17 764 68 l 567 238 b 443 157 549 181 504 157 b 296 311 357 157 300 207 l 815 311 l 815 356 b 438 764 815 607 669 764 b 50 374 203 764 50 608 b 439 -17 50 138 203 -17 z m 575 447 l 296 447 b 438 594 304 540 358 594 b 575 447 517 594 569 546 z m 368 825 l 547 825 l 469 1038 l 243 1038 z "},"ē":{"ha":865,"x_min":0,"x_max":0,"o":"m 439 -17 b 806 224 625 -17 764 68 l 567 238 b 443 157 549 181 504 157 b 296 311 357 157 300 207 l 815 311 l 815 356 b 438 764 815 607 669 764 b 50 374 203 764 50 608 b 439 -17 50 138 203 -17 z m 575 447 l 296 447 b 438 594 304 540 358 594 b 575 447 517 594 569 546 z m 226 832 l 656 832 l 656 1001 l 226 1001 z "},"ę":{"ha":865,"x_min":0,"x_max":0,"o":"m 439 -17 l 460 -17 l 447 -31 b 388 -175 411 -72 388 -117 b 554 -306 388 -258 449 -306 b 707 -269 618 -306 681 -289 l 667 -153 b 611 -171 654 -162 632 -171 b 576 -135 593 -171 576 -160 b 617 -47 576 -111 589 -81 l 742 101 b 806 224 771 135 793 176 l 567 238 b 443 157 549 181 504 157 b 296 311 357 157 300 207 l 815 311 l 815 356 b 438 764 815 607 669 764 b 50 374 203 764 50 608 b 439 -17 50 138 203 -17 z m 575 447 l 296 447 b 438 594 304 540 358 594 b 575 447 517 594 569 546 z "},"ẽ":{"ha":865,"x_min":0,"x_max":0,"o":"m 439 -17 b 806 224 625 -17 764 68 l 567 238 b 443 157 549 181 504 157 b 296 311 357 157 300 207 l 815 311 l 815 356 b 438 764 815 607 669 764 b 50 374 203 764 50 608 b 439 -17 50 138 203 -17 z m 575 447 l 296 447 b 438 594 304 540 358 594 b 575 447 517 594 569 546 z m 518 838 b 686 1049 626 838 685 919 l 571 1049 b 522 974 568 992 547 974 b 474 996 506 974 493 981 b 358 1039 436 1026 403 1039 b 197 831 256 1039 197 956 l 311 831 b 363 903 317 885 338 903 b 410 882 379 903 393 896 b 518 838 447 850 474 838 z "},"ə":{"ha":865,"x_min":0,"x_max":0,"o":"m 426 764 b 60 524 240 764 101 679 l 299 510 b 422 590 317 567 361 590 b 569 436 508 590 565 540 l 50 436 l 50 392 b 428 -17 50 140 196 -17 b 815 374 663 -17 815 139 b 426 764 815 610 663 764 z m 290 300 l 569 300 b 428 153 561 207 507 153 b 290 300 349 153 296 201 z "},"f":{"ha":646,"x_min":0,"x_max":0,"o":"m 168 739 l 168 710 l 57 710 l 57 536 l 168 536 l 168 0 l 408 0 l 408 536 l 593 536 l 593 710 l 408 710 l 408 728 b 489 814 408 786 431 814 l 603 814 l 603 986 l 431 986 b 168 739 251 986 168 897 z "},"g":{"ha":900,"x_min":0,"x_max":0,"o":"m 439 -225 b 815 81 658 -225 815 -128 l 815 747 l 581 747 l 581 633 b 358 764 540 711 469 764 b 50 397 176 764 50 613 b 360 33 50 174 178 33 b 575 143 456 33 540 76 l 575 76 b 439 -67 575 -25 525 -67 b 317 0 361 -67 331 -43 l 72 -18 b 439 -225 108 -139 207 -225 z m 438 201 b 296 399 351 201 296 279 b 438 597 296 518 349 597 b 576 399 524 597 578 522 b 438 201 576 274 522 201 z "},"ğ":{"ha":900,"x_min":0,"x_max":0,"o":"m 439 -225 b 815 81 658 -225 815 -128 l 815 747 l 581 747 l 581 633 b 358 764 540 711 469 764 b 50 397 176 764 50 613 b 360 33 50 174 178 33 b 575 143 456 33 540 76 l 575 76 b 439 -67 575 -25 525 -67 b 317 0 361 -67 331 -43 l 72 -18 b 439 -225 108 -139 207 -225 z m 438 201 b 296 399 351 201 296 279 b 438 597 296 518 349 597 b 576 399 524 597 578 522 b 438 201 576 274 522 201 z m 443 828 b 668 1040 578 828 663 904 l 535 1040 b 443 951 529 976 496 951 b 351 1040 390 951 358 976 l 218 1040 b 443 828 224 904 310 828 z "},"ǧ":{"ha":900,"x_min":0,"x_max":0,"o":"m 439 -225 b 815 81 658 -225 815 -128 l 815 747 l 581 747 l 581 633 b 358 764 540 711 469 764 b 50 397 176 764 50 613 b 360 33 50 174 178 33 b 575 143 456 33 540 76 l 575 76 b 439 -67 575 -25 525 -67 b 317 0 361 -67 331 -43 l 72 -18 b 439 -225 108 -139 207 -225 z m 438 201 b 296 399 351 201 296 279 b 438 597 296 518 349 597 b 576 399 524 597 578 522 b 438 201 576 274 522 201 z m 201 1040 l 338 819 l 561 819 l 697 1040 l 536 1040 l 450 917 l 363 1040 z "},"ĝ":{"ha":900,"x_min":0,"x_max":0,"o":"m 439 -225 b 815 81 658 -225 815 -128 l 815 747 l 581 747 l 581 633 b 358 764 540 711 469 764 b 50 397 176 764 50 613 b 360 33 50 174 178 33 b 575 143 456 33 540 76 l 575 76 b 439 -67 575 -25 525 -67 b 317 0 361 -67 331 -43 l 72 -18 b 439 -225 108 -139 207 -225 z m 438 201 b 296 399 351 201 296 279 b 438 597 296 518 349 597 b 576 399 524 597 578 522 b 438 201 576 274 522 201 z m 196 819 l 357 819 l 444 943 l 531 819 l 692 819 l 556 1040 l 332 1040 z "},"ģ":{"ha":900,"x_min":0,"x_max":0,"o":"m 439 -225 b 815 81 658 -225 815 -128 l 815 747 l 581 747 l 581 633 b 358 764 540 711 469 764 b 50 397 176 764 50 613 b 360 33 50 174 178 33 b 575 143 456 33 540 76 l 575 76 b 439 -67 575 -25 525 -67 b 317 0 361 -67 331 -43 l 72 -18 b 439 -225 108 -139 207 -225 z m 438 201 b 296 399 351 201 296 279 b 438 597 296 518 349 597 b 576 399 524 597 578 522 b 438 201 576 274 522 201 z m 349 817 l 543 817 l 543 990 l 494 990 l 565 1108 l 429 1108 l 349 972 z "},"ġ":{"ha":900,"x_min":0,"x_max":0,"o":"m 439 -225 b 815 81 658 -225 815 -128 l 815 747 l 581 747 l 581 633 b 358 764 540 711 469 764 b 50 397 176 764 50 613 b 360 33 50 174 178 33 b 575 143 456 33 540 76 l 575 76 b 439 -67 575 -25 525 -67 b 317 0 361 -67 331 -43 l 72 -18 b 439 -225 108 -139 207 -225 z m 438 201 b 296 399 351 201 296 279 b 438 597 296 518 349 597 b 576 399 524 597 578 522 b 438 201 576 274 522 201 z m 321 831 l 567 831 l 567 1008 l 321 1008 z "},"ḡ":{"ha":900,"x_min":0,"x_max":0,"o":"m 439 -225 b 815 81 658 -225 815 -128 l 815 747 l 581 747 l 581 633 b 358 764 540 711 469 764 b 50 397 176 764 50 613 b 360 33 50 174 178 33 b 575 143 456 33 540 76 l 575 76 b 439 -67 575 -25 525 -67 b 317 0 361 -67 331 -43 l 72 -18 b 439 -225 108 -139 207 -225 z m 438 201 b 296 399 351 201 296 279 b 438 597 296 518 349 597 b 576 399 524 597 578 522 b 438 201 576 274 522 201 z m 229 835 l 658 835 l 658 1004 l 229 1004 z "},"ǥ":{"ha":944,"x_min":0,"x_max":0,"o":"m 408 311 l 565 311 b 438 201 546 240 500 201 b 296 399 351 201 296 279 b 438 597 296 518 349 597 b 575 432 515 597 568 536 l 408 432 z m 439 -225 b 815 81 658 -225 815 -128 l 815 311 l 888 311 l 888 432 l 815 432 l 815 747 l 581 747 l 581 633 b 358 764 540 711 469 764 b 50 397 176 764 50 613 b 360 33 50 174 178 33 b 575 143 456 33 540 76 l 575 76 b 439 -67 575 -25 525 -67 b 317 0 361 -67 331 -43 l 72 -18 b 439 -225 108 -139 207 -225 z "},"h":{"ha":863,"x_min":0,"x_max":0,"o":"m 85 0 l 324 0 l 324 419 b 440 578 324 524 365 578 b 539 426 513 578 539 525 l 539 0 l 778 0 l 778 481 b 524 764 778 646 693 764 b 324 663 439 764 365 731 l 324 986 l 85 986 z "},"ħ":{"ha":906,"x_min":0,"x_max":0,"o":"m 57 794 l 144 794 l 144 0 l 383 0 l 383 419 b 500 578 383 524 425 578 b 599 426 572 578 599 525 l 599 0 l 838 0 l 838 481 b 583 764 838 646 753 764 b 383 663 499 764 425 731 l 383 794 l 535 794 l 535 915 l 383 915 l 383 986 l 144 986 l 144 915 l 57 915 z "},"ĥ":{"ha":863,"x_min":0,"x_max":0,"o":"m 85 0 l 324 0 l 324 419 b 440 578 324 524 365 578 b 539 426 513 578 539 525 l 539 0 l 778 0 l 778 481 b 524 764 778 646 693 764 b 324 663 439 764 365 731 l 324 986 l 85 986 z m -44 1058 l 117 1058 l 204 1182 l 290 1058 l 451 1058 l 315 1279 l 92 1279 z "},"i":{"ha":408,"x_min":0,"x_max":0,"o":"m 85 0 l 324 0 l 324 747 l 85 747 z m 81 831 l 326 831 l 326 1008 l 81 1008 z "},"ı":{"ha":408,"x_min":0,"x_max":0,"o":"m 85 0 l 324 0 l 324 747 l 85 747 z "},"í":{"ha":408,"x_min":0,"x_max":0,"o":"m 85 0 l 324 0 l 324 747 l 85 747 z m 94 828 l 274 828 l 399 1040 l 172 1040 z "},"î":{"ha":408,"x_min":0,"x_max":0,"o":"m 85 0 l 324 0 l 324 747 l 85 747 z m -44 819 l 117 819 l 204 943 l 290 819 l 451 819 l 315 1040 l 92 1040 z "},"ï":{"ha":408,"x_min":0,"x_max":0,"o":"m 85 0 l 324 0 l 324 747 l 85 747 z m -67 831 l 157 831 l 157 1008 l -67 1008 z m 250 831 l 475 831 l 475 1008 l 250 1008 z "},"ì":{"ha":408,"x_min":0,"x_max":0,"o":"m 85 0 l 324 0 l 324 747 l 85 747 z m 131 828 l 310 828 l 232 1040 l 6 1040 z "},"ī":{"ha":408,"x_min":0,"x_max":0,"o":"m 85 0 l 324 0 l 324 747 l 85 747 z m -11 835 l 418 835 l 418 1004 l -11 1004 z "},"į":{"ha":408,"x_min":0,"x_max":0,"o":"m 85 0 l 144 0 l 115 -35 b 57 -176 81 -76 57 -119 b 224 -306 57 -258 117 -306 b 376 -269 286 -306 350 -289 l 336 -153 b 279 -171 324 -162 300 -171 b 244 -136 261 -171 244 -160 b 285 -50 244 -112 260 -83 l 324 0 l 324 747 l 85 747 z m 81 831 l 326 831 l 326 1008 l 81 1008 z "},"ĩ":{"ha":408,"x_min":0,"x_max":0,"o":"m 85 0 l 324 0 l 324 747 l 85 747 z m 281 840 b 449 1051 389 840 447 922 l 333 1051 b 285 976 331 994 310 976 b 236 999 268 976 256 983 b 121 1042 199 1029 165 1042 b -40 833 18 1042 -40 958 l 74 833 b 125 906 79 888 100 906 b 172 885 142 906 156 899 b 281 840 210 853 236 840 z "},"ĳ":{"ha":888,"x_min":0,"x_max":0,"o":"m 85 0 l 324 0 l 324 747 l 85 747 z m 81 831 l 326 831 l 326 1008 l 81 1008 z m 392 -208 l 533 -208 b 803 43 732 -208 803 -135 l 803 747 l 564 747 l 564 49 b 481 -36 564 -18 538 -36 l 392 -36 z m 561 831 l 807 831 l 807 1008 l 561 1008 z "},"j":{"ha":493,"x_min":0,"x_max":0,"o":"m -3 -208 l 139 -208 b 408 43 338 -208 408 -135 l 408 747 l 169 747 l 169 49 b 86 -36 169 -18 143 -36 l -3 -36 z m 167 831 l 413 831 l 413 1008 l 167 1008 z "},"ȷ":{"ha":493,"x_min":0,"x_max":0,"o":"m -3 -208 l 139 -208 b 408 43 338 -208 408 -135 l 408 747 l 169 747 l 169 49 b 86 -36 169 -18 143 -36 l -3 -36 z "},"ĵ":{"ha":493,"x_min":0,"x_max":0,"o":"m -3 -208 l 139 -208 b 408 43 338 -208 408 -135 l 408 747 l 169 747 l 169 49 b 86 -36 169 -18 143 -36 l -3 -36 z m 42 819 l 203 819 l 290 943 l 376 819 l 538 819 l 401 1040 l 178 1040 z "},"k":{"ha":925,"x_min":0,"x_max":0,"o":"m 85 0 l 324 0 l 324 217 l 413 311 l 604 0 l 863 0 l 565 443 l 856 747 l 572 747 l 324 472 l 324 986 l 85 986 z "},"ǩ":{"ha":925,"x_min":0,"x_max":0,"o":"m 85 0 l 324 0 l 324 217 l 413 311 l 604 0 l 863 0 l 565 443 l 856 747 l 572 747 l 324 472 l 324 986 l 85 986 z m -39 1279 l 97 1058 l 321 1058 l 457 1279 l 296 1279 l 210 1156 l 122 1279 z "},"ķ":{"ha":925,"x_min":0,"x_max":0,"o":"m 85 0 l 324 0 l 324 217 l 413 311 l 604 0 l 863 0 l 565 443 l 856 747 l 572 747 l 324 472 l 324 986 l 85 986 z m 342 -350 l 478 -350 l 558 -214 l 558 -58 l 364 -58 l 364 -232 l 413 -232 z "},"l":{"ha":476,"x_min":0,"x_max":0,"o":"m 296 0 l 433 0 l 433 172 l 389 172 b 324 239 347 172 324 190 l 324 986 l 85 986 l 85 213 b 296 0 85 61 163 0 z "},"ĺ":{"ha":476,"x_min":0,"x_max":0,"o":"m 296 0 l 433 0 l 433 172 l 389 172 b 324 239 347 172 324 190 l 324 986 l 85 986 l 85 213 b 296 0 85 61 163 0 z m 94 1067 l 274 1067 l 399 1279 l 172 1279 z "},"ľ":{"ha":496,"x_min":0,"x_max":0,"o":"m 296 0 l 433 0 l 433 172 l 389 172 b 324 239 347 172 324 190 l 324 986 l 85 986 l 85 213 b 296 0 85 61 163 0 z m 371 594 l 507 594 l 586 986 l 411 986 z "},"ļ":{"ha":476,"x_min":0,"x_max":0,"o":"m 296 0 l 433 0 l 433 172 l 389 172 b 324 239 347 172 324 190 l 324 986 l 85 986 l 85 213 b 296 0 85 61 163 0 z m 156 -350 l 292 -350 l 372 -214 l 372 -58 l 178 -58 l 178 -232 l 226 -232 z "},"ł":{"ha":476,"x_min":0,"x_max":0,"o":"m 26 419 l 78 436 l 78 213 b 289 0 78 61 156 0 l 426 0 l 426 172 l 382 172 b 317 239 340 172 317 190 l 317 515 l 446 558 l 408 672 l 317 642 l 317 986 l 78 986 l 78 563 l -12 533 z "},"m":{"ha":1260,"x_min":0,"x_max":0,"o":"m 85 0 l 324 0 l 324 410 b 426 578 324 517 360 578 b 524 410 499 578 524 521 l 524 0 l 736 0 l 736 410 b 839 578 736 517 771 578 b 938 413 908 578 938 524 l 938 0 l 1176 0 l 1176 481 b 924 764 1176 667 1074 764 b 715 613 828 764 751 713 b 506 764 683 706 611 764 b 304 629 417 764 343 715 l 299 747 l 85 747 z "},"n":{"ha":863,"x_min":0,"x_max":0,"o":"m 85 0 l 324 0 l 324 399 b 439 578 324 513 361 578 b 539 399 519 578 539 513 l 539 0 l 778 0 l 778 481 b 522 764 778 658 681 764 b 304 626 425 764 344 726 l 299 747 l 85 747 z "},"ń":{"ha":863,"x_min":0,"x_max":0,"o":"m 85 0 l 324 0 l 324 399 b 439 578 324 513 361 578 b 539 399 519 578 539 513 l 539 0 l 778 0 l 778 481 b 522 764 778 658 681 764 b 304 626 425 764 344 726 l 299 747 l 85 747 z m 322 828 l 501 828 l 626 1040 l 400 1040 z "},"ň":{"ha":863,"x_min":0,"x_max":0,"o":"m 85 0 l 324 0 l 324 399 b 439 578 324 513 361 578 b 539 399 519 578 539 513 l 539 0 l 778 0 l 778 481 b 522 764 778 658 681 764 b 304 626 425 764 344 726 l 299 747 l 85 747 z m 189 1040 l 325 819 l 549 819 l 685 1040 l 524 1040 l 438 917 l 350 1040 z "},"ņ":{"ha":863,"x_min":0,"x_max":0,"o":"m 85 0 l 324 0 l 324 399 b 439 578 324 513 361 578 b 539 399 519 578 539 513 l 539 0 l 778 0 l 778 481 b 522 764 778 658 681 764 b 304 626 425 764 344 726 l 299 747 l 85 747 z m 322 -350 l 458 -350 l 539 -214 l 539 -58 l 344 -58 l 344 -232 l 393 -232 z "},"ñ":{"ha":863,"x_min":0,"x_max":0,"o":"m 85 0 l 324 0 l 324 399 b 439 578 324 513 361 578 b 539 399 519 578 539 513 l 539 0 l 778 0 l 778 481 b 522 764 778 658 681 764 b 304 626 425 764 344 726 l 299 747 l 85 747 z m 507 840 b 675 1051 615 840 674 922 l 560 1051 b 511 976 557 994 536 976 b 463 999 494 976 482 983 b 347 1042 425 1029 392 1042 b 186 833 244 1042 186 958 l 300 833 b 351 906 306 888 326 906 b 399 885 368 906 382 899 b 507 840 436 853 463 840 z "},"ŋ":{"ha":863,"x_min":0,"x_max":0,"o":"m 386 -208 l 535 -208 b 776 0 676 -208 768 -128 l 778 481 b 522 764 778 658 681 764 b 304 626 425 764 344 726 l 299 747 l 85 747 l 85 0 l 324 0 l 324 399 b 439 578 324 513 361 578 b 539 399 519 578 539 513 l 539 178 l 538 178 l 538 21 b 458 -54 538 -26 508 -54 l 386 -54 z "},"o":{"ha":883,"x_min":0,"x_max":0,"o":"m 442 -17 b 833 374 678 -17 833 138 b 442 764 833 608 678 764 b 50 374 206 764 50 608 b 442 -17 50 138 206 -17 z m 442 160 b 296 374 347 160 296 238 b 442 588 296 508 347 588 b 588 374 535 588 588 508 b 442 160 588 238 535 160 z "},"ó":{"ha":883,"x_min":0,"x_max":0,"o":"m 442 -17 b 833 374 678 -17 833 138 b 442 764 833 608 678 764 b 50 374 206 764 50 608 b 442 -17 50 138 206 -17 z m 442 160 b 296 374 347 160 296 238 b 442 588 296 508 347 588 b 588 374 535 588 588 508 b 442 160 588 238 535 160 z m 333 828 l 513 828 l 638 1040 l 411 1040 z "},"ô":{"ha":883,"x_min":0,"x_max":0,"o":"m 442 -17 b 833 374 678 -17 833 138 b 442 764 833 608 678 764 b 50 374 206 764 50 608 b 442 -17 50 138 206 -17 z m 442 160 b 296 374 347 160 296 238 b 442 588 296 508 347 588 b 588 374 535 588 588 508 b 442 160 588 238 535 160 z m 194 819 l 356 819 l 443 943 l 529 819 l 690 819 l 554 1040 l 331 1040 z "},"ö":{"ha":883,"x_min":0,"x_max":0,"o":"m 442 -17 b 833 374 678 -17 833 138 b 442 764 833 608 678 764 b 50 374 206 764 50 608 b 442 -17 50 138 206 -17 z m 442 160 b 296 374 347 160 296 238 b 442 588 296 508 347 588 b 588 374 535 588 588 508 b 442 160 588 238 535 160 z m 171 831 l 394 831 l 394 1008 l 171 1008 z m 488 831 l 713 831 l 713 1008 l 488 1008 z "},"ò":{"ha":883,"x_min":0,"x_max":0,"o":"m 442 -17 b 833 374 678 -17 833 138 b 442 764 833 608 678 764 b 50 374 206 764 50 608 b 442 -17 50 138 206 -17 z m 442 160 b 296 374 347 160 296 238 b 442 588 296 508 347 588 b 588 374 535 588 588 508 b 442 160 588 238 535 160 z m 368 828 l 547 828 l 469 1040 l 243 1040 z "},"ő":{"ha":883,"x_min":0,"x_max":0,"o":"m 442 -17 b 833 374 678 -17 833 138 b 442 764 833 608 678 764 b 50 374 206 764 50 608 b 442 -17 50 138 206 -17 z m 442 160 b 296 374 347 160 296 238 b 442 588 296 508 347 588 b 588 374 535 588 588 508 b 442 160 588 238 535 160 z m 222 828 l 401 828 l 526 1040 l 300 1040 z m 490 828 l 669 828 l 794 1040 l 568 1040 z "},"ō":{"ha":883,"x_min":0,"x_max":0,"o":"m 442 -17 b 833 374 678 -17 833 138 b 442 764 833 608 678 764 b 50 374 206 764 50 608 b 442 -17 50 138 206 -17 z m 442 160 b 296 374 347 160 296 238 b 442 588 296 508 347 588 b 588 374 535 588 588 508 b 442 160 588 238 535 160 z m 226 835 l 656 835 l 656 1004 l 226 1004 z "},"ø":{"ha":861,"x_min":0,"x_max":0,"o":"m 54 -17 l 207 -17 l 243 28 b 442 -17 299 -1 367 -17 b 833 374 678 -17 833 138 b 735 649 833 486 797 581 l 817 753 l 665 753 l 639 719 b 442 764 583 749 517 764 b 50 374 206 764 50 608 b 147 100 50 261 85 168 z m 442 160 b 365 183 411 160 386 168 l 581 454 b 588 374 585 431 588 403 b 442 160 588 238 535 160 z m 296 374 b 442 588 296 508 347 588 b 517 565 471 588 496 579 l 303 296 b 296 374 299 319 296 344 z "},"õ":{"ha":883,"x_min":0,"x_max":0,"o":"m 442 -17 b 833 374 678 -17 833 138 b 442 764 833 608 678 764 b 50 374 206 764 50 608 b 442 -17 50 138 206 -17 z m 442 160 b 296 374 347 160 296 238 b 442 588 296 508 347 588 b 588 374 535 588 588 508 b 442 160 588 238 535 160 z m 518 840 b 686 1051 626 840 685 922 l 571 1051 b 522 976 568 994 547 976 b 474 999 506 976 493 983 b 358 1042 436 1029 403 1042 b 197 833 256 1042 197 958 l 311 833 b 363 906 317 888 338 906 b 410 885 379 906 393 899 b 518 840 447 853 474 840 z "},"œ":{"ha":1415,"x_min":0,"x_max":0,"o":"m 442 -17 b 715 81 554 -17 649 18 b 989 -17 783 18 876 -17 b 1356 224 1175 -17 1314 68 l 1117 238 b 993 157 1099 181 1054 157 b 846 311 907 157 850 207 l 1365 311 l 1365 356 b 988 764 1365 607 1219 764 b 715 667 876 764 783 729 b 442 764 649 729 554 764 b 50 374 206 764 50 608 b 442 -17 50 138 206 -17 z m 442 160 b 296 374 347 160 296 238 b 442 588 296 508 347 588 b 588 374 535 588 588 508 b 442 160 588 238 535 160 z m 1125 447 l 846 447 b 988 594 854 540 908 594 b 1125 447 1067 594 1119 546 z "},"p":{"ha":900,"x_min":0,"x_max":0,"o":"m 85 -208 l 324 -208 l 324 106 b 536 -17 365 29 444 -17 b 851 374 740 -17 851 150 b 539 764 851 597 742 764 b 319 638 442 764 363 719 l 317 747 l 85 747 z m 464 160 b 324 374 375 160 324 233 b 464 588 324 514 376 588 b 606 374 551 588 606 506 b 464 160 606 242 551 160 z "},"þ":{"ha":882,"x_min":0,"x_max":0,"o":"m 85 -208 l 326 -208 l 326 56 b 499 -17 367 10 428 -17 b 832 374 713 -17 832 150 b 499 764 832 597 713 764 b 326 693 415 764 360 736 l 326 986 l 85 986 z m 450 179 b 313 374 357 179 313 268 b 450 571 313 481 357 571 b 586 374 543 571 586 483 b 450 179 586 267 543 179 z "},"q":{"ha":900,"x_min":0,"x_max":0,"o":"m 815 -208 l 815 747 l 583 747 l 581 638 b 361 764 538 719 458 764 b 49 374 158 764 49 597 b 364 -17 49 150 160 -17 b 576 106 456 -17 535 29 l 576 -208 z m 436 160 b 294 374 349 160 294 242 b 436 588 294 506 349 588 b 576 374 524 588 576 514 b 436 160 576 233 525 160 z "},"r":{"ha":613,"x_min":0,"x_max":0,"o":"m 85 0 l 324 0 l 324 410 b 496 554 324 518 378 554 l 563 554 l 563 747 l 497 747 b 319 594 406 747 350 701 l 314 747 l 85 747 z "},"ŕ":{"ha":613,"x_min":0,"x_max":0,"o":"m 85 0 l 324 0 l 324 410 b 496 554 324 518 378 554 l 563 554 l 563 747 l 497 747 b 319 594 406 747 350 701 l 314 747 l 85 747 z m 229 828 l 408 828 l 533 1040 l 307 1040 z "},"ř":{"ha":613,"x_min":0,"x_max":0,"o":"m 85 0 l 324 0 l 324 410 b 496 554 324 518 378 554 l 563 554 l 563 747 l 497 747 b 319 594 406 747 350 701 l 314 747 l 85 747 z m 96 1040 l 232 819 l 456 819 l 592 1040 l 431 1040 l 344 917 l 257 1040 z "},"ŗ":{"ha":613,"x_min":0,"x_max":0,"o":"m 85 0 l 324 0 l 324 410 b 496 554 324 518 378 554 l 563 554 l 563 747 l 497 747 b 319 594 406 747 350 701 l 314 747 l 85 747 z m 96 -350 l 232 -350 l 313 -214 l 313 -58 l 118 -58 l 118 -232 l 167 -232 z "},"s":{"ha":819,"x_min":0,"x_max":0,"o":"m 421 -17 b 769 213 638 -17 769 64 b 439 447 769 344 682 414 b 314 529 344 461 314 481 b 414 604 314 575 351 604 b 529 493 479 604 521 564 l 767 501 b 417 764 749 658 638 764 b 68 521 182 764 68 667 b 386 289 68 386 142 328 b 524 207 501 269 524 249 b 422 143 524 164 488 143 b 290 243 343 143 303 176 l 50 235 b 421 -17 61 89 179 -17 z "},"ś":{"ha":819,"x_min":0,"x_max":0,"o":"m 421 -17 b 769 213 638 -17 769 64 b 439 447 769 344 682 414 b 314 529 344 461 314 481 b 414 604 314 575 351 604 b 529 493 479 604 521 564 l 767 501 b 417 764 749 658 638 764 b 68 521 182 764 68 667 b 386 289 68 386 142 328 b 524 207 501 269 524 249 b 422 143 524 164 488 143 b 290 243 343 143 303 176 l 50 235 b 421 -17 61 89 179 -17 z m 310 817 l 489 817 l 614 1029 l 388 1029 z "},"š":{"ha":819,"x_min":0,"x_max":0,"o":"m 421 -17 b 769 213 638 -17 769 64 b 439 447 769 344 682 414 b 314 529 344 461 314 481 b 414 604 314 575 351 604 b 529 493 479 604 521 564 l 767 501 b 417 764 749 658 638 764 b 68 521 182 764 68 667 b 386 289 68 386 142 328 b 524 207 501 269 524 249 b 422 143 524 164 488 143 b 290 243 343 143 303 176 l 50 235 b 421 -17 61 89 179 -17 z m 176 1029 l 313 808 l 536 808 l 672 1029 l 511 1029 l 425 906 l 338 1029 z "},"ş":{"ha":819,"x_min":0,"x_max":0,"o":"m 404 -328 b 586 -175 503 -328 586 -282 b 453 -42 586 -107 547 -51 l 469 -15 b 769 213 657 -4 769 75 b 439 447 769 344 682 414 b 314 529 344 461 314 481 b 414 604 314 575 351 604 b 529 493 479 604 521 564 l 767 501 b 417 764 749 658 638 764 b 68 521 182 764 68 667 b 386 289 68 386 142 328 b 524 207 501 269 524 249 b 422 143 524 164 488 143 b 290 243 343 143 303 176 l 50 235 b 343 -12 60 106 154 8 l 315 -61 l 378 -118 b 463 -169 446 -118 463 -139 b 399 -219 463 -201 438 -219 b 319 -167 357 -219 333 -201 l 221 -211 b 404 -328 247 -281 310 -328 z "},"ŝ":{"ha":819,"x_min":0,"x_max":0,"o":"m 421 -17 b 769 213 638 -17 769 64 b 439 447 769 344 682 414 b 314 529 344 461 314 481 b 414 604 314 575 351 604 b 529 493 479 604 521 564 l 767 501 b 417 764 749 658 638 764 b 68 521 182 764 68 667 b 386 289 68 386 142 328 b 524 207 501 269 524 249 b 422 143 524 164 488 143 b 290 243 343 143 303 176 l 50 235 b 421 -17 61 89 179 -17 z m 171 808 l 332 808 l 419 932 l 506 808 l 667 808 l 531 1029 l 307 1029 z "},"ș":{"ha":819,"x_min":0,"x_max":0,"o":"m 421 -17 b 769 213 638 -17 769 64 b 439 447 769 344 682 414 b 314 529 344 461 314 481 b 414 604 314 575 351 604 b 529 493 479 604 521 564 l 767 501 b 417 764 749 658 638 764 b 68 521 182 764 68 667 b 386 289 68 386 142 328 b 524 207 501 269 524 249 b 422 143 524 164 488 143 b 290 243 343 143 303 176 l 50 235 b 421 -17 61 89 179 -17 z m 311 -350 l 447 -350 l 528 -214 l 528 -58 l 333 -58 l 333 -232 l 382 -232 z "},"ß":{"ha":944,"x_min":0,"x_max":0,"o":"m 85 625 l 85 0 l 324 0 l 324 625 b 481 807 324 740 386 807 b 600 714 549 807 600 767 b 476 604 600 650 553 603 l 422 606 l 422 415 l 492 417 b 658 304 592 419 658 383 b 497 196 658 231 586 196 l 408 196 l 408 0 l 497 0 b 903 271 681 0 903 56 b 663 517 903 399 808 489 b 842 726 778 549 842 626 b 481 1003 842 896 693 1003 b 85 625 231 1003 85 867 z "},"t":{"ha":644,"x_min":0,"x_max":0,"o":"m 407 0 l 608 0 l 608 172 l 506 172 b 413 267 443 172 413 194 l 413 575 l 608 575 l 608 747 l 413 747 l 413 922 l 174 922 l 174 747 l 50 747 l 50 575 l 174 575 l 174 236 b 407 0 174 72 246 0 z "},"ŧ":{"ha":644,"x_min":0,"x_max":0,"o":"m 50 318 l 174 318 l 174 236 b 407 0 174 72 246 0 l 608 0 l 608 172 l 506 172 b 413 267 443 172 413 194 l 413 318 l 606 318 l 606 439 l 413 439 l 413 575 l 608 575 l 608 747 l 413 747 l 413 922 l 174 922 l 174 747 l 50 747 l 50 575 l 174 575 l 174 439 l 50 439 z "},"ť":{"ha":644,"x_min":0,"x_max":0,"o":"m 407 0 l 608 0 l 608 172 l 506 172 b 413 267 443 172 413 194 l 413 575 l 608 575 l 608 747 l 413 747 l 413 922 l 174 922 l 174 747 l 50 747 l 50 575 l 174 575 l 174 236 b 407 0 174 72 246 0 z m 456 783 l 592 783 l 671 1175 l 496 1175 z "},"ţ":{"ha":644,"x_min":0,"x_max":0,"o":"m 50 575 l 174 575 l 174 236 b 313 11 174 108 217 36 l 271 -61 l 333 -118 b 418 -169 401 -118 418 -139 b 354 -219 418 -201 393 -219 b 275 -167 313 -219 289 -201 l 176 -211 b 360 -328 203 -281 265 -328 b 542 -175 458 -328 542 -282 b 408 -42 542 -107 503 -51 l 435 0 l 608 0 l 608 172 l 506 172 b 413 267 443 172 413 194 l 413 575 l 608 575 l 608 747 l 413 747 l 413 922 l 174 922 l 174 747 l 50 747 z "},"ț":{"ha":644,"x_min":0,"x_max":0,"o":"m 407 0 l 608 0 l 608 172 l 506 172 b 413 267 443 172 413 194 l 413 575 l 608 575 l 608 747 l 413 747 l 413 922 l 174 922 l 174 747 l 50 747 l 50 575 l 174 575 l 174 236 b 407 0 174 72 246 0 z m 268 -350 l 404 -350 l 485 -214 l 485 -58 l 290 -58 l 290 -232 l 339 -232 z "},"u":{"ha":858,"x_min":0,"x_max":0,"o":"m 331 -17 b 554 121 442 -17 517 29 l 558 0 l 774 0 l 774 747 l 535 747 l 535 333 b 419 169 535 219 493 169 b 324 321 353 169 324 215 l 324 747 l 85 747 l 85 265 b 331 -17 85 86 175 -17 z "},"ú":{"ha":858,"x_min":0,"x_max":0,"o":"m 331 -17 b 554 121 442 -17 517 29 l 558 0 l 774 0 l 774 747 l 535 747 l 535 333 b 419 169 535 219 493 169 b 324 321 353 169 324 215 l 324 747 l 85 747 l 85 265 b 331 -17 85 86 175 -17 z m 318 828 l 497 828 l 622 1040 l 396 1040 z "},"ŭ":{"ha":858,"x_min":0,"x_max":0,"o":"m 331 -17 b 554 121 442 -17 517 29 l 558 0 l 774 0 l 774 747 l 535 747 l 535 333 b 419 169 535 219 493 169 b 324 321 353 169 324 215 l 324 747 l 85 747 l 85 265 b 331 -17 85 86 175 -17 z m 426 828 b 651 1040 561 828 646 904 l 518 1040 b 426 951 513 976 479 951 b 335 1040 374 951 342 976 l 201 1040 b 426 828 207 904 293 828 z "},"û":{"ha":858,"x_min":0,"x_max":0,"o":"m 331 -17 b 554 121 442 -17 517 29 l 558 0 l 774 0 l 774 747 l 535 747 l 535 333 b 419 169 535 219 493 169 b 324 321 353 169 324 215 l 324 747 l 85 747 l 85 265 b 331 -17 85 86 175 -17 z m 179 819 l 340 819 l 428 943 l 514 819 l 675 819 l 539 1040 l 315 1040 z "},"ü":{"ha":858,"x_min":0,"x_max":0,"o":"m 331 -17 b 554 121 442 -17 517 29 l 558 0 l 774 0 l 774 747 l 535 747 l 535 333 b 419 169 535 219 493 169 b 324 321 353 169 324 215 l 324 747 l 85 747 l 85 265 b 331 -17 85 86 175 -17 z m 156 831 l 379 831 l 379 1008 l 156 1008 z m 472 831 l 697 831 l 697 1008 l 472 1008 z "},"ù":{"ha":858,"x_min":0,"x_max":0,"o":"m 331 -17 b 554 121 442 -17 517 29 l 558 0 l 774 0 l 774 747 l 535 747 l 535 333 b 419 169 535 219 493 169 b 324 321 353 169 324 215 l 324 747 l 85 747 l 85 265 b 331 -17 85 86 175 -17 z m 353 828 l 532 828 l 454 1040 l 228 1040 z "},"ű":{"ha":858,"x_min":0,"x_max":0,"o":"m 331 -17 b 554 121 442 -17 517 29 l 558 0 l 774 0 l 774 747 l 535 747 l 535 333 b 419 169 535 219 493 169 b 324 321 353 169 324 215 l 324 747 l 85 747 l 85 265 b 331 -17 85 86 175 -17 z m 207 828 l 386 828 l 511 1040 l 285 1040 z m 475 828 l 654 828 l 779 1040 l 553 1040 z "},"ū":{"ha":858,"x_min":0,"x_max":0,"o":"m 331 -17 b 554 121 442 -17 517 29 l 558 0 l 774 0 l 774 747 l 535 747 l 535 333 b 419 169 535 219 493 169 b 324 321 353 169 324 215 l 324 747 l 85 747 l 85 265 b 331 -17 85 86 175 -17 z m 213 835 l 642 835 l 642 1004 l 213 1004 z "},"ų":{"ha":858,"x_min":0,"x_max":0,"o":"m 331 -17 b 554 121 442 -17 517 29 l 558 0 l 594 0 l 565 -35 b 507 -176 531 -76 507 -119 b 674 -306 507 -258 567 -306 b 826 -269 736 -306 800 -289 l 786 -153 b 729 -171 774 -162 750 -171 b 694 -136 711 -171 694 -160 b 735 -50 694 -112 710 -83 l 774 0 l 774 747 l 535 747 l 535 333 b 419 169 535 219 493 169 b 324 321 353 169 324 215 l 324 747 l 85 747 l 85 265 b 331 -17 85 86 175 -17 z "},"ů":{"ha":858,"x_min":0,"x_max":0,"o":"m 331 -17 b 554 121 442 -17 517 29 l 558 0 l 774 0 l 774 747 l 535 747 l 535 333 b 419 169 535 219 493 169 b 324 321 353 169 324 215 l 324 747 l 85 747 l 85 265 b 331 -17 85 86 175 -17 z m 426 808 b 575 954 510 808 575 871 b 426 1100 575 1038 510 1100 b 279 954 343 1100 279 1038 b 426 808 279 871 343 808 z m 426 906 b 378 954 397 906 378 925 b 426 1004 378 983 397 1004 b 476 954 456 1004 476 983 b 426 906 476 925 456 906 z "},"ũ":{"ha":858,"x_min":0,"x_max":0,"o":"m 331 -17 b 554 121 442 -17 517 29 l 558 0 l 774 0 l 774 747 l 535 747 l 535 333 b 419 169 535 219 493 169 b 324 321 353 169 324 215 l 324 747 l 85 747 l 85 265 b 331 -17 85 86 175 -17 z m 500 829 b 668 1040 608 829 667 911 l 553 1040 b 504 965 550 983 529 965 b 456 988 488 965 475 972 b 340 1031 418 1018 385 1031 b 179 822 238 1031 179 947 l 293 822 b 344 894 299 876 319 894 b 392 874 361 894 375 888 b 500 829 429 842 456 829 z "},"v":{"ha":881,"x_min":0,"x_max":0,"o":"m 303 0 l 576 0 l 851 747 l 604 747 l 442 239 l 278 747 l 29 747 z "},"w":{"ha":1194,"x_min":0,"x_max":0,"o":"m 249 0 l 468 0 l 597 435 l 726 0 l 947 0 l 1165 747 l 929 747 l 814 281 l 689 747 l 504 747 l 381 281 l 267 747 l 29 747 z "},"ẃ":{"ha":1194,"x_min":0,"x_max":0,"o":"m 249 0 l 468 0 l 597 435 l 726 0 l 947 0 l 1165 747 l 929 747 l 814 281 l 689 747 l 504 747 l 381 281 l 267 747 l 29 747 z m 489 828 l 668 828 l 793 1040 l 567 1040 z "},"ŵ":{"ha":1194,"x_min":0,"x_max":0,"o":"m 249 0 l 468 0 l 597 435 l 726 0 l 947 0 l 1165 747 l 929 747 l 814 281 l 689 747 l 504 747 l 381 281 l 267 747 l 29 747 z m 350 819 l 511 819 l 599 943 l 685 819 l 846 819 l 710 1040 l 486 1040 z "},"ẅ":{"ha":1194,"x_min":0,"x_max":0,"o":"m 249 0 l 468 0 l 597 435 l 726 0 l 947 0 l 1165 747 l 929 747 l 814 281 l 689 747 l 504 747 l 381 281 l 267 747 l 29 747 z m 328 831 l 551 831 l 551 1008 l 328 1008 z m 644 831 l 869 831 l 869 1008 l 644 1008 z "},"ẁ":{"ha":1194,"x_min":0,"x_max":0,"o":"m 249 0 l 468 0 l 597 435 l 726 0 l 947 0 l 1165 747 l 929 747 l 814 281 l 689 747 l 504 747 l 381 281 l 267 747 l 29 747 z m 525 828 l 704 828 l 626 1040 l 400 1040 z "},"x":{"ha":933,"x_min":0,"x_max":0,"o":"m 64 0 l 318 0 l 471 238 l 621 0 l 871 0 l 607 378 l 865 747 l 610 747 l 467 521 l 318 747 l 69 747 l 328 378 z "},"y":{"ha":838,"x_min":0,"x_max":0,"o":"m 157 -208 l 314 -208 b 528 -62 432 -208 492 -168 l 810 747 l 568 747 l 425 269 l 271 747 l 29 747 l 289 44 l 351 44 l 339 11 b 261 -36 325 -25 307 -36 l 157 -36 z "},"ý":{"ha":838,"x_min":0,"x_max":0,"o":"m 157 -208 l 314 -208 b 528 -62 432 -208 492 -168 l 810 747 l 568 747 l 425 269 l 271 747 l 29 747 l 289 44 l 351 44 l 339 11 b 261 -36 325 -25 307 -36 l 157 -36 z m 313 828 l 492 828 l 617 1040 l 390 1040 z "},"ŷ":{"ha":838,"x_min":0,"x_max":0,"o":"m 157 -208 l 314 -208 b 528 -62 432 -208 492 -168 l 810 747 l 568 747 l 425 269 l 271 747 l 29 747 l 289 44 l 351 44 l 339 11 b 261 -36 325 -25 307 -36 l 157 -36 z m 174 819 l 335 819 l 422 943 l 508 819 l 669 819 l 533 1040 l 310 1040 z "},"ÿ":{"ha":838,"x_min":0,"x_max":0,"o":"m 157 -208 l 314 -208 b 528 -62 432 -208 492 -168 l 810 747 l 568 747 l 425 269 l 271 747 l 29 747 l 289 44 l 351 44 l 339 11 b 261 -36 325 -25 307 -36 l 157 -36 z m 151 831 l 375 831 l 375 1008 l 151 1008 z m 468 831 l 693 831 l 693 1008 l 468 1008 z "},"ỳ":{"ha":838,"x_min":0,"x_max":0,"o":"m 157 -208 l 314 -208 b 528 -62 432 -208 492 -168 l 810 747 l 568 747 l 425 269 l 271 747 l 29 747 l 289 44 l 351 44 l 339 11 b 261 -36 325 -25 307 -36 l 157 -36 z m 347 828 l 526 828 l 449 1040 l 222 1040 z "},"ỹ":{"ha":838,"x_min":0,"x_max":0,"o":"m 157 -208 l 314 -208 b 528 -62 432 -208 492 -168 l 810 747 l 568 747 l 425 269 l 271 747 l 29 747 l 289 44 l 351 44 l 339 11 b 261 -36 325 -25 307 -36 l 157 -36 z m 497 840 b 665 1051 606 840 664 922 l 550 1051 b 501 976 547 994 526 976 b 453 999 485 976 472 983 b 338 1042 415 1029 382 1042 b 176 833 235 1042 176 958 l 290 833 b 342 906 296 888 317 906 b 389 885 358 906 372 899 b 497 840 426 853 453 840 z "},"z":{"ha":849,"x_min":0,"x_max":0,"o":"m 78 0 l 771 0 l 771 172 l 360 172 l 761 568 l 761 747 l 96 747 l 96 575 l 469 575 l 78 179 z "},"ź":{"ha":849,"x_min":0,"x_max":0,"o":"m 78 0 l 771 0 l 771 172 l 360 172 l 761 568 l 761 747 l 96 747 l 96 575 l 469 575 l 78 179 z m 321 828 l 500 828 l 625 1040 l 399 1040 z "},"ž":{"ha":849,"x_min":0,"x_max":0,"o":"m 78 0 l 771 0 l 771 172 l 360 172 l 761 568 l 761 747 l 96 747 l 96 575 l 469 575 l 78 179 z m 188 1040 l 324 819 l 547 819 l 683 1040 l 522 1040 l 436 917 l 349 1040 z "},"ż":{"ha":849,"x_min":0,"x_max":0,"o":"m 78 0 l 771 0 l 771 172 l 360 172 l 761 568 l 761 747 l 96 747 l 96 575 l 469 575 l 78 179 z m 307 831 l 553 831 l 553 1008 l 307 1008 z "},"ꞌ":{"ha":276,"x_min":0,"x_max":0,"o":"m 74 500 l 204 500 l 222 783 l 222 986 l 53 986 l 53 783 z "},"ﬁ":{"ha":1054,"x_min":0,"x_max":0,"o":"m 168 739 l 168 710 l 57 710 l 57 536 l 168 536 l 168 0 l 408 0 l 408 536 l 593 536 l 593 710 l 408 710 l 408 728 b 489 814 408 786 431 814 l 603 814 l 603 986 l 431 986 b 168 739 251 986 168 897 z m 731 0 l 969 0 l 969 747 l 731 747 z m 726 831 l 972 831 l 972 1008 l 726 1008 z "},"ﬂ":{"ha":1103,"x_min":0,"x_max":0,"o":"m 168 739 l 168 710 l 57 710 l 57 536 l 168 536 l 168 0 l 408 0 l 408 536 l 593 536 l 593 710 l 408 710 l 408 728 b 489 814 408 786 431 814 l 603 814 l 603 986 l 431 986 b 168 739 251 986 168 897 z m 922 0 l 1060 0 l 1060 172 l 1015 172 b 950 239 974 172 950 190 l 950 986 l 711 986 l 711 213 b 922 0 711 61 789 0 z "},"ª":{"ha":626,"x_min":0,"x_max":0,"o":"m 231 513 b 393 594 317 513 369 544 b 501 515 407 531 458 515 b 558 522 521 515 547 518 l 558 625 l 549 625 b 521 660 532 625 521 631 l 521 800 b 300 996 521 929 449 996 b 72 836 169 996 90 946 l 231 831 b 300 889 236 871 260 889 b 361 813 338 889 361 863 l 221 783 b 64 639 122 763 64 724 b 231 513 64 558 133 513 z m 275 614 b 228 654 243 614 228 628 b 281 703 228 679 249 694 l 361 722 l 361 704 b 275 614 361 644 324 614 z "},"º":{"ha":626,"x_min":0,"x_max":0,"o":"m 314 513 b 561 754 463 513 561 608 b 314 996 561 899 464 996 b 65 754 164 996 65 899 b 314 513 65 608 165 513 z m 314 628 b 229 754 260 628 229 674 b 314 881 229 833 260 881 b 397 754 367 881 397 833 b 314 628 397 674 367 628 z "},"А":{"ha":1063,"x_min":0,"x_max":0,"o":"m 36 0 l 283 0 l 347 186 l 714 186 l 779 0 l 1026 0 l 671 986 l 392 986 z m 413 378 l 532 725 l 650 378 z "},"Б":{"ha":957,"x_min":0,"x_max":0,"o":"m 94 0 l 503 0 b 892 318 744 0 892 121 b 503 635 892 514 744 635 l 336 635 l 336 789 l 849 789 l 849 986 l 94 986 z m 486 197 l 336 197 l 336 438 l 486 438 b 644 318 589 438 644 396 b 486 197 644 239 589 197 z "},"В":{"ha":986,"x_min":0,"x_max":0,"o":"m 94 0 l 538 0 b 922 272 785 0 922 89 b 671 510 922 411 836 496 b 881 718 806 524 881 596 b 493 986 881 903 742 986 l 94 986 z m 524 190 l 336 190 l 336 418 l 524 418 b 679 303 615 418 679 381 b 524 190 679 226 614 190 z m 485 585 l 336 585 l 336 796 l 485 796 b 638 690 578 796 638 764 b 485 585 638 619 575 585 z "},"Г":{"ha":886,"x_min":0,"x_max":0,"o":"m 94 0 l 336 0 l 336 789 l 847 789 l 847 986 l 94 986 z "},"Ѓ":{"ha":886,"x_min":0,"x_max":0,"o":"m 94 0 l 336 0 l 336 789 l 847 789 l 847 986 l 94 986 z m 361 1067 l 540 1067 l 665 1279 l 439 1279 z "},"Ґ":{"ha":844,"x_min":0,"x_max":0,"o":"m 94 0 l 336 0 l 336 789 l 806 789 l 806 1201 l 564 1201 l 564 986 l 94 986 z "},"Ғ":{"ha":960,"x_min":0,"x_max":0,"o":"m 67 357 l 168 357 l 168 0 l 410 0 l 410 357 l 697 357 l 697 556 l 410 556 l 410 789 l 921 789 l 921 986 l 168 986 l 168 556 l 67 556 z "},"Д":{"ha":1214,"x_min":0,"x_max":0,"o":"m 69 -208 l 313 -208 l 313 0 l 901 0 l 901 -208 l 1144 -208 l 1144 197 l 1022 197 l 1022 986 l 317 986 l 244 381 b 107 197 229 263 182 197 l 69 197 z m 433 197 b 489 367 463 238 481 293 l 539 789 l 779 789 l 779 197 z "},"Е":{"ha":872,"x_min":0,"x_max":0,"o":"m 94 0 l 814 0 l 814 197 l 336 197 l 336 396 l 786 396 l 786 593 l 336 593 l 336 789 l 803 789 l 803 986 l 94 986 z "},"Ѐ":{"ha":872,"x_min":0,"x_max":0,"o":"m 94 0 l 814 0 l 814 197 l 336 197 l 336 396 l 786 396 l 786 593 l 336 593 l 336 789 l 803 789 l 803 986 l 94 986 z m 375 1068 l 554 1068 l 476 1281 l 250 1281 z "},"Ё":{"ha":872,"x_min":0,"x_max":0,"o":"m 94 0 l 814 0 l 814 197 l 336 197 l 336 396 l 786 396 l 786 593 l 336 593 l 336 789 l 803 789 l 803 986 l 94 986 z m 179 1071 l 403 1071 l 403 1249 l 179 1249 z m 496 1071 l 721 1071 l 721 1249 l 496 1249 z "},"Ж":{"ha":1524,"x_min":0,"x_max":0,"o":"m 40 0 l 338 0 l 640 421 l 640 0 l 883 0 l 883 421 l 1186 0 l 1483 0 l 1129 493 l 1469 986 l 1172 986 l 883 568 l 883 986 l 640 986 l 640 568 l 351 986 l 54 986 l 393 493 z "},"З":{"ha":972,"x_min":0,"x_max":0,"o":"m 485 -22 b 911 271 743 -22 911 94 b 663 533 911 407 822 501 b 878 751 801 563 878 639 b 485 1008 878 907 724 1008 b 81 731 258 1008 99 899 l 322 719 b 479 811 329 775 389 811 b 631 713 572 811 631 774 b 499 597 631 632 567 596 l 399 599 l 399 442 l 499 443 b 663 311 585 444 663 400 b 488 175 663 231 597 175 b 307 310 385 175 315 228 l 61 301 b 485 -22 71 106 239 -22 z "},"И":{"ha":1043,"x_min":0,"x_max":0,"o":"m 950 0 l 950 986 l 696 986 l 335 368 l 335 986 l 93 986 l 93 0 l 349 0 l 708 592 l 708 0 z "},"Й":{"ha":1043,"x_min":0,"x_max":0,"o":"m 950 0 l 950 986 l 696 986 l 335 368 l 335 986 l 93 986 l 93 0 l 349 0 l 708 592 l 708 0 z m 521 1067 b 746 1279 656 1067 740 1143 l 613 1279 b 521 1190 607 1215 574 1190 b 429 1279 468 1190 436 1215 l 296 1279 b 521 1067 301 1143 388 1067 z "},"К":{"ha":1001,"x_min":0,"x_max":0,"o":"m 690 0 l 961 0 l 593 493 l 947 986 l 679 986 l 336 507 l 336 986 l 94 986 l 94 0 l 336 0 l 336 481 z "},"Ќ":{"ha":1001,"x_min":0,"x_max":0,"o":"m 690 0 l 961 0 l 593 493 l 947 986 l 679 986 l 336 507 l 336 986 l 94 986 l 94 0 l 336 0 l 336 481 z m 393 1067 l 572 1067 l 697 1279 l 471 1279 z "},"Л":{"ha":1092,"x_min":0,"x_max":0,"o":"m 60 0 l 217 0 b 461 251 361 0 446 99 l 513 789 l 757 789 l 757 0 l 999 0 l 999 986 l 293 986 l 229 299 b 139 197 222 235 193 197 l 60 197 z "},"М":{"ha":1288,"x_min":0,"x_max":0,"o":"m 94 0 l 336 0 l 336 597 l 550 3 l 736 3 l 951 597 l 951 0 l 1193 0 l 1193 986 l 874 986 l 644 314 l 414 986 l 94 986 z "},"Н":{"ha":1003,"x_min":0,"x_max":0,"o":"m 94 0 l 336 0 l 336 397 l 669 397 l 669 0 l 911 0 l 911 986 l 669 986 l 669 596 l 336 596 l 336 986 l 94 986 z "},"О":{"ha":1085,"x_min":0,"x_max":0,"o":"m 543 -22 b 1033 492 849 -22 1033 175 b 543 1008 1033 808 849 1008 b 53 492 236 1008 53 808 b 543 -22 53 175 236 -22 z m 543 175 b 301 492 390 175 301 290 b 543 811 301 693 390 811 b 785 492 694 811 785 693 b 543 175 785 290 694 175 z "},"П":{"ha":1003,"x_min":0,"x_max":0,"o":"m 94 0 l 336 0 l 336 789 l 665 789 l 665 0 l 908 0 l 908 986 l 94 986 z "},"Р":{"ha":943,"x_min":0,"x_max":0,"o":"m 94 0 l 336 0 l 336 326 l 503 326 b 892 657 744 326 892 453 b 503 986 892 861 744 986 l 94 986 z m 486 525 l 336 525 l 336 789 l 486 789 b 644 657 585 789 644 743 b 486 525 644 569 583 525 z "},"С":{"ha":1024,"x_min":0,"x_max":0,"o":"m 522 -22 b 979 367 785 -22 938 118 l 728 376 b 525 175 710 249 644 175 b 301 492 386 175 301 297 b 526 811 301 682 381 811 b 726 622 635 811 706 740 l 976 632 b 526 1008 935 875 792 1008 b 53 492 236 1008 53 804 b 522 -22 53 168 250 -22 z "},"Т":{"ha":903,"x_min":0,"x_max":0,"o":"m 331 0 l 574 0 l 574 789 l 865 789 l 865 986 l 39 986 l 39 789 l 331 789 z "},"У":{"ha":904,"x_min":0,"x_max":0,"o":"m 167 0 l 349 0 b 567 146 463 0 531 44 l 868 986 l 621 986 l 454 499 l 283 986 l 36 986 l 301 296 l 386 296 l 365 238 b 278 190 356 204 329 190 l 167 190 z "},"Ў":{"ha":904,"x_min":0,"x_max":0,"o":"m 167 0 l 349 0 b 567 146 463 0 531 44 l 868 986 l 621 986 l 454 499 l 283 986 l 36 986 l 301 296 l 386 296 l 365 238 b 278 190 356 204 329 190 l 167 190 z m 453 1067 b 678 1279 588 1067 672 1143 l 544 1279 b 453 1190 539 1215 506 1190 b 361 1279 400 1190 368 1215 l 228 1279 b 453 1067 233 1143 319 1067 z "},"Ф":{"ha":1215,"x_min":0,"x_max":0,"o":"m 494 0 l 721 0 l 721 108 b 1163 493 992 140 1163 285 b 721 878 1163 701 992 846 l 721 986 l 494 986 l 494 879 b 53 493 225 847 53 701 b 494 107 53 285 225 139 z m 301 493 b 494 678 301 586 374 653 l 494 308 b 301 493 374 333 301 400 z m 721 310 l 721 676 b 914 493 842 651 914 585 b 721 310 914 401 842 335 z "},"Х":{"ha":1042,"x_min":0,"x_max":0,"o":"m 40 0 l 321 0 l 521 317 l 722 0 l 1001 0 l 664 497 l 999 986 l 718 986 l 524 675 l 322 986 l 43 986 l 379 494 z "},"Ч":{"ha":942,"x_min":0,"x_max":0,"o":"m 606 0 l 847 0 l 847 986 l 606 986 l 606 694 b 433 522 606 586 540 522 b 289 694 338 522 289 583 l 289 986 l 47 986 l 47 626 b 360 331 47 446 164 331 b 606 443 467 331 554 374 z "},"Ц":{"ha":1143,"x_min":0,"x_max":0,"o":"m 94 986 l 94 0 l 835 0 l 835 -208 l 1078 -208 l 1078 197 l 908 197 l 908 986 l 665 986 l 665 197 l 336 197 l 336 986 z "},"Ш":{"ha":1368,"x_min":0,"x_max":0,"o":"m 94 0 l 1274 0 l 1274 986 l 1032 986 l 1032 197 l 807 197 l 807 986 l 564 986 l 564 197 l 336 197 l 336 986 l 94 986 z "},"Щ":{"ha":1506,"x_min":0,"x_max":0,"o":"m 1196 -208 l 1439 -208 l 1439 197 l 1274 197 l 1274 986 l 1032 986 l 1032 197 l 807 197 l 807 986 l 564 986 l 564 197 l 336 197 l 336 986 l 94 986 l 94 0 l 1196 0 z "},"Џ":{"ha":1003,"x_min":0,"x_max":0,"o":"m 381 -208 l 622 -208 l 622 0 l 908 0 l 908 986 l 665 986 l 665 197 l 336 197 l 336 986 l 94 986 l 94 0 l 381 0 z "},"Ь":{"ha":957,"x_min":0,"x_max":0,"o":"m 94 986 l 94 0 l 503 0 b 892 329 744 0 892 125 b 503 660 892 533 744 660 l 336 660 l 336 986 z m 486 461 b 644 329 583 461 644 417 b 486 197 644 243 585 197 l 336 197 l 336 461 z "},"Ы":{"ha":1321,"x_min":0,"x_max":0,"o":"m 986 0 l 1226 0 l 1226 986 l 986 986 z m 94 986 l 94 0 l 503 0 b 892 329 744 0 892 125 b 503 660 892 533 744 660 l 336 660 l 336 986 z m 486 461 b 644 329 583 461 644 417 b 486 197 644 243 585 197 l 336 197 l 336 461 z "},"Ъ":{"ha":1057,"x_min":0,"x_max":0,"o":"m 67 789 l 208 789 l 208 0 l 617 0 b 1006 329 858 0 1006 125 b 617 660 1006 533 858 660 l 450 660 l 450 986 l 67 986 z m 600 461 b 758 329 697 461 758 417 b 600 197 758 243 699 197 l 450 197 l 450 461 z "},"Љ":{"ha":1618,"x_min":0,"x_max":0,"o":"m 60 0 l 217 0 b 461 251 361 0 446 99 l 513 789 l 757 789 l 757 0 l 1165 0 b 1554 329 1407 0 1554 125 b 1165 660 1554 533 1407 660 l 999 660 l 999 986 l 293 986 l 229 299 b 139 197 222 235 193 197 l 60 197 z m 1149 461 b 1307 329 1246 461 1307 417 b 1149 197 1307 243 1247 197 l 999 197 l 999 461 z "},"Њ":{"ha":1529,"x_min":0,"x_max":0,"o":"m 94 0 l 336 0 l 336 461 l 667 461 l 667 0 l 1075 0 b 1464 329 1317 0 1464 125 b 1075 660 1464 533 1317 660 l 908 660 l 908 986 l 667 986 l 667 661 l 336 661 l 336 986 l 94 986 z m 1058 461 b 1217 329 1156 461 1217 417 b 1058 197 1217 243 1157 197 l 908 197 l 908 461 z "},"Ѕ":{"ha":957,"x_min":0,"x_max":0,"o":"m 497 -22 b 890 283 742 -22 890 94 b 515 589 890 436 797 536 b 328 714 371 617 328 646 b 465 814 328 774 379 814 b 636 657 567 814 628 753 l 876 668 b 468 1008 856 867 722 1008 b 85 706 228 1008 85 885 b 449 404 85 531 188 460 b 647 272 617 368 647 333 b 500 172 647 206 593 172 b 308 339 383 172 324 232 l 67 328 b 497 -22 81 114 233 -22 z "},"Є":{"ha":1072,"x_min":0,"x_max":0,"o":"m 543 -22 b 1019 356 803 -22 974 119 l 764 356 b 543 175 733 240 656 175 b 307 403 414 175 331 258 l 596 403 l 596 581 l 307 581 b 543 811 329 728 413 811 b 764 628 656 811 733 744 l 1019 628 b 543 1008 974 867 803 1008 b 53 492 236 1008 53 811 b 543 -22 53 175 236 -22 z "},"Э":{"ha":1071,"x_min":0,"x_max":0,"o":"m 529 -22 b 1019 492 836 -22 1019 175 b 529 1008 1019 811 836 1008 b 53 628 269 1008 99 867 l 308 628 b 529 811 339 744 417 811 b 765 581 660 811 743 728 l 476 581 l 476 403 l 765 403 b 529 175 742 258 658 175 b 308 356 417 175 339 240 l 53 356 b 529 -22 99 119 269 -22 z "},"І":{"ha":431,"x_min":0,"x_max":0,"o":"m 94 0 l 336 0 l 336 986 l 94 986 z "},"Ї":{"ha":431,"x_min":0,"x_max":0,"o":"m 94 0 l 336 0 l 336 986 l 94 986 z m -68 1069 l 156 1069 l 156 1247 l -68 1247 z m 249 1069 l 474 1069 l 474 1247 l 249 1247 z "},"Ј":{"ha":885,"x_min":0,"x_max":0,"o":"m 438 -22 b 811 358 660 -22 811 126 l 811 986 l 569 986 l 569 358 b 438 175 569 232 519 175 b 301 372 354 175 304 235 l 60 361 b 438 -22 63 140 192 -22 z "},"Ћ":{"ha":1124,"x_min":0,"x_max":0,"o":"m 39 789 l 276 789 l 276 0 l 518 0 l 518 292 b 690 464 518 400 583 464 b 835 292 786 464 835 403 l 835 0 l 1076 0 l 1076 360 b 764 656 1076 540 960 656 b 518 543 657 656 569 613 l 518 789 l 792 789 l 792 986 l 39 986 z "},"Ю":{"ha":1486,"x_min":0,"x_max":0,"o":"m 94 0 l 336 0 l 336 393 l 461 393 b 944 -22 496 135 671 -22 b 1435 492 1250 -22 1435 175 b 944 1008 1435 808 1250 1008 b 461 593 672 1008 497 850 l 336 593 l 336 986 l 94 986 z m 944 175 b 703 492 792 175 703 290 b 944 811 703 693 792 811 b 1186 492 1096 811 1186 693 b 944 175 1186 290 1096 175 z "},"Я":{"ha":997,"x_min":0,"x_max":0,"o":"m 903 0 l 903 986 l 494 986 b 106 668 246 986 106 871 b 279 394 106 547 163 440 l 64 0 l 324 0 l 504 350 l 515 350 l 661 350 l 661 0 z m 511 546 b 351 665 417 546 351 585 b 511 789 351 747 417 789 l 661 789 l 661 546 z "},"Ђ":{"ha":1131,"x_min":0,"x_max":0,"o":"m 275 0 l 517 0 l 517 281 b 688 464 517 396 581 464 b 832 332 775 464 832 411 b 665 197 832 250 774 197 l 665 0 b 1075 339 917 0 1075 131 b 757 656 1075 531 950 656 b 517 542 651 656 565 613 l 517 789 l 792 789 l 792 986 l 39 986 l 39 789 l 275 789 z "},"Ѣ":{"ha":1039,"x_min":0,"x_max":0,"o":"m 53 736 l 178 736 l 178 0 l 586 0 b 975 329 828 0 975 125 b 586 660 975 533 828 660 l 419 660 l 419 736 l 544 736 l 544 863 l 419 863 l 419 986 l 178 986 l 178 863 l 53 863 z m 569 461 b 728 329 667 461 728 417 b 569 197 728 243 668 197 l 419 197 l 419 461 z "},"Ѫ":{"ha":1114,"x_min":0,"x_max":0,"o":"m 149 343 l 40 0 l 279 0 l 354 264 b 444 343 369 328 394 342 l 444 0 l 671 0 l 671 343 b 760 264 721 342 744 328 l 835 0 l 1074 0 l 965 343 b 779 529 933 453 871 514 l 975 789 l 975 986 l 140 986 l 140 789 l 336 529 b 149 343 244 514 181 453 z m 375 789 l 740 789 l 558 547 z "},"Ѳ":{"ha":1085,"x_min":0,"x_max":0,"o":"m 543 -22 b 1033 492 849 -22 1033 175 b 543 1008 1033 808 849 1008 b 53 492 236 1008 53 808 b 543 -22 53 175 236 -22 z m 543 175 b 306 417 410 175 325 263 b 354 432 322 424 339 429 b 525 403 392 438 457 426 b 769 363 635 367 717 354 b 543 175 738 242 658 175 z m 318 625 b 543 811 349 744 428 811 b 779 569 674 811 758 724 b 743 558 767 564 754 560 b 525 599 696 549 629 561 b 318 625 454 625 374 636 z "},"Ѵ":{"ha":1118,"x_min":0,"x_max":0,"o":"m 393 0 l 669 0 l 915 678 b 1063 789 944 758 985 789 l 1082 789 l 1082 986 l 1010 986 b 701 765 861 986 751 906 l 532 274 l 283 986 l 36 986 z "},"Җ":{"ha":1583,"x_min":0,"x_max":0,"o":"m 1308 -208 l 1550 -208 l 1550 142 l 1382 142 l 1129 493 l 1469 986 l 1172 986 l 883 568 l 883 986 l 640 986 l 640 568 l 351 986 l 54 986 l 393 493 l 40 0 l 338 0 l 640 421 l 640 0 l 883 0 l 883 421 l 1186 0 l 1308 0 z "},"Қ":{"ha":1093,"x_min":0,"x_max":0,"o":"m 811 -208 l 1053 -208 l 1053 142 l 856 142 l 593 493 l 947 986 l 679 986 l 336 507 l 336 986 l 94 986 l 94 0 l 336 0 l 336 481 l 690 0 l 811 0 z "},"Ң":{"ha":1114,"x_min":0,"x_max":0,"o":"m 806 -208 l 1047 -208 l 1047 142 l 911 142 l 911 986 l 669 986 l 669 596 l 336 596 l 336 986 l 94 986 l 94 0 l 336 0 l 336 397 l 669 397 l 669 0 l 806 0 z "},"Ү":{"ha":994,"x_min":0,"x_max":0,"o":"m 376 0 l 619 0 l 619 376 l 960 986 l 696 986 l 499 610 l 300 986 l 36 986 l 376 376 z "},"Ұ":{"ha":996,"x_min":0,"x_max":0,"o":"m 169 238 l 376 238 l 376 0 l 619 0 l 619 238 l 825 238 l 825 435 l 651 435 l 960 986 l 696 986 l 499 610 l 300 986 l 36 986 l 344 435 l 169 435 z "},"Ҳ":{"ha":1121,"x_min":0,"x_max":0,"o":"m 839 -208 l 1081 -208 l 1081 142 l 906 142 l 664 497 l 999 986 l 718 986 l 524 675 l 322 986 l 43 986 l 379 494 l 40 0 l 321 0 l 521 317 l 722 0 l 839 0 z "},"Ҷ":{"ha":1046,"x_min":0,"x_max":0,"o":"m 738 -208 l 979 -208 l 979 142 l 847 142 l 847 986 l 606 986 l 606 694 b 433 522 606 586 540 522 b 289 694 338 522 289 583 l 289 986 l 47 986 l 47 626 b 360 331 47 446 164 331 b 606 443 467 331 554 374 l 606 0 l 738 0 z "},"Һ":{"ha":942,"x_min":0,"x_max":0,"o":"m 336 986 l 94 986 l 94 0 l 336 0 l 336 292 b 508 464 336 400 401 464 b 653 292 604 464 653 403 l 653 0 l 894 0 l 894 360 b 582 656 894 540 778 656 b 336 543 475 656 388 613 z "},"Ӏ":{"ha":431,"x_min":0,"x_max":0,"o":"m 94 0 l 336 0 l 336 986 l 94 986 z "},"Ә":{"ha":1064,"x_min":0,"x_max":0,"o":"m 524 -22 b 1011 493 785 -22 1011 190 b 524 1008 1011 807 793 1008 b 79 692 314 1008 142 886 l 335 679 b 528 811 371 764 443 811 b 763 567 660 811 753 711 l 53 567 l 54 488 b 524 -22 64 169 272 -22 z m 528 175 b 314 368 418 175 340 250 l 753 368 b 528 175 724 250 642 175 z "},"Ӣ":{"ha":1043,"x_min":0,"x_max":0,"o":"m 950 0 l 950 986 l 696 986 l 335 368 l 335 986 l 93 986 l 93 0 l 349 0 l 708 592 l 708 0 z m 301 1074 l 731 1074 l 731 1243 l 301 1243 z "},"Ө":{"ha":1085,"x_min":0,"x_max":0,"o":"m 543 -22 b 1033 492 849 -22 1033 175 b 543 1008 1033 808 849 1008 b 53 492 236 1008 53 808 b 543 -22 53 175 236 -22 z m 543 175 b 310 394 417 175 335 254 l 776 394 b 543 175 751 254 668 175 z m 310 592 b 543 811 335 732 418 811 b 776 592 667 811 750 732 z "},"Ӯ":{"ha":904,"x_min":0,"x_max":0,"o":"m 167 0 l 349 0 b 567 146 463 0 531 44 l 868 986 l 621 986 l 454 499 l 283 986 l 36 986 l 301 296 l 386 296 l 365 238 b 278 190 356 204 329 190 l 167 190 z m 239 1074 l 668 1074 l 668 1243 l 239 1243 z "},"а":{"ha":879,"x_min":0,"x_max":0,"o":"m 317 -17 b 576 115 451 -17 538 33 b 747 -10 597 15 674 -10 b 832 0 779 -10 817 -4 l 832 156 l 814 156 b 771 213 786 156 771 167 l 771 449 b 421 764 771 657 654 764 b 63 510 219 764 92 682 l 300 501 b 421 600 311 565 350 600 b 532 467 492 600 532 554 l 300 419 b 50 188 136 386 50 319 b 317 -17 50 58 158 -17 z m 378 139 b 296 210 322 139 296 165 b 386 293 296 253 328 281 l 532 326 l 532 296 b 378 139 532 194 468 139 z "},"б":{"ha":900,"x_min":0,"x_max":0,"o":"m 454 -22 b 847 332 692 -22 847 115 b 472 682 847 543 700 682 b 258 590 382 682 307 649 b 447 797 274 704 338 746 b 614 1072 568 856 614 938 l 418 1071 b 307 926 418 999 396 965 b 53 442 129 847 53 708 b 147 113 53 297 86 186 b 454 -22 225 15 336 -22 z m 456 154 b 304 332 363 154 301 226 b 460 504 306 439 369 504 b 603 332 546 504 603 435 b 456 154 603 226 543 154 z "},"в":{"ha":872,"x_min":0,"x_max":0,"o":"m 85 0 l 476 0 b 801 211 692 0 801 75 b 600 386 801 315 732 376 b 771 540 710 396 771 451 b 435 747 771 678 657 747 l 85 747 z m 458 165 l 326 165 l 326 314 l 458 314 b 560 236 524 314 560 285 b 458 165 560 192 522 165 z m 429 444 l 326 444 l 326 582 l 429 582 b 529 514 492 582 529 557 b 429 444 529 471 492 444 z "},"г":{"ha":700,"x_min":0,"x_max":0,"o":"m 85 0 l 324 0 l 324 575 l 664 575 l 664 747 l 85 747 z "},"ѓ":{"ha":700,"x_min":0,"x_max":0,"o":"m 85 0 l 324 0 l 324 575 l 664 575 l 664 747 l 85 747 z m 265 828 l 444 828 l 569 1040 l 343 1040 z "},"ґ":{"ha":665,"x_min":0,"x_max":0,"o":"m 85 0 l 324 0 l 324 575 l 638 575 l 638 965 l 396 965 l 396 747 l 85 747 z "},"ғ":{"ha":764,"x_min":0,"x_max":0,"o":"m 57 258 l 135 258 l 135 0 l 374 0 l 374 258 l 560 258 l 560 432 l 374 432 l 374 575 l 714 575 l 714 747 l 135 747 l 135 432 l 57 432 z "},"д":{"ha":1054,"x_min":0,"x_max":0,"o":"m 47 172 l 47 -208 l 286 -208 l 286 0 l 765 0 l 765 -208 l 1006 -208 l 1006 172 l 886 172 l 886 747 l 265 747 l 199 306 b 97 172 186 213 154 172 z m 382 172 b 418 300 400 207 413 249 l 454 575 l 646 575 l 646 172 z "},"е":{"ha":867,"x_min":0,"x_max":0,"o":"m 439 -17 b 806 224 625 -17 764 68 l 567 238 b 443 157 549 181 504 157 b 296 311 357 157 300 207 l 815 311 l 815 356 b 438 764 815 607 669 764 b 50 374 203 764 50 608 b 439 -17 50 138 203 -17 z m 575 447 l 296 447 b 438 594 304 540 358 594 b 575 447 517 594 569 546 z "},"ѐ":{"ha":867,"x_min":0,"x_max":0,"o":"m 439 -17 b 806 224 625 -17 764 68 l 567 238 b 443 157 549 181 504 157 b 296 311 357 157 300 207 l 815 311 l 815 356 b 438 764 815 607 669 764 b 50 374 203 764 50 608 b 439 -17 50 138 203 -17 z m 575 447 l 296 447 b 438 594 304 540 358 594 b 575 447 517 594 569 546 z m 368 815 l 547 815 l 469 1028 l 243 1028 z "},"ё":{"ha":867,"x_min":0,"x_max":0,"o":"m 439 -17 b 806 224 625 -17 764 68 l 567 238 b 443 157 549 181 504 157 b 296 311 357 157 300 207 l 815 311 l 815 356 b 438 764 815 607 669 764 b 50 374 203 764 50 608 b 439 -17 50 138 203 -17 z m 575 447 l 296 447 b 438 594 304 540 358 594 b 575 447 517 594 569 546 z m 158 818 l 382 818 l 382 996 l 158 996 z m 475 818 l 700 818 l 700 996 l 475 996 z "},"ж":{"ha":1438,"x_min":0,"x_max":0,"o":"m 64 0 l 354 0 l 601 332 l 601 0 l 840 0 l 840 329 l 1085 0 l 1375 0 l 1081 374 l 1361 747 l 1071 747 l 840 421 l 840 747 l 601 747 l 601 417 l 368 747 l 78 747 l 357 374 z "},"з":{"ha":796,"x_min":0,"x_max":0,"o":"m 374 -17 b 721 203 586 -17 721 68 b 526 401 721 301 650 374 b 699 554 636 425 699 481 b 372 764 699 683 572 764 b 40 553 182 764 53 686 l 281 546 b 367 633 283 604 315 633 b 453 553 419 633 453 604 b 361 458 453 492 419 458 l 304 458 l 304 331 l 361 331 b 478 233 433 331 478 293 b 369 153 478 183 435 153 b 257 246 303 153 261 189 l 14 240 b 374 -17 21 79 158 -17 z "},"и":{"ha":838,"x_min":0,"x_max":0,"o":"m 85 0 l 304 0 l 515 388 l 515 0 l 754 0 l 754 747 l 540 747 l 324 347 l 324 747 l 85 747 z "},"й":{"ha":838,"x_min":0,"x_max":0,"o":"m 85 0 l 304 0 l 515 388 l 515 0 l 754 0 l 754 747 l 540 747 l 324 347 l 324 747 l 85 747 z m 419 817 b 644 1029 554 817 639 893 l 511 1029 b 419 940 506 965 472 940 b 328 1029 367 940 335 965 l 194 1029 b 419 817 200 893 286 817 z "},"ѝ":{"ha":838,"x_min":0,"x_max":0,"o":"m 85 0 l 304 0 l 515 388 l 515 0 l 754 0 l 754 747 l 540 747 l 324 347 l 324 747 l 85 747 z m 346 817 l 525 817 l 447 1029 l 221 1029 z "},"к":{"ha":932,"x_min":0,"x_max":0,"o":"m 593 0 l 869 0 l 581 374 l 853 747 l 579 747 l 325 392 l 325 747 l 85 747 l 85 0 l 325 0 l 325 357 z "},"ќ":{"ha":932,"x_min":0,"x_max":0,"o":"m 593 0 l 869 0 l 581 374 l 853 747 l 579 747 l 325 392 l 325 747 l 85 747 l 85 0 l 325 0 l 325 357 z m 343 828 l 522 828 l 647 1040 l 421 1040 z "},"л":{"ha":949,"x_min":0,"x_max":0,"o":"m 57 0 l 206 0 b 403 207 321 0 389 72 l 442 575 l 624 575 l 624 0 l 864 0 l 864 747 l 224 747 l 174 279 b 93 179 167 214 142 179 l 57 179 z "},"м":{"ha":1056,"x_min":0,"x_max":0,"o":"m 85 0 l 324 0 l 324 372 l 454 0 l 603 0 l 732 371 l 732 0 l 972 0 l 972 747 l 697 747 l 529 211 l 358 747 l 85 747 z "},"н":{"ha":846,"x_min":0,"x_max":0,"o":"m 85 0 l 324 0 l 324 286 l 522 286 l 522 0 l 761 0 l 761 747 l 522 747 l 522 458 l 324 458 l 324 749 l 85 749 z "},"о":{"ha":883,"x_min":0,"x_max":0,"o":"m 442 -17 b 833 374 678 -17 833 138 b 442 764 833 608 678 764 b 50 374 206 764 50 608 b 442 -17 50 138 206 -17 z m 442 160 b 296 374 347 160 296 238 b 442 588 296 508 347 588 b 588 374 535 588 588 508 b 442 160 588 238 535 160 z "},"п":{"ha":871,"x_min":0,"x_max":0,"o":"m 85 0 l 324 0 l 324 575 l 546 575 l 546 0 l 786 0 l 786 747 l 85 747 z "},"р":{"ha":901,"x_min":0,"x_max":0,"o":"m 85 -208 l 324 -208 l 324 106 b 536 -17 365 29 444 -17 b 851 374 740 -17 851 150 b 539 764 851 597 742 764 b 319 638 442 764 363 719 l 317 747 l 85 747 z m 464 160 b 324 374 375 160 324 233 b 464 588 324 514 376 588 b 606 374 551 588 606 506 b 464 160 606 242 551 160 z "},"с":{"ha":858,"x_min":0,"x_max":0,"o":"m 442 -17 b 822 294 654 -17 804 103 l 576 303 b 442 160 567 204 515 160 b 296 374 347 160 296 238 b 442 586 296 508 347 586 b 576 450 514 586 564 540 l 822 461 b 442 764 801 650 649 764 b 50 374 206 764 50 608 b 442 -17 50 138 206 -17 z "},"т":{"ha":829,"x_min":0,"x_max":0,"o":"m 294 0 l 535 0 l 535 575 l 779 575 l 779 747 l 50 747 l 50 575 l 294 575 z "},"у":{"ha":839,"x_min":0,"x_max":0,"o":"m 157 -208 l 314 -208 b 528 -62 432 -208 492 -168 l 810 747 l 568 747 l 425 269 l 271 747 l 29 747 l 289 44 l 351 44 l 339 11 b 261 -36 325 -25 307 -36 l 157 -36 z "},"ў":{"ha":839,"x_min":0,"x_max":0,"o":"m 157 -208 l 314 -208 b 528 -62 432 -208 492 -168 l 810 747 l 568 747 l 425 269 l 271 747 l 29 747 l 289 44 l 351 44 l 339 11 b 261 -36 325 -25 307 -36 l 157 -36 z m 421 817 b 646 1029 556 817 640 893 l 513 1029 b 421 940 507 965 474 940 b 329 1029 368 940 336 965 l 196 1029 b 421 817 201 893 288 817 z "},"ф":{"ha":1046,"x_min":0,"x_max":0,"o":"m 418 -211 l 629 -211 l 629 35 b 997 378 861 63 997 189 b 629 721 997 567 861 693 l 629 986 l 418 986 l 418 722 b 50 378 186 693 50 568 b 418 33 50 188 186 63 z m 288 378 b 418 533 288 456 335 510 l 418 221 b 288 378 335 244 288 300 z m 629 221 l 629 533 b 758 378 711 510 758 454 b 629 221 758 301 711 244 z "},"х":{"ha":933,"x_min":0,"x_max":0,"o":"m 64 0 l 318 0 l 471 238 l 621 0 l 871 0 l 607 378 l 865 747 l 610 747 l 467 521 l 318 747 l 69 747 l 328 378 z "},"ч":{"ha":922,"x_min":0,"x_max":0,"o":"m 599 0 l 838 0 l 838 747 l 599 747 l 599 590 b 449 404 599 472 543 404 b 324 590 369 404 324 472 l 324 747 l 85 747 l 85 524 b 376 222 85 340 197 222 b 599 335 474 222 553 265 z "},"ц":{"ha":1013,"x_min":0,"x_max":0,"o":"m 85 736 l 85 -11 l 703 -11 l 703 -211 l 942 -211 l 942 172 l 786 172 l 786 736 l 546 736 l 546 161 l 324 161 l 324 736 z "},"ш":{"ha":1225,"x_min":0,"x_max":0,"o":"m 85 0 l 1140 0 l 1140 747 l 901 747 l 901 172 l 725 172 l 725 747 l 501 747 l 501 172 l 324 172 l 324 747 l 85 747 z "},"щ":{"ha":1354,"x_min":0,"x_max":0,"o":"m 1058 -211 l 1297 -211 l 1297 172 l 1140 172 l 1140 747 l 901 747 l 901 172 l 725 172 l 725 747 l 501 747 l 501 172 l 324 172 l 324 747 l 85 747 l 85 0 l 1058 0 z "},"џ":{"ha":871,"x_min":0,"x_max":0,"o":"m 317 -211 l 556 -211 l 556 -11 l 786 -11 l 786 736 l 546 736 l 546 161 l 324 161 l 324 736 l 85 736 l 85 -11 l 317 -11 z "},"ь":{"ha":863,"x_min":0,"x_max":0,"o":"m 85 0 l 460 0 b 814 235 693 0 814 79 b 460 479 814 397 693 479 l 324 479 l 324 747 l 85 747 z m 436 157 l 324 157 l 324 315 l 436 315 b 569 235 525 315 569 292 b 436 157 569 182 525 157 z "},"ы":{"ha":1244,"x_min":0,"x_max":0,"o":"m 921 0 l 1161 0 l 1161 747 l 921 747 z m 85 0 l 460 0 b 814 235 693 0 814 79 b 460 479 814 397 693 479 l 324 479 l 324 747 l 85 747 z m 436 157 l 324 157 l 324 315 l 436 315 b 569 235 525 315 569 292 b 436 157 569 182 525 157 z "},"ъ":{"ha":950,"x_min":0,"x_max":0,"o":"m 57 575 l 172 575 l 172 0 l 547 0 b 901 235 781 0 901 79 b 547 479 901 397 781 479 l 411 479 l 411 747 l 57 747 z m 524 157 l 411 157 l 411 315 l 524 315 b 657 235 613 315 657 292 b 524 157 657 182 613 157 z "},"љ":{"ha":1404,"x_min":0,"x_max":0,"o":"m 624 0 l 1000 0 b 1354 235 1233 0 1354 79 b 1000 479 1354 397 1233 479 l 864 479 l 864 747 l 224 747 l 174 279 b 93 179 167 214 142 179 l 57 179 l 57 0 l 206 0 b 403 207 321 0 389 72 l 442 575 l 624 575 z m 976 157 l 864 157 l 864 315 l 976 315 b 1110 235 1065 315 1110 292 b 976 157 1110 182 1065 157 z "},"њ":{"ha":1300,"x_min":0,"x_max":0,"o":"m 85 0 l 324 0 l 324 310 l 522 310 l 522 0 l 897 0 b 1251 235 1131 0 1251 79 b 897 479 1251 397 1131 479 l 761 479 l 761 747 l 522 747 l 522 482 l 324 482 l 324 749 l 85 749 z m 874 157 l 761 157 l 761 315 l 874 315 b 1007 235 963 315 1007 292 b 874 157 1007 182 963 157 z "},"ѕ":{"ha":819,"x_min":0,"x_max":0,"o":"m 421 -17 b 769 213 638 -17 769 64 b 439 447 769 344 682 414 b 314 529 344 461 314 481 b 414 604 314 575 351 604 b 529 493 479 604 521 564 l 767 501 b 417 764 749 658 638 764 b 68 521 182 764 68 667 b 386 289 68 386 142 328 b 524 207 501 269 524 249 b 422 143 524 164 488 143 b 290 243 343 143 303 176 l 50 235 b 421 -17 61 89 179 -17 z "},"є":{"ha":871,"x_min":0,"x_max":0,"o":"m 442 -17 b 819 275 636 -17 776 88 l 571 275 b 442 160 550 200 506 160 b 301 301 365 160 317 210 l 464 301 l 464 446 l 301 446 b 442 586 318 536 365 586 b 572 465 508 586 551 546 l 821 465 b 442 764 779 654 639 764 b 50 374 206 764 50 608 b 442 -17 50 138 206 -17 z "},"э":{"ha":871,"x_min":0,"x_max":0,"o":"m 429 -17 b 821 374 665 -17 821 138 b 429 764 821 608 665 764 b 50 465 232 764 92 654 l 299 465 b 429 586 319 546 363 586 b 569 446 506 586 553 536 l 407 446 l 407 301 l 569 301 b 429 160 554 210 506 160 b 300 275 365 160 321 200 l 51 275 b 429 -17 94 88 235 -17 z "},"і":{"ha":408,"x_min":0,"x_max":0,"o":"m 85 0 l 324 0 l 324 747 l 85 747 z m 81 831 l 326 831 l 326 1008 l 81 1008 z "},"ї":{"ha":408,"x_min":0,"x_max":0,"o":"m 85 0 l 324 0 l 324 747 l 85 747 z m -79 819 l 144 819 l 144 997 l -79 997 z m 238 819 l 463 819 l 463 997 l 238 997 z "},"ј":{"ha":493,"x_min":0,"x_max":0,"o":"m -3 -208 l 139 -208 b 408 43 338 -208 408 -135 l 408 747 l 169 747 l 169 49 b 86 -36 169 -18 143 -36 l -3 -36 z m 167 831 l 413 831 l 413 1008 l 167 1008 z "},"ћ":{"ha":906,"x_min":0,"x_max":0,"o":"m 57 794 l 144 794 l 144 0 l 383 0 l 383 419 b 500 578 383 524 425 578 b 599 426 572 578 599 525 l 599 0 l 838 0 l 838 481 b 583 764 838 646 753 764 b 383 663 499 764 425 731 l 383 794 l 535 794 l 535 915 l 383 915 l 383 986 l 144 986 l 144 915 l 57 915 z "},"ю":{"ha":1236,"x_min":0,"x_max":0,"o":"m 85 0 l 324 0 l 324 288 l 411 288 b 796 -17 444 101 590 -17 b 1188 374 1032 -17 1188 138 b 796 764 1188 608 1032 764 b 411 460 590 764 446 646 l 324 460 l 324 747 l 85 747 z m 796 160 b 650 374 701 160 650 238 b 796 588 650 508 701 588 b 942 374 889 588 942 508 b 796 160 942 238 889 160 z "},"я":{"ha":885,"x_min":0,"x_max":0,"o":"m 258 299 l 85 0 l 325 0 l 469 265 l 563 265 l 563 0 l 800 0 l 800 747 l 461 747 b 119 507 236 747 119 665 b 258 299 119 415 171 344 z m 461 424 b 357 504 394 424 357 453 b 461 588 357 557 394 588 l 563 588 l 563 424 z "},"ђ":{"ha":922,"x_min":0,"x_max":0,"o":"m 144 0 l 383 0 l 383 396 b 499 574 383 510 421 574 b 599 396 578 574 599 510 l 599 54 b 521 -35 599 0 568 -35 l 476 -35 l 476 -208 l 571 -208 b 838 54 754 -208 838 -121 l 838 481 b 590 764 838 647 744 764 b 383 656 503 764 426 735 l 383 807 l 535 807 l 535 928 l 383 928 l 383 1000 l 144 1000 l 144 928 l 57 928 l 57 807 l 144 807 z "},"ѣ":{"ha":972,"x_min":0,"x_max":0,"o":"m 193 0 l 568 0 b 922 249 794 0 922 89 b 568 507 922 415 796 507 l 433 507 l 433 739 l 568 739 l 568 867 l 433 867 l 433 1000 l 193 1000 l 193 867 l 57 867 l 57 739 l 193 739 z m 544 157 l 433 157 l 433 344 l 544 344 b 678 249 628 344 678 310 b 544 157 678 190 629 157 z "},"ѫ":{"ha":1072,"x_min":0,"x_max":0,"o":"m 157 267 l 64 0 l 294 0 l 354 226 b 428 290 365 269 385 286 l 428 0 l 647 0 l 647 290 b 719 226 690 286 708 268 l 779 0 l 1010 0 l 917 267 b 746 390 893 336 829 381 l 943 582 l 943 747 l 132 747 l 132 582 l 329 392 b 157 267 246 381 181 336 z m 347 582 l 728 582 l 538 397 z "},"ѳ":{"ha":883,"x_min":0,"x_max":0,"o":"m 442 -17 b 833 374 678 -17 833 138 b 442 764 833 608 678 764 b 50 374 206 764 50 608 b 442 -17 50 138 206 -17 z m 442 160 b 300 311 363 160 314 214 l 311 314 b 439 293 346 322 381 317 b 569 256 497 268 538 257 b 442 160 547 193 503 160 z m 311 486 b 442 588 333 551 378 588 b 585 425 522 588 572 528 b 431 460 549 418 514 424 b 311 486 385 481 346 489 z "},"ѵ":{"ha":917,"x_min":0,"x_max":0,"o":"m 303 0 l 576 0 l 753 479 b 874 575 776 544 817 575 l 888 575 l 888 747 l 819 747 b 532 525 685 747 581 674 l 440 238 l 274 747 l 29 747 z "},"җ":{"ha":1467,"x_min":0,"x_max":0,"o":"m 1165 -211 l 1404 -211 l 1404 104 l 1293 104 l 1081 374 l 1361 747 l 1071 747 l 840 421 l 840 747 l 601 747 l 601 417 l 368 747 l 78 747 l 357 374 l 64 0 l 354 0 l 601 332 l 601 0 l 840 0 l 840 329 l 1085 0 l 1165 0 z "},"қ":{"ha":982,"x_min":0,"x_max":0,"o":"m 681 -211 l 919 -211 l 919 104 l 789 104 l 581 374 l 853 747 l 579 747 l 325 392 l 325 747 l 85 747 l 85 0 l 325 0 l 325 357 l 593 0 l 681 0 z "},"ң":{"ha":978,"x_min":0,"x_max":0,"o":"m 654 -211 l 893 -211 l 893 104 l 761 104 l 761 747 l 522 747 l 522 458 l 324 458 l 324 749 l 85 749 l 85 0 l 324 0 l 324 286 l 522 286 l 522 0 l 654 0 z "},"ү":{"ha":881,"x_min":0,"x_max":0,"o":"m 321 0 l 321 -208 l 560 -208 l 560 0 l 851 747 l 607 747 l 440 243 l 274 747 l 29 747 z "},"ұ":{"ha":881,"x_min":0,"x_max":0,"o":"m 160 -86 l 321 -86 l 321 -208 l 560 -208 l 560 -86 l 719 -86 l 719 86 l 593 86 l 851 747 l 607 747 l 440 243 l 274 747 l 29 747 l 288 86 l 160 86 z "},"ҳ":{"ha":997,"x_min":0,"x_max":0,"o":"m 696 -211 l 935 -211 l 935 104 l 799 104 l 607 378 l 865 747 l 610 747 l 467 521 l 318 747 l 69 747 l 328 378 l 64 0 l 318 0 l 471 238 l 621 0 l 696 0 z "},"ҷ":{"ha":1029,"x_min":0,"x_max":0,"o":"m 726 -208 l 965 -208 l 965 104 l 838 104 l 838 747 l 599 747 l 599 590 b 449 404 599 472 543 404 b 324 590 369 404 324 472 l 324 747 l 85 747 l 85 524 b 376 222 85 340 197 222 b 599 335 474 222 553 265 l 599 0 l 726 0 z "},"һ":{"ha":863,"x_min":0,"x_max":0,"o":"m 85 0 l 324 0 l 324 419 b 440 578 324 524 365 578 b 539 426 513 578 539 525 l 539 0 l 778 0 l 778 481 b 524 764 778 646 693 764 b 324 663 439 764 365 731 l 324 986 l 85 986 z "},"ӏ":{"ha":428,"x_min":0,"x_max":0,"o":"m 94 0 l 333 0 l 333 986 l 94 986 z "},"ә":{"ha":865,"x_min":0,"x_max":0,"o":"m 426 764 b 60 524 240 764 101 679 l 299 510 b 422 590 317 567 361 590 b 569 436 508 590 565 540 l 50 436 l 50 392 b 428 -17 50 140 196 -17 b 815 374 663 -17 815 139 b 426 764 815 610 663 764 z m 290 300 l 569 300 b 428 153 561 207 507 153 b 290 300 349 153 296 201 z "},"ӣ":{"ha":838,"x_min":0,"x_max":0,"o":"m 85 0 l 304 0 l 515 388 l 515 0 l 754 0 l 754 747 l 540 747 l 324 347 l 324 747 l 85 747 z m 206 835 l 635 835 l 635 1004 l 206 1004 z "},"ө":{"ha":883,"x_min":0,"x_max":0,"o":"m 442 -17 b 833 374 678 -17 833 138 b 442 764 833 608 678 764 b 50 374 206 764 50 608 b 442 -17 50 138 206 -17 z m 442 160 b 304 288 369 160 322 206 l 579 288 b 442 160 561 206 513 160 z m 304 460 b 442 588 322 542 369 588 b 579 460 513 588 560 542 z "},"ӯ":{"ha":839,"x_min":0,"x_max":0,"o":"m 157 -208 l 314 -208 b 528 -62 432 -208 492 -168 l 810 747 l 568 747 l 425 269 l 271 747 l 29 747 l 289 44 l 351 44 l 339 11 b 261 -36 325 -25 307 -36 l 157 -36 z m 207 835 l 636 835 l 636 1004 l 207 1004 z "},"Λ":{"ha":1046,"x_min":0,"x_max":0,"o":"m 36 0 l 275 0 l 524 725 l 771 0 l 1010 0 l 654 986 l 392 986 z "},"Ω":{"ha":1074,"x_min":0,"x_max":0,"o":"m 54 0 l 485 0 l 485 197 b 299 506 379 207 299 339 b 538 811 299 690 389 811 b 776 506 686 811 776 690 b 590 197 776 339 697 207 l 590 0 l 1021 0 l 1021 197 l 810 193 b 1022 558 935 247 1022 378 b 538 1008 1022 810 835 1008 b 53 558 240 1008 53 810 b 265 193 53 378 142 247 l 54 197 z "},"λ":{"ha":940,"x_min":0,"x_max":0,"o":"m 776 -1 l 904 0 l 904 172 l 854 172 b 761 267 803 172 789 201 l 551 785 b 314 986 496 918 436 986 l 160 986 l 160 814 l 232 814 b 333 719 289 814 306 785 l 347 686 l 36 0 l 282 0 l 461 406 l 544 201 b 776 -1 600 64 657 -1 z "},"π":{"ha":939,"x_min":0,"x_max":0,"o":"m 836 0 l 901 0 l 901 172 l 849 172 b 768 261 797 172 768 207 l 768 574 l 903 574 l 903 747 l 50 747 l 50 574 l 189 574 l 189 0 l 383 0 l 383 574 l 574 574 l 574 261 b 836 0 574 89 658 0 z "},"ℇ":{"ha":835,"x_min":0,"x_max":0,"o":"m 410 -22 b 786 140 565 -22 714 42 l 678 290 b 425 144 604 197 508 144 b 243 294 314 144 243 204 b 425 438 243 385 314 440 l 483 436 l 483 597 l 425 596 b 276 726 350 594 276 639 b 425 842 276 794 336 842 b 643 710 499 842 585 789 l 761 856 b 410 1008 669 954 543 1008 b 81 747 213 1008 81 901 b 260 526 81 640 147 560 b 47 279 125 496 47 406 b 410 -22 47 101 196 -22 z "},"⓿":{"ha":1125,"x_min":0,"x_max":0,"o":"m 563 206 b 788 493 696 206 788 317 b 563 783 788 671 696 783 b 338 493 429 783 338 671 b 563 206 338 317 429 206 z m 563 313 b 510 329 543 313 525 318 l 663 575 b 671 493 668 551 671 524 b 563 313 671 378 632 313 z m 615 660 l 463 415 b 454 493 457 438 454 464 b 563 676 454 611 493 676 b 615 660 582 676 600 671 z m 563 -17 b 50 497 279 -17 50 213 b 563 1008 50 779 279 1008 b 1075 497 846 1008 1075 779 b 563 -17 1075 213 846 -17 z "},"❶":{"ha":1125,"x_min":0,"x_max":0,"o":"m 563 -17 b 50 497 279 -17 50 213 b 563 1008 50 779 279 1008 b 1075 497 846 1008 1075 779 b 563 -17 1075 213 846 -17 z m 511 224 l 632 224 l 632 763 l 536 763 b 403 619 536 671 489 619 l 371 619 l 371 544 l 511 544 z "},"❷":{"ha":1125,"x_min":0,"x_max":0,"o":"m 563 -17 b 50 497 279 -17 50 213 b 563 1008 50 779 279 1008 b 1075 497 846 1008 1075 779 b 563 -17 1075 213 846 -17 z m 368 222 l 758 222 l 758 329 l 508 329 b 594 414 517 357 551 386 l 633 440 b 756 618 713 492 756 549 b 574 779 756 713 675 779 b 376 601 474 779 389 708 l 497 596 b 574 672 507 646 533 672 b 635 617 611 672 635 650 b 571 532 635 583 611 558 l 526 503 b 368 222 389 413 368 308 z "},"❸":{"ha":1125,"x_min":0,"x_max":0,"o":"m 563 -17 b 50 497 279 -17 50 213 b 563 1008 50 779 279 1008 b 1075 497 846 1008 1075 779 b 563 -17 1075 213 846 -17 z m 567 206 b 767 369 679 206 767 278 b 640 518 767 440 714 503 b 746 640 704 533 746 585 b 561 785 746 724 668 785 b 375 639 467 785 386 724 l 494 633 b 561 678 497 658 524 678 b 625 619 599 678 625 653 b 557 561 625 589 597 561 l 521 561 l 521 464 l 557 464 b 647 386 608 464 647 429 b 567 313 647 344 613 313 b 478 372 519 313 481 339 l 358 368 b 567 206 364 276 454 206 z "},"❹":{"ha":1125,"x_min":0,"x_max":0,"o":"m 563 -17 b 50 497 279 -17 50 213 b 563 1008 50 779 279 1008 b 1075 497 846 1008 1075 779 b 563 -17 1075 213 846 -17 z m 563 224 l 682 224 l 682 319 l 735 319 l 735 425 l 682 425 l 682 763 l 578 763 l 319 422 l 319 319 l 563 319 z m 458 425 l 563 564 l 563 425 z "},"❺":{"ha":1125,"x_min":0,"x_max":0,"o":"m 563 -17 b 50 497 279 -17 50 213 b 563 1008 50 779 279 1008 b 1075 497 846 1008 1075 779 b 563 -17 1075 213 846 -17 z m 558 201 b 763 400 671 201 763 283 b 586 592 763 508 683 592 b 501 563 554 592 522 582 l 514 657 l 735 657 l 735 764 l 414 764 l 368 444 l 481 444 b 561 494 501 482 531 494 b 644 400 608 494 644 453 b 561 308 644 346 608 308 b 481 368 521 308 485 332 l 361 364 b 558 201 369 268 457 201 z "},"❻":{"ha":1125,"x_min":0,"x_max":0,"o":"m 563 -17 b 50 497 279 -17 50 213 b 563 1008 50 779 279 1008 b 1075 497 846 1008 1075 779 b 563 -17 1075 213 846 -17 z m 561 206 b 763 401 678 206 763 283 b 585 594 763 517 688 594 b 482 546 540 594 506 575 b 576 683 492 626 524 683 b 640 635 610 683 633 667 l 758 644 b 582 782 743 726 668 782 b 364 461 440 782 364 639 b 561 206 364 318 438 206 z m 565 313 b 489 401 519 313 488 349 b 567 488 490 453 522 488 b 643 401 615 488 643 453 b 565 313 643 349 613 313 z "},"❼":{"ha":1125,"x_min":0,"x_max":0,"o":"m 563 -17 b 50 497 279 -17 50 213 b 563 1008 50 779 279 1008 b 1075 497 846 1008 1075 779 b 563 -17 1075 213 846 -17 z m 483 224 l 603 224 b 754 679 603 397 647 553 l 754 763 l 371 763 l 371 656 l 629 656 b 483 224 535 528 483 371 z "},"❽":{"ha":1125,"x_min":0,"x_max":0,"o":"m 563 -17 b 50 497 279 -17 50 213 b 563 1008 50 779 279 1008 b 1075 497 846 1008 1075 779 b 563 -17 1075 213 846 -17 z m 563 206 b 774 372 686 206 774 272 b 656 518 774 440 731 493 b 747 633 713 538 747 579 b 563 782 747 721 669 782 b 378 633 456 782 378 721 b 471 518 378 579 413 538 b 351 372 393 494 351 442 b 563 206 351 272 439 206 z m 563 313 b 471 390 508 313 471 344 b 563 474 471 438 508 474 b 656 390 617 474 656 438 b 563 313 656 344 617 313 z m 563 551 b 497 615 524 551 497 578 b 563 675 497 650 524 675 b 629 615 601 675 629 650 b 563 551 629 578 601 551 z "},"❾":{"ha":1125,"x_min":0,"x_max":0,"o":"m 563 -17 b 50 497 279 -17 50 213 b 563 1008 50 779 279 1008 b 1075 497 846 1008 1075 779 b 563 -17 1075 213 846 -17 z m 544 206 b 763 526 676 206 763 333 b 565 782 763 669 689 782 b 364 586 449 782 364 704 b 542 393 364 471 439 393 b 644 442 586 393 621 413 b 549 304 633 354 599 304 b 486 353 517 304 493 321 l 367 343 b 544 206 383 261 458 206 z m 560 500 b 483 586 511 500 483 535 b 561 675 483 639 513 675 b 638 586 607 675 639 639 b 560 500 636 535 603 500 z "},"⓪":{"ha":1179,"x_min":0,"x_max":0,"o":"m 590 -43 b 1129 497 888 -43 1129 197 b 590 1035 1129 794 888 1035 b 50 497 292 1035 50 794 b 590 -43 50 197 292 -43 z m 590 79 b 174 497 360 79 174 265 b 590 913 174 726 360 913 b 1007 497 821 913 1007 726 b 590 79 1007 265 821 79 z m 590 206 b 815 493 724 206 815 317 b 590 783 815 671 724 783 b 365 493 457 783 365 671 b 590 206 365 317 457 206 z m 590 313 b 538 329 571 313 553 318 l 690 575 b 699 493 696 551 699 524 b 590 313 699 378 660 313 z m 643 660 l 490 415 b 482 493 485 438 482 464 b 590 676 482 611 521 676 b 643 660 610 676 628 671 z "},"①":{"ha":1179,"x_min":0,"x_max":0,"o":"m 590 -43 b 1129 497 888 -43 1129 197 b 590 1035 1129 794 888 1035 b 50 497 292 1035 50 794 b 590 -43 50 197 292 -43 z m 590 79 b 174 497 360 79 174 265 b 590 913 174 726 360 913 b 1007 497 821 913 1007 726 b 590 79 1007 265 821 79 z m 546 224 l 667 224 l 667 763 l 571 763 b 438 619 571 671 524 619 l 406 619 l 406 544 l 546 544 z "},"②":{"ha":1179,"x_min":0,"x_max":0,"o":"m 590 -43 b 1129 497 888 -43 1129 197 b 590 1035 1129 794 888 1035 b 50 497 292 1035 50 794 b 590 -43 50 197 292 -43 z m 590 79 b 174 497 360 79 174 265 b 590 913 174 726 360 913 b 1007 497 821 913 1007 726 b 590 79 1007 265 821 79 z m 394 222 l 785 222 l 785 329 l 535 329 b 621 414 543 357 578 386 l 660 440 b 782 618 739 492 782 549 b 600 779 782 713 701 779 b 403 601 500 779 415 708 l 524 596 b 600 672 533 646 560 672 b 661 617 638 672 661 650 b 597 532 661 583 638 558 l 553 503 b 394 222 415 413 394 308 z "},"③":{"ha":1179,"x_min":0,"x_max":0,"o":"m 590 -43 b 1129 497 888 -43 1129 197 b 590 1035 1129 794 888 1035 b 50 497 292 1035 50 794 b 590 -43 50 197 292 -43 z m 590 79 b 174 497 360 79 174 265 b 590 913 174 726 360 913 b 1007 497 821 913 1007 726 b 590 79 1007 265 821 79 z m 594 206 b 794 369 707 206 794 278 b 668 518 794 440 742 503 b 774 640 732 533 774 585 b 589 785 774 724 696 785 b 403 639 494 785 414 724 l 522 633 b 589 678 525 658 551 678 b 653 619 626 678 653 653 b 585 561 653 589 625 561 l 549 561 l 549 464 l 585 464 b 675 386 636 464 675 429 b 594 313 675 344 640 313 b 506 372 547 313 508 339 l 386 368 b 594 206 392 276 482 206 z "},"④":{"ha":1179,"x_min":0,"x_max":0,"o":"m 590 -43 b 1129 497 888 -43 1129 197 b 590 1035 1129 794 888 1035 b 50 497 292 1035 50 794 b 590 -43 50 197 292 -43 z m 590 79 b 174 497 360 79 174 265 b 590 913 174 726 360 913 b 1007 497 821 913 1007 726 b 590 79 1007 265 821 79 z m 590 224 l 710 224 l 710 319 l 763 319 l 763 425 l 710 425 l 710 763 l 606 763 l 347 422 l 347 319 l 590 319 z m 486 425 l 590 564 l 590 425 z "},"⑤":{"ha":1179,"x_min":0,"x_max":0,"o":"m 590 -43 b 1129 497 888 -43 1129 197 b 590 1035 1129 794 888 1035 b 50 497 292 1035 50 794 b 590 -43 50 197 292 -43 z m 590 79 b 174 497 360 79 174 265 b 590 913 174 726 360 913 b 1007 497 821 913 1007 726 b 590 79 1007 265 821 79 z m 586 201 b 790 400 699 201 790 283 b 614 592 790 508 711 592 b 529 563 582 592 550 582 l 542 657 l 763 657 l 763 764 l 442 764 l 396 444 l 508 444 b 589 494 529 482 558 494 b 672 400 636 494 672 453 b 589 308 672 346 636 308 b 508 368 549 308 513 332 l 389 364 b 586 201 397 268 485 201 z "},"⑥":{"ha":1179,"x_min":0,"x_max":0,"o":"m 590 -43 b 1129 497 888 -43 1129 197 b 590 1035 1129 794 888 1035 b 50 497 292 1035 50 794 b 590 -43 50 197 292 -43 z m 590 79 b 174 497 360 79 174 265 b 590 913 174 726 360 913 b 1007 497 821 913 1007 726 b 590 79 1007 265 821 79 z m 588 206 b 789 401 704 206 789 283 b 611 594 789 517 714 594 b 508 546 567 594 532 575 b 603 683 518 626 550 683 b 667 635 636 683 660 667 l 785 644 b 608 782 769 726 694 782 b 390 461 467 782 390 639 b 588 206 390 318 464 206 z m 592 313 b 515 401 546 313 514 349 b 593 488 517 453 549 488 b 669 401 642 488 669 453 b 592 313 669 349 639 313 z "},"⑦":{"ha":1179,"x_min":0,"x_max":0,"o":"m 590 -43 b 1129 497 888 -43 1129 197 b 590 1035 1129 794 888 1035 b 50 497 292 1035 50 794 b 590 -43 50 197 292 -43 z m 590 79 b 174 497 360 79 174 265 b 590 913 174 726 360 913 b 1007 497 821 913 1007 726 b 590 79 1007 265 821 79 z m 511 224 l 631 224 b 782 679 631 397 675 553 l 782 763 l 399 763 l 399 656 l 657 656 b 511 224 563 528 511 371 z "},"⑧":{"ha":1179,"x_min":0,"x_max":0,"o":"m 590 -43 b 1129 497 888 -43 1129 197 b 590 1035 1129 794 888 1035 b 50 497 292 1035 50 794 b 590 -43 50 197 292 -43 z m 590 79 b 174 497 360 79 174 265 b 590 913 174 726 360 913 b 1007 497 821 913 1007 726 b 590 79 1007 265 821 79 z m 590 206 b 801 372 714 206 801 272 b 683 518 801 440 758 493 b 775 633 740 538 775 579 b 590 782 775 721 697 782 b 406 633 483 782 406 721 b 499 518 406 579 440 538 b 379 372 421 494 379 442 b 590 206 379 272 467 206 z m 590 313 b 499 390 536 313 499 344 b 590 474 499 438 536 474 b 683 390 644 474 683 438 b 590 313 683 344 644 313 z m 590 551 b 525 615 551 551 525 578 b 590 675 525 650 551 675 b 657 615 629 675 657 650 b 590 551 657 578 629 551 z "},"⑨":{"ha":1179,"x_min":0,"x_max":0,"o":"m 590 -43 b 1129 497 888 -43 1129 197 b 590 1035 1129 794 888 1035 b 50 497 292 1035 50 794 b 590 -43 50 197 292 -43 z m 590 79 b 174 497 360 79 174 265 b 590 913 174 726 360 913 b 1007 497 821 913 1007 726 b 590 79 1007 265 821 79 z m 571 206 b 789 526 703 206 789 333 b 592 782 789 669 715 782 b 390 586 475 782 390 704 b 568 393 390 471 465 393 b 671 442 613 393 647 413 b 575 304 660 354 625 304 b 513 353 543 304 519 321 l 393 343 b 571 206 410 261 485 206 z m 586 500 b 510 586 538 500 510 535 b 588 675 510 639 539 675 b 664 586 633 675 665 639 b 586 500 663 535 629 500 z "},"⁄":{"ha":833,"x_min":0,"x_max":0,"o":"m 15 0 l 169 0 l 817 986 l 663 986 z "},"½":{"ha":1181,"x_min":0,"x_max":0,"o":"m 204 0 l 358 0 l 1006 986 l 851 986 z m 193 449 l 314 449 l 314 988 l 218 988 b 85 844 218 896 171 844 l 53 844 l 53 769 l 193 769 z m 738 0 l 1128 0 l 1128 107 l 878 107 b 964 192 886 135 921 164 l 1003 218 b 1125 396 1082 269 1125 326 b 943 557 1125 490 1044 557 b 746 379 843 557 758 486 l 867 374 b 943 450 876 424 903 450 b 1004 394 981 450 1004 428 b 940 310 1004 361 981 336 l 896 281 b 738 0 758 190 738 86 z "},"⅓":{"ha":1144,"x_min":0,"x_max":0,"o":"m 146 0 l 300 0 l 947 986 l 793 986 z m 193 449 l 314 449 l 314 988 l 218 988 b 85 844 218 896 171 844 l 53 844 l 53 769 l 193 769 z m 892 -22 b 1092 142 1004 -22 1092 50 b 965 290 1092 213 1039 275 b 1071 413 1029 306 1071 357 b 886 557 1071 496 993 557 b 700 411 792 557 711 496 l 819 406 b 886 450 822 431 849 450 b 950 392 924 450 950 425 b 882 333 950 361 922 333 l 846 333 l 846 236 l 882 236 b 972 158 933 236 972 201 b 892 85 972 117 938 85 b 803 144 844 85 806 111 l 683 140 b 892 -22 689 49 779 -22 z "},"⅔":{"ha":1224,"x_min":0,"x_max":0,"o":"m 225 0 l 379 0 l 1026 986 l 872 986 z m 971 -22 b 1171 142 1083 -22 1171 50 b 1044 290 1171 213 1118 275 b 1150 413 1108 306 1150 357 b 965 557 1150 496 1072 557 b 779 411 871 557 790 496 l 899 406 b 965 450 901 431 928 450 b 1029 392 1003 450 1029 425 b 961 333 1029 361 1001 333 l 925 333 l 925 236 l 961 236 b 1051 158 1013 236 1051 201 b 971 85 1051 117 1017 85 b 882 144 924 85 885 111 l 763 140 b 971 -22 768 49 858 -22 z m 53 451 l 443 451 l 443 558 l 193 558 b 279 643 201 586 236 615 l 318 669 b 440 847 397 721 440 778 b 258 1008 440 942 360 1008 b 61 831 158 1008 74 938 l 182 825 b 258 901 192 875 218 901 b 319 846 296 901 319 879 b 256 761 319 813 296 788 l 211 732 b 53 451 74 642 53 538 z "},"¼":{"ha":1086,"x_min":0,"x_max":0,"o":"m 167 0 l 321 0 l 968 986 l 814 986 z m 193 449 l 314 449 l 314 988 l 218 988 b 85 844 218 896 171 844 l 53 844 l 53 769 l 193 769 z m 872 0 l 992 0 l 992 96 l 1044 96 l 1044 201 l 992 201 l 992 539 l 888 539 l 629 199 l 629 96 l 872 96 z m 768 201 l 872 340 l 872 201 z "},"¾":{"ha":1176,"x_min":0,"x_max":0,"o":"m 261 0 l 415 0 l 1063 986 l 908 986 z m 963 0 l 1082 0 l 1082 96 l 1135 96 l 1135 201 l 1082 201 l 1082 539 l 978 539 l 719 199 l 719 96 l 963 96 z m 858 201 l 963 340 l 963 201 z m 261 429 b 461 593 374 429 461 501 b 335 742 461 664 408 726 b 440 864 399 757 440 808 b 256 1008 440 947 363 1008 b 69 863 161 1008 81 947 l 189 857 b 256 901 192 882 218 901 b 319 843 293 901 319 876 b 251 785 319 813 292 785 l 215 785 l 215 688 l 251 688 b 342 610 303 688 342 653 b 261 536 342 568 307 536 b 172 596 214 536 175 563 l 53 592 b 261 429 58 500 149 429 z "},"⅕":{"ha":1226,"x_min":0,"x_max":0,"o":"m 196 0 l 350 0 l 997 986 l 843 986 z m 193 449 l 314 449 l 314 988 l 218 988 b 85 844 218 896 171 844 l 53 844 l 53 769 l 193 769 z m 969 -22 b 1174 176 1082 -22 1174 60 b 997 368 1174 285 1094 368 b 913 339 965 368 933 358 l 925 433 l 1146 433 l 1146 540 l 825 540 l 779 221 l 892 221 b 972 271 913 258 942 271 b 1056 176 1019 271 1056 229 b 972 85 1056 122 1019 85 b 892 144 932 85 896 108 l 772 140 b 969 -22 781 44 868 -22 z "},"⅛":{"ha":1124,"x_min":0,"x_max":0,"o":"m 121 0 l 275 0 l 922 986 l 768 986 z m 193 449 l 314 449 l 314 988 l 218 988 b 85 844 218 896 171 844 l 53 844 l 53 769 l 193 769 z m 860 -22 b 1071 144 983 -22 1071 44 b 953 290 1071 213 1028 265 b 1044 406 1010 310 1044 351 b 860 554 1044 493 967 554 b 675 406 753 554 675 493 b 768 290 675 351 710 310 b 649 144 690 267 649 214 b 860 -22 649 44 736 -22 z m 860 85 b 768 163 806 85 768 117 b 860 246 768 210 806 246 b 953 163 914 246 953 210 b 860 85 953 117 914 85 z m 860 324 b 794 388 821 324 794 350 b 860 447 794 422 821 447 b 926 388 899 447 926 422 b 860 324 926 350 899 324 z "},"⅜":{"ha":1228,"x_min":0,"x_max":0,"o":"m 218 0 l 372 0 l 1019 986 l 865 986 z m 261 429 b 461 593 374 429 461 501 b 335 742 461 664 408 726 b 440 864 399 757 440 808 b 256 1008 440 947 363 1008 b 69 863 161 1008 81 947 l 189 857 b 256 901 192 882 218 901 b 319 843 293 901 319 876 b 251 785 319 813 292 785 l 215 785 l 215 688 l 251 688 b 342 610 303 688 342 653 b 261 536 342 568 307 536 b 172 596 214 536 175 563 l 53 592 b 261 429 58 500 149 429 z m 964 -22 b 1175 144 1088 -22 1175 44 b 1057 290 1175 213 1132 265 b 1149 406 1114 310 1149 351 b 964 554 1149 493 1071 554 b 779 406 857 554 779 493 b 872 290 779 351 814 310 b 753 144 794 267 753 214 b 964 -22 753 44 840 -22 z m 964 85 b 872 163 910 85 872 117 b 964 246 872 210 910 246 b 1057 163 1018 246 1057 210 b 964 85 1057 117 1018 85 z m 964 324 b 899 388 925 324 899 350 b 964 447 899 422 925 447 b 1031 388 1003 447 1031 422 b 964 324 1031 350 1003 324 z "},"⅝":{"ha":1197,"x_min":0,"x_max":0,"o":"m 210 0 l 364 0 l 1011 986 l 857 986 z m 933 -22 b 1144 144 1057 -22 1144 44 b 1026 290 1144 213 1101 265 b 1118 406 1083 310 1118 351 b 933 554 1118 493 1040 554 b 749 406 826 554 749 493 b 842 290 749 351 783 310 b 722 144 764 267 722 214 b 933 -22 722 44 810 -22 z m 933 85 b 842 163 879 85 842 117 b 933 246 842 210 879 246 b 1026 163 988 246 1026 210 b 933 85 1026 117 988 85 z m 933 324 b 868 388 894 324 868 350 b 933 447 868 422 894 447 b 1000 388 972 447 1000 422 b 933 324 1000 350 972 324 z m 250 425 b 454 624 363 425 454 507 b 278 815 454 732 375 815 b 193 786 246 815 214 806 l 206 881 l 426 881 l 426 988 l 106 988 l 60 668 l 172 668 b 253 718 193 706 222 718 b 336 624 300 718 336 676 b 253 532 336 569 300 532 b 172 592 213 532 176 556 l 53 588 b 250 425 61 492 149 425 z "},"⅞":{"ha":1171,"x_min":0,"x_max":0,"o":"m 176 0 l 331 0 l 978 986 l 824 986 z m 907 -22 b 1118 144 1031 -22 1118 44 b 1000 290 1118 213 1075 265 b 1092 406 1057 310 1092 351 b 907 554 1092 493 1014 554 b 722 406 800 554 722 493 b 815 290 722 351 757 310 b 696 144 738 267 696 214 b 907 -22 696 44 783 -22 z m 907 85 b 815 163 853 85 815 117 b 907 246 815 210 853 246 b 1000 163 961 246 1000 210 b 907 85 1000 117 961 85 z m 907 324 b 842 388 868 324 842 350 b 907 447 842 422 868 447 b 974 388 946 447 974 422 b 907 324 974 350 946 324 z m 165 447 l 285 447 b 436 903 285 621 329 776 l 436 986 l 53 986 l 53 879 l 311 879 b 165 447 217 751 165 594 z "},"₀":{"ha":575,"x_min":0,"x_max":0,"o":"m 288 -21 b 513 267 421 -21 513 90 b 288 557 513 444 421 557 b 63 267 154 557 63 444 b 288 -21 63 90 154 -21 z m 288 86 b 235 103 268 86 250 92 l 388 349 b 396 267 393 325 396 297 b 288 86 396 151 357 86 z m 340 433 l 188 189 b 179 267 182 211 179 238 b 288 450 179 385 218 450 b 340 433 307 450 325 444 z "},"₁":{"ha":393,"x_min":0,"x_max":0,"o":"m 182 0 l 303 0 l 303 539 l 207 539 b 74 396 207 447 160 396 l 42 396 l 42 321 l 182 321 z "},"₂":{"ha":515,"x_min":0,"x_max":0,"o":"m 63 0 l 453 0 l 453 107 l 203 107 b 289 192 211 135 246 164 l 328 218 b 450 396 407 269 450 326 b 268 557 450 490 369 557 b 71 379 168 557 83 486 l 192 374 b 268 450 201 424 228 450 b 329 394 306 450 329 428 b 265 310 329 361 306 336 l 221 281 b 63 0 83 190 63 86 z "},"₃":{"ha":540,"x_min":0,"x_max":0,"o":"m 271 -22 b 471 142 383 -22 471 50 b 344 290 471 213 418 275 b 450 413 408 306 450 357 b 265 557 450 496 372 557 b 79 411 171 557 90 496 l 199 406 b 265 450 201 431 228 450 b 329 392 303 450 329 425 b 261 333 329 361 301 333 l 225 333 l 225 236 l 261 236 b 351 158 313 236 351 201 b 271 85 351 117 317 85 b 182 144 224 85 185 111 l 63 140 b 271 -22 68 49 158 -22 z "},"₄":{"ha":515,"x_min":0,"x_max":0,"o":"m 290 0 l 410 0 l 410 96 l 463 96 l 463 201 l 410 201 l 410 539 l 306 539 l 47 199 l 47 96 l 290 96 z m 186 201 l 290 340 l 290 201 z "},"₅":{"ha":519,"x_min":0,"x_max":0,"o":"m 260 -22 b 464 176 372 -22 464 60 b 288 368 464 285 385 368 b 203 339 256 368 224 358 l 215 433 l 436 433 l 436 540 l 115 540 l 69 221 l 182 221 b 263 271 203 258 232 271 b 346 176 310 271 346 229 b 263 85 346 122 310 85 b 182 144 222 85 186 108 l 63 140 b 260 -22 71 44 158 -22 z "},"₆":{"ha":517,"x_min":0,"x_max":0,"o":"m 260 -22 b 461 174 376 -22 461 56 b 283 367 461 289 386 367 b 181 318 239 367 204 347 b 275 456 190 399 222 456 b 339 407 308 456 332 439 l 457 417 b 281 554 442 499 367 554 b 63 233 139 554 63 411 b 260 -22 63 90 136 -22 z m 264 85 b 188 174 218 85 186 121 b 265 260 189 225 221 260 b 342 174 314 260 342 225 b 264 85 342 121 311 85 z "},"₇":{"ha":460,"x_min":0,"x_max":0,"o":"m 154 -1 l 274 -1 b 425 454 274 172 318 328 l 425 538 l 42 538 l 42 431 l 300 431 b 154 -1 206 303 154 146 z "},"₈":{"ha":547,"x_min":0,"x_max":0,"o":"m 274 -22 b 485 144 397 -22 485 44 b 367 290 485 213 442 265 b 458 406 424 310 458 351 b 274 554 458 493 381 554 b 89 406 167 554 89 493 b 182 290 89 351 124 310 b 63 144 104 267 63 214 b 274 -22 63 44 150 -22 z m 274 85 b 182 163 219 85 182 117 b 274 246 182 210 219 246 b 367 163 328 246 367 210 b 274 85 367 117 328 85 z m 274 324 b 208 388 235 324 208 350 b 274 447 208 422 235 447 b 340 388 313 447 340 422 b 274 324 340 350 313 324 z "},"₉":{"ha":524,"x_min":0,"x_max":0,"o":"m 243 -22 b 461 299 375 -22 461 106 b 264 554 461 442 388 554 b 63 358 147 554 63 476 b 240 165 63 243 138 165 b 343 214 285 165 319 185 b 247 76 332 126 297 76 b 185 125 215 76 192 93 l 65 115 b 243 -22 82 33 157 -22 z m 258 272 b 182 358 210 272 182 307 b 260 447 182 411 211 447 b 336 358 306 447 338 411 b 258 272 335 307 301 272 z "},"⁰":{"ha":575,"x_min":0,"x_max":0,"o":"m 288 431 b 513 718 421 431 513 542 b 288 1008 513 896 421 1008 b 63 718 154 1008 63 896 b 288 431 63 542 154 431 z m 288 538 b 235 554 268 538 250 543 l 388 800 b 396 718 393 776 396 749 b 288 538 396 603 357 538 z m 340 885 l 188 640 b 179 718 182 663 179 689 b 288 901 179 836 218 901 b 340 885 307 901 325 896 z "},"¹":{"ha":393,"x_min":0,"x_max":0,"o":"m 182 449 l 303 449 l 303 988 l 207 988 b 74 844 207 896 160 844 l 42 844 l 42 769 l 182 769 z "},"²":{"ha":515,"x_min":0,"x_max":0,"o":"m 63 451 l 453 451 l 453 558 l 203 558 b 289 643 211 586 246 615 l 328 669 b 450 847 407 721 450 778 b 268 1008 450 942 369 1008 b 71 831 168 1008 83 938 l 192 825 b 268 901 201 875 228 901 b 329 846 306 901 329 879 b 265 761 329 813 306 788 l 221 732 b 63 451 83 642 63 538 z "},"³":{"ha":540,"x_min":0,"x_max":0,"o":"m 271 429 b 471 593 383 429 471 501 b 344 742 471 664 418 726 b 450 864 408 757 450 808 b 265 1008 450 947 372 1008 b 79 863 171 1008 90 947 l 199 857 b 265 901 201 882 228 901 b 329 843 303 901 329 876 b 261 785 329 813 301 785 l 225 785 l 225 688 l 261 688 b 351 610 313 688 351 653 b 271 536 351 568 317 536 b 182 596 224 536 185 563 l 63 592 b 271 429 68 500 158 429 z "},"⁴":{"ha":515,"x_min":0,"x_max":0,"o":"m 290 449 l 410 449 l 410 544 l 463 544 l 463 650 l 410 650 l 410 988 l 306 988 l 47 647 l 47 544 l 290 544 z m 186 650 l 290 789 l 290 650 z "},"⁵":{"ha":519,"x_min":0,"x_max":0,"o":"m 260 425 b 464 624 372 425 464 507 b 288 815 464 732 385 815 b 203 786 256 815 224 806 l 215 881 l 436 881 l 436 988 l 115 988 l 69 668 l 182 668 b 263 718 203 706 232 718 b 346 624 310 718 346 676 b 263 532 346 569 310 532 b 182 592 222 532 186 556 l 63 588 b 260 425 71 492 158 425 z "},"⁶":{"ha":517,"x_min":0,"x_max":0,"o":"m 260 432 b 461 628 376 432 461 510 b 283 821 461 743 386 821 b 181 772 239 821 204 801 b 275 910 190 853 222 910 b 339 861 308 910 332 893 l 457 871 b 281 1008 442 953 367 1008 b 63 688 139 1008 63 865 b 260 432 63 544 136 432 z m 264 539 b 188 628 218 539 186 575 b 265 714 189 679 221 714 b 342 628 314 714 342 679 b 264 539 342 575 311 539 z "},"⁷":{"ha":460,"x_min":0,"x_max":0,"o":"m 154 447 l 274 447 b 425 903 274 621 318 776 l 425 986 l 42 986 l 42 879 l 300 879 b 154 447 206 751 154 594 z "},"⁸":{"ha":547,"x_min":0,"x_max":0,"o":"m 274 432 b 485 599 397 432 485 499 b 367 744 485 667 442 719 b 458 860 424 764 458 806 b 274 1008 458 947 381 1008 b 89 860 167 1008 89 947 b 182 744 89 806 124 764 b 63 599 104 721 63 668 b 274 432 63 499 150 432 z m 274 539 b 182 617 219 539 182 571 b 274 700 182 664 219 700 b 367 617 328 700 367 664 b 274 539 367 571 328 539 z m 274 778 b 208 842 235 778 208 804 b 274 901 208 876 235 901 b 340 842 313 901 340 876 b 274 778 340 804 313 778 z "},"⁹":{"ha":524,"x_min":0,"x_max":0,"o":"m 243 432 b 461 753 375 432 461 560 b 264 1008 461 896 388 1008 b 63 813 147 1008 63 931 b 240 619 63 697 138 619 b 343 668 285 619 319 639 b 247 531 332 581 297 531 b 185 579 215 531 192 547 l 65 569 b 243 432 82 488 157 432 z m 258 726 b 182 813 210 726 182 761 b 260 901 182 865 211 901 b 336 813 306 901 338 865 b 258 726 335 761 301 726 z "}," ":{"ha":307,"x_min":0,"x_max":0,"o":""},".":{"ha":349,"x_min":0,"x_max":0,"o":"m 50 0 l 299 0 l 299 232 l 50 232 z "},",":{"ha":349,"x_min":0,"x_max":0,"o":"m 69 -221 l 197 -221 l 299 24 l 299 232 l 50 232 l 50 0 l 147 0 z "},":":{"ha":438,"x_min":0,"x_max":0,"o":"m 94 0 l 343 0 l 343 232 l 94 232 z m 94 478 l 343 478 l 343 710 l 94 710 z "},";":{"ha":438,"x_min":0,"x_max":0,"o":"m 94 478 l 343 478 l 343 710 l 94 710 z m 114 -221 l 242 -221 l 343 24 l 343 232 l 94 232 l 94 0 l 192 0 z "},"…":{"ha":1026,"x_min":0,"x_max":0,"o":"m 50 0 l 299 0 l 299 232 l 50 232 z m 389 0 l 638 0 l 638 232 l 389 232 z m 728 0 l 976 0 l 976 232 l 728 232 z "},"!":{"ha":368,"x_min":0,"x_max":0,"o":"m 103 326 l 268 326 b 306 697 282 418 306 586 l 306 986 l 64 986 l 64 697 b 103 326 64 586 89 418 z m 60 0 l 308 0 l 308 232 l 60 232 z "},"¡":{"ha":368,"x_min":0,"x_max":0,"o":"m 268 435 l 103 435 b 64 64 89 343 64 175 l 64 -225 l 306 -225 l 306 64 b 268 435 306 175 282 343 z m 60 761 l 60 529 l 308 529 l 308 761 z "},"?":{"ha":840,"x_min":0,"x_max":0,"o":"m 296 322 l 531 322 b 619 476 531 407 554 440 b 790 718 746 544 790 594 b 433 1008 790 882 672 1008 b 50 696 197 1008 67 876 l 297 685 b 433 818 307 774 353 818 b 547 718 507 818 547 778 b 433 590 547 661 532 638 b 296 322 332 544 296 476 z m 289 0 l 538 0 l 538 232 l 289 232 z "},"¿":{"ha":840,"x_min":0,"x_max":0,"o":"m 544 461 l 310 461 b 221 307 310 376 286 343 b 50 65 94 239 50 189 b 407 -225 50 -99 168 -225 b 790 88 643 -225 774 -93 l 543 99 b 407 -35 533 10 488 -35 b 293 65 333 -35 293 6 b 407 193 293 122 308 146 b 544 461 508 239 544 307 z m 551 783 l 303 783 l 303 551 l 551 551 z "},"·":{"ha":349,"x_min":0,"x_max":0,"o":"m 50 303 l 299 303 l 299 535 l 50 535 z "},"•":{"ha":488,"x_min":0,"x_max":0,"o":"m 244 217 b 440 408 354 217 440 297 b 244 594 440 518 354 594 b 50 408 136 594 50 518 b 244 217 50 297 136 217 z "},"*":{"ha":586,"x_min":0,"x_max":0,"o":"m 229 496 l 294 614 l 360 496 l 479 564 l 403 676 l 536 674 l 536 829 l 403 828 l 479 940 l 360 1007 l 294 889 l 229 1007 l 108 940 l 183 828 l 50 829 l 50 674 l 183 676 l 108 564 z "},"〃":{"ha":571,"x_min":0,"x_max":0,"o":"m 50 390 l 172 390 l 301 668 l 135 668 z m 269 390 l 392 390 l 521 668 l 354 668 z "},"#":{"ha":869,"x_min":0,"x_max":0,"o":"m 428 0 l 649 0 l 679 211 l 781 211 l 807 400 l 706 400 l 731 575 l 831 575 l 857 764 l 758 764 l 790 986 l 569 986 l 538 764 l 407 764 l 439 986 l 218 986 l 186 764 l 88 764 l 61 575 l 158 575 l 133 400 l 36 400 l 11 211 l 107 211 l 76 0 l 297 0 l 328 211 l 458 211 z m 354 400 l 379 575 l 510 575 l 485 400 z "},"/":{"ha":744,"x_min":0,"x_max":0,"o":"m 40 -153 l 278 -153 l 690 1042 l 451 1042 z "},"\\":{"ha":743,"x_min":0,"x_max":0,"o":"m 696 -153 l 285 1042 l 46 1042 l 458 -153 z "},"-":{"ha":582,"x_min":0,"x_max":0,"o":"m 50 310 l 533 310 l 533 501 l 50 501 z "},"–":{"ha":832,"x_min":0,"x_max":0,"o":"m 50 310 l 783 310 l 783 501 l 50 501 z "},"—":{"ha":1271,"x_min":0,"x_max":0,"o":"m 50 310 l 1222 310 l 1222 501 l 50 501 z "},"_":{"ha":785,"x_min":0,"x_max":0,"o":"m 50 -189 l 736 -189 l 736 0 l 50 0 z "},"〜":{"ha":1211,"x_min":0,"x_max":0,"o":"m 828 289 b 1161 443 942 289 1054 342 l 1046 594 b 828 486 951 510 904 486 b 608 563 771 486 733 492 b 388 625 539 606 453 625 b 50 463 267 625 179 583 l 163 306 b 389 428 233 386 301 428 b 574 371 438 428 504 408 b 828 289 729 286 756 289 z "},"(":{"ha":490,"x_min":0,"x_max":0,"o":"m 239 -153 l 451 -153 b 451 1042 231 246 231 643 l 239 1042 b 239 -153 -10 650 -10 239 z "},")":{"ha":490,"x_min":0,"x_max":0,"o":"m 39 -153 l 251 -153 b 251 1042 500 239 500 650 l 39 1042 b 39 -153 260 643 260 246 z "},"{":{"ha":594,"x_min":0,"x_max":0,"o":"m 490 -179 l 556 -179 l 556 18 b 400 136 450 14 400 54 l 400 213 b 190 435 400 338 314 426 l 190 446 b 400 668 313 454 400 543 l 400 743 b 556 854 400 822 450 858 l 556 1057 l 490 1057 b 172 788 303 1057 172 946 l 172 672 b 53 529 172 558 136 528 l 53 350 b 172 208 136 350 172 321 l 172 93 b 490 -179 172 -65 303 -179 z "},"}":{"ha":594,"x_min":0,"x_max":0,"o":"m 104 -179 b 422 93 292 -179 422 -65 l 422 208 b 542 350 422 321 458 350 l 542 529 b 422 672 458 528 422 558 l 422 788 b 104 1057 422 946 292 1057 l 39 1057 l 39 854 b 194 743 144 858 194 822 l 194 668 b 404 446 194 543 282 454 l 404 435 b 194 213 281 426 194 338 l 194 136 b 39 18 194 54 144 14 l 39 -179 z "},"[":{"ha":586,"x_min":0,"x_max":0,"o":"m 546 -153 l 546 42 l 324 42 l 324 847 l 546 847 l 546 1042 l 94 1042 l 94 -153 z "},"]":{"ha":586,"x_min":0,"x_max":0,"o":"m 40 -153 l 492 -153 l 492 1042 l 40 1042 l 40 847 l 263 847 l 263 42 l 40 42 z "},"〈":{"ha":568,"x_min":0,"x_max":0,"o":"m 281 -158 l 518 -158 l 289 492 l 518 1140 l 281 1140 l 50 492 z "},"〉":{"ha":568,"x_min":0,"x_max":0,"o":"m 288 -158 l 518 492 l 288 1140 l 50 1140 l 279 492 l 50 -158 z "},"【":{"ha":497,"x_min":0,"x_max":0,"o":"m 447 -87 b 447 1146 213 311 213 749 l 50 1146 l 50 -87 z "},"】":{"ha":497,"x_min":0,"x_max":0,"o":"m 50 -87 l 447 -87 l 447 1146 l 50 1146 b 50 -87 285 749 285 311 z "},"「":{"ha":528,"x_min":0,"x_max":0,"o":"m 50 325 l 196 325 l 196 1006 l 478 1006 l 478 1147 l 50 1147 z "},"」":{"ha":528,"x_min":0,"x_max":0,"o":"m 478 679 l 332 679 l 332 -1 l 50 -1 l 50 -143 l 478 -143 z "},"《":{"ha":932,"x_min":0,"x_max":0,"o":"m 281 -158 l 518 -158 l 289 492 l 518 1140 l 281 1140 l 50 492 z m 643 -158 l 881 -158 l 651 492 l 881 1140 l 643 1140 l 413 492 z "},"》":{"ha":932,"x_min":0,"x_max":0,"o":"m 651 -158 l 882 492 l 651 1140 l 414 1140 l 643 492 l 414 -158 z m 288 -158 l 518 492 l 288 1140 l 50 1140 l 279 492 l 50 -158 z "},"〔":{"ha":543,"x_min":0,"x_max":0,"o":"m 399 -203 l 493 -99 l 194 169 l 194 813 l 490 1076 l 396 1181 l 50 871 l 50 111 z "},"〕":{"ha":543,"x_min":0,"x_max":0,"o":"m 144 -203 l 493 111 l 493 871 l 147 1181 l 53 1076 l 349 813 l 349 169 l 50 -99 z "},"『":{"ha":521,"x_min":0,"x_max":0,"o":"m 50 324 l 272 324 l 272 925 l 471 925 l 471 1147 l 50 1147 z m 114 388 l 114 1083 l 407 1083 l 407 989 l 208 989 l 208 388 z "},"』":{"ha":521,"x_min":0,"x_max":0,"o":"m 471 692 l 249 692 l 249 90 l 50 90 l 50 -132 l 471 -132 z m 407 628 l 407 -68 l 114 -68 l 114 26 l 313 26 l 313 628 z "},"〖":{"ha":532,"x_min":0,"x_max":0,"o":"m 482 -87 b 482 1146 247 311 247 749 l 50 1146 l 50 -87 z m 342 -7 l 138 -7 l 138 1065 l 342 1065 b 342 -7 178 710 178 350 z "},"〗":{"ha":532,"x_min":0,"x_max":0,"o":"m 50 -87 l 482 -87 l 482 1146 l 50 1146 b 50 -87 285 749 285 311 z m 190 -7 b 190 1065 354 350 354 710 l 394 1065 l 394 -7 z "},"‚":{"ha":350,"x_min":0,"x_max":0,"o":"m 69 -221 l 197 -221 l 299 24 l 299 232 l 50 232 l 50 0 l 147 0 z "},"„":{"ha":676,"x_min":0,"x_max":0,"o":"m 394 -221 l 522 -221 l 624 24 l 624 232 l 375 232 l 375 0 l 472 0 z m 72 -221 l 200 -221 l 301 24 l 301 232 l 53 232 l 53 0 l 150 0 z "},"“":{"ha":676,"x_min":0,"x_max":0,"o":"m 282 999 l 154 999 l 53 754 l 53 546 l 301 546 l 301 778 l 204 778 z m 604 999 l 476 999 l 375 754 l 375 546 l 624 546 l 624 778 l 526 778 z "},"”":{"ha":676,"x_min":0,"x_max":0,"o":"m 394 540 l 522 540 l 624 785 l 624 993 l 375 993 l 375 761 l 472 761 z m 72 540 l 200 540 l 301 785 l 301 993 l 53 993 l 53 761 l 150 761 z "},"‘":{"ha":354,"x_min":0,"x_max":0,"o":"m 282 999 l 154 999 l 53 754 l 53 546 l 301 546 l 301 778 l 204 778 z "},"’":{"ha":350,"x_min":0,"x_max":0,"o":"m 69 542 l 197 542 l 299 786 l 299 994 l 50 994 l 50 763 l 147 763 z "},"«":{"ha":965,"x_min":0,"x_max":0,"o":"m 519 106 l 283 383 l 519 661 l 264 661 l 50 408 l 50 358 l 264 106 z m 915 106 l 679 383 l 915 661 l 660 661 l 446 408 l 446 358 l 660 106 z "},"»":{"ha":965,"x_min":0,"x_max":0,"o":"m 446 106 l 701 106 l 915 358 l 915 408 l 701 661 l 446 661 l 682 383 z m 51 106 l 307 106 l 521 358 l 521 408 l 307 661 l 51 661 l 288 383 z "},"‹":{"ha":569,"x_min":0,"x_max":0,"o":"m 519 106 l 283 383 l 519 661 l 264 661 l 50 408 l 50 358 l 264 106 z "},"›":{"ha":569,"x_min":0,"x_max":0,"o":"m 50 106 l 306 106 l 519 358 l 519 408 l 306 661 l 50 661 l 286 383 z "},"\"":{"ha":547,"x_min":0,"x_max":0,"o":"m 88 597 l 222 597 l 228 986 l 53 986 l 53 869 z m 328 597 l 464 597 l 496 868 l 496 986 l 321 986 z "},"'":{"ha":281,"x_min":0,"x_max":0,"o":"m 74 597 l 208 597 l 228 867 l 228 986 l 53 986 l 53 867 z "},"ƒ":{"ha":743,"x_min":0,"x_max":0,"o":"m 57 0 l 207 -1 b 440 200 338 -3 426 75 l 476 522 l 700 522 l 700 694 l 496 694 l 499 719 b 583 794 504 768 533 794 l 700 794 l 700 985 l 507 986 b 274 785 379 988 288 906 l 264 694 l 124 694 l 124 522 l 244 522 l 217 265 b 140 189 211 218 183 189 l 57 189 z "},"฿":{"ha":951,"x_min":0,"x_max":0,"o":"m 94 0 l 413 0 l 413 -126 l 528 -126 l 528 1 b 886 279 761 13 886 111 b 635 510 886 418 801 496 l 636 510 b 844 713 768 524 844 597 b 528 982 844 875 736 961 l 528 1118 l 413 1118 l 413 986 l 94 986 z m 336 190 l 336 418 l 413 418 l 413 190 z m 336 585 l 336 796 l 413 796 l 413 585 z m 528 192 l 528 417 b 658 304 617 408 658 371 b 528 192 658 238 615 200 z m 528 592 l 528 788 b 617 689 589 774 617 740 b 528 592 617 638 589 606 z "},"☹":{"ha":1179,"x_min":0,"x_max":0,"o":"m 326 299 l 449 299 b 592 400 471 363 524 400 b 736 299 663 400 713 363 l 858 299 b 592 511 826 428 726 511 b 326 299 458 511 358 428 z m 590 -43 b 1129 497 888 -43 1129 197 b 590 1035 1129 794 888 1035 b 50 497 292 1035 50 794 b 590 -43 50 197 292 -43 z m 590 79 b 174 497 360 79 174 265 b 590 913 174 726 360 913 b 1007 497 821 913 1007 726 b 590 79 1007 265 821 79 z m 460 560 b 536 638 500 560 536 594 b 460 714 536 681 500 714 b 381 638 417 714 381 681 b 460 560 381 594 417 560 z m 726 560 b 803 638 768 560 803 594 b 726 714 803 681 768 714 b 649 638 683 714 649 681 b 726 560 649 594 683 560 z "},"☺":{"ha":1179,"x_min":0,"x_max":0,"o":"m 592 233 b 892 494 744 233 869 343 l 778 494 b 592 344 760 407 683 344 b 406 494 503 344 426 407 l 293 494 b 592 233 315 343 439 233 z m 590 -43 b 1129 497 888 -43 1129 197 b 590 1035 1129 794 888 1035 b 50 497 292 1035 50 794 b 590 -43 50 197 292 -43 z m 590 79 b 174 497 360 79 174 265 b 590 913 174 726 360 913 b 1007 497 821 913 1007 726 b 590 79 1007 265 821 79 z m 460 560 b 536 638 500 560 536 594 b 460 714 536 681 500 714 b 381 638 417 714 381 681 b 460 560 381 594 417 560 z m 726 560 b 803 638 768 560 803 594 b 726 714 803 681 768 714 b 649 638 683 714 649 681 b 726 560 649 594 683 560 z "},"":{"ha":833,"x_min":0,"x_max":0,"o":"m 146 0 l 688 0 b 822 135 765 0 822 57 l 822 676 b 688 811 822 754 765 811 l 146 811 b 11 676 68 811 11 754 l 11 135 b 146 0 11 57 68 0 z m 119 172 l 415 688 l 713 172 z "},"@":{"ha":1356,"x_min":0,"x_max":0,"o":"m 964 -89 l 926 72 b 650 17 833 36 740 17 b 265 382 417 17 265 150 b 733 821 265 636 461 821 b 1124 460 974 821 1124 675 b 1011 242 1124 313 1061 242 b 950 339 964 242 950 293 b 953 393 950 357 951 378 l 978 681 l 839 681 l 835 633 b 678 703 801 676 746 703 b 369 365 490 703 369 551 b 624 117 369 225 461 117 b 826 243 715 117 793 165 b 1001 122 846 164 917 122 b 1303 493 1164 122 1303 260 b 743 986 1303 775 1072 986 b 53 368 371 986 53 733 b 631 -153 53 47 300 -153 b 964 -89 739 -153 850 -132 z m 668 253 b 564 383 596 253 564 311 b 694 556 564 476 614 556 b 799 424 765 556 799 499 b 668 253 799 333 753 253 z "},"&":{"ha":1026,"x_min":0,"x_max":0,"o":"m 417 -22 b 696 36 529 -22 635 1 l 726 0 l 1007 0 l 868 160 b 985 436 933 232 976 333 l 742 460 b 711 335 740 408 729 363 l 578 497 b 793 764 721 575 793 644 b 472 1008 793 901 686 1008 b 154 750 265 1008 154 904 b 257 539 154 663 193 604 b 47 244 108 451 47 369 b 417 -22 47 72 172 -22 z m 435 182 b 296 275 347 182 296 218 b 381 400 296 325 322 364 l 539 207 b 435 182 518 192 483 182 z m 457 632 b 400 739 414 675 400 704 b 476 811 400 781 426 811 b 549 742 522 811 549 785 b 457 632 549 697 519 667 z "},"¶":{"ha":939,"x_min":0,"x_max":0,"o":"m 331 431 l 331 0 l 539 0 l 539 881 l 636 881 l 636 0 l 844 0 l 844 986 l 386 986 b 49 706 179 986 49 878 b 331 431 49 550 156 447 z "},"§":{"ha":856,"x_min":0,"x_max":0,"o":"m 447 -151 b 786 74 651 -151 786 -74 b 678 236 786 144 757 196 b 783 389 750 268 783 319 b 453 628 783 533 660 599 b 331 711 363 649 335 669 b 428 785 328 753 369 785 b 551 679 497 785 542 743 l 788 688 b 435 943 764 851 622 943 b 85 708 217 943 85 860 b 192 557 85 646 117 597 b 86 407 122 522 90 469 b 358 175 79 283 167 211 b 540 78 432 158 540 138 b 439 10 540 38 501 10 b 306 113 367 10 318 46 l 67 101 b 447 -151 81 -56 221 -151 z m 439 326 b 332 401 365 332 332 361 b 426 468 332 442 371 468 b 539 393 476 468 539 446 b 439 326 539 353 499 326 z "},"©":{"ha":1131,"x_min":0,"x_max":0,"o":"m 565 -17 b 1078 497 849 -17 1078 213 b 565 1008 1078 779 849 1008 b 53 497 282 1008 53 779 b 565 -17 53 213 282 -17 z m 565 124 b 193 497 361 124 193 292 b 565 868 193 700 361 868 b 938 497 769 868 938 700 b 565 124 938 292 769 124 z m 571 222 b 833 449 717 222 822 314 l 669 454 b 571 351 663 386 626 351 b 463 497 504 351 463 406 b 571 643 463 590 504 643 b 668 543 622 643 658 607 l 831 550 b 571 771 818 681 713 771 b 300 497 410 771 300 661 b 571 222 300 333 410 222 z "},"®":{"ha":807,"x_min":0,"x_max":0,"o":"m 403 306 b 754 658 597 306 754 463 b 403 1008 754 851 597 1008 b 53 658 208 1008 53 851 b 403 306 53 463 208 306 z m 403 407 b 153 658 267 407 153 521 b 403 908 153 794 267 908 b 653 658 540 908 653 794 b 403 407 653 521 540 407 z m 271 483 l 363 483 l 363 606 l 396 606 l 457 483 l 558 483 l 483 621 b 550 721 526 638 550 676 b 401 836 550 790 490 836 l 271 836 z m 397 681 l 361 681 l 361 754 l 397 754 b 453 718 431 754 453 744 b 397 681 453 692 431 681 z "},"℗":{"ha":807,"x_min":0,"x_max":0,"o":"m 403 306 b 754 658 597 306 754 463 b 403 1008 754 851 597 1008 b 53 658 208 1008 53 851 b 403 306 53 463 208 306 z m 403 407 b 153 658 267 407 153 521 b 403 908 153 794 267 908 b 653 658 540 908 653 794 b 403 407 653 521 540 407 z m 290 483 l 382 483 l 382 606 l 421 606 b 569 721 514 606 569 650 b 419 836 569 792 511 836 l 290 836 z m 417 681 l 381 681 l 381 754 l 417 754 b 472 718 450 754 472 744 b 417 681 472 692 450 681 z "},"™":{"ha":1225,"x_min":0,"x_max":0,"o":"m 778 499 l 899 499 l 1000 768 l 1000 499 l 1131 499 l 1131 986 l 963 986 l 839 650 l 715 986 l 547 986 l 547 499 l 678 499 l 678 764 z m 225 499 l 356 499 l 356 876 l 486 876 l 486 986 l 94 986 l 94 876 l 225 876 z "},"°":{"ha":586,"x_min":0,"x_max":0,"o":"m 293 489 b 535 731 425 489 535 599 b 293 974 535 865 425 974 b 50 731 160 974 50 865 b 293 489 50 599 160 489 z m 293 643 b 204 731 244 643 204 683 b 293 821 204 781 244 821 b 381 731 342 821 381 781 b 293 643 381 683 342 643 z "},"′":{"ha":367,"x_min":0,"x_max":0,"o":"m 50 817 l 229 817 l 354 1029 l 128 1029 z "},"″":{"ha":683,"x_min":0,"x_max":0,"o":"m 50 817 l 229 817 l 354 1029 l 128 1029 z m 329 817 l 508 817 l 633 1029 l 407 1029 z "},"|":{"ha":425,"x_min":0,"x_max":0,"o":"m 94 -208 l 331 -208 l 331 986 l 94 986 z "},"¦":{"ha":425,"x_min":0,"x_max":0,"o":"m 94 493 l 331 493 l 331 986 l 94 986 z m 94 -208 l 331 -208 l 331 285 l 94 285 z "},"†":{"ha":807,"x_min":0,"x_max":0,"o":"m 293 0 l 515 0 l 515 564 l 713 564 l 713 736 l 515 736 l 515 986 l 293 986 l 293 736 l 94 736 l 94 564 l 293 564 z "},"‡":{"ha":815,"x_min":0,"x_max":0,"o":"m 293 -208 l 515 -208 l 515 28 l 721 28 l 721 200 l 515 200 l 515 564 l 713 564 l 713 736 l 515 736 l 515 986 l 293 986 l 293 736 l 94 736 l 94 564 l 293 564 l 293 200 l 103 200 l 103 28 l 293 28 z "},"№":{"ha":1547,"x_min":0,"x_max":0,"o":"m 1228 228 b 1453 469 1363 228 1453 325 b 1228 711 1453 614 1363 711 b 1004 469 1094 711 1004 614 b 1228 228 1004 325 1094 228 z m 94 0 l 336 0 l 336 592 l 696 0 l 951 0 l 951 986 l 710 986 l 710 368 l 349 986 l 94 986 z m 1035 0 l 1422 0 l 1422 142 l 1035 142 z m 1228 343 b 1150 469 1179 343 1150 392 b 1228 594 1150 549 1179 594 b 1308 469 1279 594 1308 549 b 1228 343 1308 392 1279 343 z "},"␌":{"ha":833,"x_min":0,"x_max":0,"o":"m 453 99 l 546 99 l 546 276 l 731 276 l 731 361 l 546 361 l 546 472 l 743 472 l 743 557 l 453 557 z m 101 417 l 196 417 l 196 594 l 381 594 l 381 679 l 196 679 l 196 790 l 393 790 l 393 875 l 101 875 z "},"⏎":{"ha":1271,"x_min":0,"x_max":0,"o":"m 613 -143 l 613 181 l 1218 181 l 1218 986 l 739 986 l 739 658 l 613 658 l 613 979 l 53 419 z m 479 204 l 265 419 l 479 633 l 479 501 l 897 501 l 897 828 l 1060 828 l 1060 338 l 479 338 z "},"␋":{"ha":833,"x_min":0,"x_max":0,"o":"m 204 417 l 296 417 l 436 875 l 346 875 l 250 550 l 154 875 l 64 875 z m 550 99 l 638 99 l 638 472 l 761 472 l 761 557 l 426 557 l 426 472 l 550 472 z "},"¢":{"ha":858,"x_min":0,"x_max":0,"o":"m 329 -126 l 443 -126 l 453 -17 b 822 294 660 -12 804 106 l 576 303 b 468 163 568 217 528 172 l 504 572 b 576 450 542 551 568 511 l 822 461 b 521 758 804 625 686 732 l 531 874 l 417 874 l 407 763 b 50 374 190 749 50 597 b 340 -6 50 174 161 32 z m 296 374 b 390 578 296 482 329 553 l 357 189 b 296 374 317 224 296 286 z "},"¤":{"ha":796,"x_min":0,"x_max":0,"o":"m 397 115 b 564 167 460 115 517 135 l 663 68 l 743 149 l 643 247 b 693 413 675 294 693 351 b 643 578 693 474 675 531 l 743 678 l 663 758 l 564 658 b 397 710 515 690 458 710 b 232 658 336 710 279 690 l 133 758 l 53 678 l 153 579 b 101 413 121 531 101 474 b 151 247 101 351 119 294 l 53 149 l 133 68 l 232 167 b 397 115 279 135 336 115 z m 397 282 b 265 413 325 282 265 340 b 397 543 265 485 325 543 b 528 413 467 543 528 485 b 397 282 528 340 467 282 z "},"$":{"ha":957,"x_min":0,"x_max":0,"o":"m 431 -126 l 547 -126 l 547 -21 b 890 283 761 -6 890 108 b 547 582 890 431 804 528 l 547 797 b 636 657 600 772 631 724 l 876 668 b 547 1003 858 844 750 976 l 547 1118 l 431 1118 l 431 1007 b 85 706 213 994 85 875 b 431 408 85 535 183 463 l 431 181 b 308 339 358 201 321 256 l 67 328 b 431 -19 79 132 208 3 z m 328 714 b 431 811 328 765 365 801 l 431 608 b 328 714 353 632 328 661 z m 547 175 l 547 378 b 647 272 629 350 647 318 b 547 175 647 218 611 186 z "},"€":{"ha":1026,"x_min":0,"x_max":0,"o":"m 590 -22 b 981 343 797 -22 939 117 l 751 356 b 585 175 733 246 671 175 b 408 321 500 175 439 231 l 553 321 l 568 436 l 385 436 l 382 492 l 383 533 l 581 533 l 596 649 l 403 649 b 585 811 433 749 494 811 b 751 644 668 811 729 746 l 978 656 b 590 1008 935 875 792 1008 b 175 649 382 1008 226 861 l 67 649 l 67 533 l 158 533 l 157 492 l 160 436 l 67 436 l 67 321 l 179 321 b 590 -22 233 117 388 -22 z "},"₴":{"ha":1011,"x_min":0,"x_max":0,"o":"m 67 528 l 944 528 l 944 644 l 885 644 b 897 707 892 663 897 686 b 497 1008 897 892 743 1008 b 126 735 314 1008 175 904 l 368 714 b 510 814 397 778 447 814 b 653 703 599 814 657 767 b 621 644 650 679 642 660 l 67 644 z m 489 -17 b 901 247 701 -17 857 83 l 642 260 b 486 181 610 210 556 181 b 347 281 404 181 346 219 b 365 325 349 296 354 311 l 944 325 l 944 442 l 67 442 l 67 325 l 111 325 b 103 281 106 311 103 294 b 489 -17 103 100 256 -17 z "},"₽":{"ha":1018,"x_min":0,"x_max":0,"o":"m 54 133 l 171 133 l 171 0 l 413 0 l 413 133 l 522 133 l 522 247 l 413 247 l 413 326 l 579 326 b 968 657 821 326 968 453 b 579 986 968 861 821 986 l 171 986 l 171 247 l 54 247 z m 563 525 l 413 525 l 413 789 l 563 789 b 721 657 661 789 721 743 b 563 525 721 569 660 525 z "},"₹":{"ha":999,"x_min":0,"x_max":0,"o":"m 460 0 l 744 0 l 379 326 l 443 326 b 826 590 653 326 796 428 l 933 590 l 933 706 l 829 706 b 754 871 821 771 794 826 l 933 871 l 933 986 l 94 986 l 94 789 l 428 789 b 578 706 510 789 560 763 l 94 706 l 94 590 l 576 590 b 428 508 557 535 508 508 l 94 508 l 94 326 z "},"₪":{"ha":1254,"x_min":0,"x_max":0,"o":"m 393 0 l 953 0 b 1160 208 1081 0 1160 81 l 1160 986 l 965 986 l 965 201 b 882 117 965 150 933 117 l 572 117 l 572 771 l 393 771 z m 94 0 l 289 0 l 289 869 l 590 869 b 674 785 642 869 674 836 l 674 215 l 861 215 l 861 778 b 653 986 861 906 781 986 l 94 986 z "},"£":{"ha":911,"x_min":0,"x_max":0,"o":"m 68 171 l 68 0 l 850 4 l 850 201 l 314 201 b 460 428 406 242 457 332 l 647 428 l 647 544 l 446 544 b 396 706 425 610 396 646 b 500 811 396 768 444 811 b 604 718 553 811 594 778 l 867 728 b 500 1008 838 897 711 1008 b 160 735 299 1008 160 897 b 192 571 160 692 172 632 l 200 544 l 67 544 l 67 428 l 225 428 b 226 386 226 414 226 400 b 68 171 226 297 175 219 z "},"¥":{"ha":994,"x_min":0,"x_max":0,"o":"m 192 174 l 376 174 l 376 0 l 619 0 l 619 174 l 806 174 l 806 300 l 619 300 l 619 374 l 806 374 l 806 500 l 689 500 l 960 986 l 696 986 l 499 610 l 300 986 l 36 986 l 307 500 l 192 500 l 192 374 l 376 374 l 376 300 l 192 300 z "},"+":{"ha":761,"x_min":0,"x_max":0,"o":"m 286 64 l 475 64 l 475 299 l 711 299 l 711 489 l 475 489 l 475 725 l 286 725 l 286 489 l 50 489 l 50 299 l 286 299 z "},"−":{"ha":761,"x_min":0,"x_max":0,"o":"m 50 299 l 711 299 l 711 489 l 50 489 z "},"×":{"ha":701,"x_min":0,"x_max":0,"o":"m 51 226 l 185 93 l 351 260 l 518 93 l 653 226 l 486 394 l 653 561 l 518 694 l 351 528 l 185 694 l 50 560 l 218 393 z "},"÷":{"ha":761,"x_min":0,"x_max":0,"o":"m 50 368 l 711 368 l 711 557 l 50 557 z m 390 53 b 511 171 458 53 511 103 b 390 286 511 239 458 286 b 271 171 324 286 271 239 b 390 53 271 103 324 53 z m 390 650 b 511 768 458 650 511 700 b 390 883 511 836 458 883 b 271 768 324 883 271 836 b 390 650 271 700 324 650 z "},"=":{"ha":850,"x_min":0,"x_max":0,"o":"m 94 474 l 756 474 l 756 664 l 94 664 z m 94 146 l 756 146 l 756 335 l 94 335 z "},"≠":{"ha":761,"x_min":0,"x_max":0,"o":"m 176 28 l 372 28 l 407 146 l 711 146 l 711 335 l 464 335 l 506 474 l 711 474 l 711 664 l 563 664 l 589 751 l 393 751 l 367 664 l 50 664 l 50 474 l 310 474 l 268 335 l 50 335 l 50 146 l 211 146 z "},">":{"ha":746,"x_min":0,"x_max":0,"o":"m 53 26 l 693 293 l 693 522 l 53 788 l 53 585 l 481 408 l 53 231 z "},"<":{"ha":740,"x_min":0,"x_max":0,"o":"m 690 26 l 690 231 l 263 408 l 690 585 l 690 788 l 50 522 l 50 293 z "},"≥":{"ha":761,"x_min":0,"x_max":0,"o":"m 50 254 l 711 421 l 711 667 l 50 832 l 50 639 l 453 543 l 50 450 z m 50 0 l 711 0 l 711 189 l 50 189 z "},"≤":{"ha":761,"x_min":0,"x_max":0,"o":"m 711 254 l 711 450 l 308 543 l 711 639 l 711 832 l 50 667 l 50 421 z m 711 0 l 711 189 l 50 189 l 50 0 z "},"±":{"ha":808,"x_min":0,"x_max":0,"o":"m 50 411 l 293 411 l 293 264 l 514 264 l 514 411 l 757 411 l 757 585 l 514 585 l 514 736 l 293 736 l 293 585 l 50 585 z m 50 21 l 757 21 l 757 194 l 50 194 z "},"≈":{"ha":715,"x_min":0,"x_max":0,"o":"m 468 425 b 665 667 592 425 665 518 l 504 667 b 453 568 504 606 490 568 b 381 615 425 568 407 588 b 249 672 343 653 303 672 b 50 431 124 672 50 579 l 211 431 b 263 529 211 492 228 529 b 333 485 289 529 306 511 b 468 425 371 447 411 425 z m 468 122 b 665 364 592 122 665 215 l 504 364 b 453 265 504 303 490 265 b 374 322 421 265 406 292 b 249 369 338 356 297 369 b 50 128 124 369 50 276 l 211 128 b 263 226 211 190 228 226 b 331 185 288 226 304 213 b 468 122 368 146 408 122 z "},"~":{"ha":715,"x_min":0,"x_max":0,"o":"m 468 335 b 665 585 592 335 665 431 l 504 585 b 453 482 504 521 490 482 b 383 528 425 482 410 501 b 249 590 346 568 304 590 b 50 340 124 590 50 494 l 211 340 b 263 443 211 404 228 443 b 338 390 293 443 308 419 b 468 335 375 353 415 335 z "},"¬":{"ha":643,"x_min":0,"x_max":0,"o":"m 451 92 l 593 92 l 593 453 l 50 453 l 50 311 l 451 311 z "},"^":{"ha":590,"x_min":0,"x_max":0,"o":"m 50 532 l 214 532 l 296 776 l 378 532 l 540 532 l 401 935 l 189 935 z "},"∞":{"ha":1210,"x_min":0,"x_max":0,"o":"m 321 113 b 606 257 438 113 542 164 b 893 113 669 163 775 113 b 1161 376 1046 113 1161 226 b 893 640 1161 526 1046 640 b 606 493 775 639 671 588 b 321 640 540 586 439 640 b 50 376 167 640 50 526 b 321 113 50 226 167 113 z m 392 283 b 296 376 335 283 296 324 b 392 469 296 429 335 469 b 531 376 443 469 500 435 b 392 283 501 317 443 283 z m 821 283 b 681 376 769 283 710 317 b 821 469 711 436 771 469 b 917 376 876 468 917 429 b 821 283 917 324 876 283 z "},"∫":{"ha":661,"x_min":0,"x_max":0,"o":"m 165 -208 b 399 -7 292 -210 385 -128 l 479 719 b 565 794 485 768 514 799 l 614 792 l 638 985 l 493 986 b 260 785 367 988 274 906 l 179 58 b 101 -18 174 8 144 -19 l 43 -15 l 25 -207 z "},"∆":{"ha":928,"x_min":0,"x_max":0,"o":"m 36 0 l 892 0 l 892 160 l 567 986 l 363 986 l 36 158 z m 204 158 l 465 815 l 724 158 z "},"∏":{"ha":1036,"x_min":0,"x_max":0,"o":"m 192 -208 l 429 -208 l 429 792 l 613 792 l 613 -208 l 850 -208 l 850 792 l 997 792 l 997 986 l 39 986 l 39 792 l 192 792 z "},"∑":{"ha":788,"x_min":0,"x_max":0,"o":"m 40 0 l 747 0 l 747 197 l 271 197 l 469 493 l 271 789 l 747 789 l 747 986 l 40 986 l 40 789 l 238 493 l 40 197 z "},"√":{"ha":1003,"x_min":0,"x_max":0,"o":"m 169 -208 l 508 -208 l 701 794 l 975 794 l 975 986 l 514 986 l 338 64 l 254 467 l 29 467 z "},"∂":{"ha":871,"x_min":0,"x_max":0,"o":"m 400 -17 b 672 81 519 -21 594 7 b 319 1056 882 276 943 999 l 251 892 b 639 525 481 867 635 719 b 438 658 606 597 526 650 b 51 346 225 676 69 551 b 400 -17 33 146 182 -10 z m 407 157 b 297 336 332 165 288 232 b 439 483 304 429 364 490 b 565 360 506 478 558 432 b 407 157 561 235 494 150 z "},"µ":{"ha":886,"x_min":0,"x_max":0,"o":"m 106 -208 l 346 -208 l 346 90 b 456 22 363 49 406 22 b 583 113 511 22 564 57 l 583 0 l 814 0 l 814 736 l 575 736 l 575 344 b 453 169 575 231 532 169 b 346 344 381 169 346 226 l 346 736 l 106 736 z "},"%":{"ha":1200,"x_min":0,"x_max":0,"o":"m 124 -17 l 361 -17 l 1081 1008 l 843 1008 z m 283 506 b 515 746 413 506 515 608 b 283 988 515 885 413 988 b 50 746 153 988 50 885 b 283 506 50 608 153 506 z m 283 622 b 207 746 235 622 207 669 b 283 871 207 824 235 871 b 360 746 332 871 360 824 b 283 622 360 669 332 622 z m 917 0 b 1150 242 1047 0 1150 103 b 917 482 1150 379 1047 482 b 685 242 788 482 685 379 b 917 0 685 103 788 0 z m 917 117 b 842 242 868 117 842 164 b 917 365 842 318 868 365 b 993 242 967 365 993 318 b 917 117 993 164 967 117 z "},"‰":{"ha":1671,"x_min":0,"x_max":0,"o":"m 1397 0 b 1621 242 1526 0 1621 103 b 1397 482 1621 379 1526 482 b 1171 242 1267 482 1171 379 b 1397 0 1171 103 1267 0 z m 124 -17 l 361 -17 l 1081 1008 l 843 1008 z m 283 506 b 515 746 413 506 515 608 b 283 988 515 885 413 988 b 50 746 153 988 50 885 b 283 506 50 608 153 506 z m 283 622 b 207 746 235 622 207 669 b 283 871 207 824 235 871 b 360 746 332 871 360 824 b 283 622 360 669 332 622 z m 917 0 b 1150 242 1047 0 1150 103 b 917 482 1150 379 1047 482 b 685 242 788 482 685 379 b 917 0 685 103 788 0 z m 917 117 b 842 242 868 117 842 164 b 917 365 842 318 868 365 b 993 242 967 365 993 318 b 917 117 993 164 967 117 z m 1397 115 b 1318 242 1349 115 1318 164 b 1397 367 1318 318 1349 367 b 1476 242 1446 367 1476 318 b 1397 115 1476 164 1446 115 z "},"↑":{"ha":969,"x_min":0,"x_max":0,"o":"m 917 322 l 917 554 l 485 986 l 53 556 l 53 324 l 368 639 l 368 0 l 601 0 l 601 636 z "},"↗":{"ha":885,"x_min":0,"x_max":0,"o":"m 668 213 l 832 376 l 832 986 l 222 988 l 58 824 l 504 824 l 53 372 l 217 207 l 667 657 z "},"→":{"ha":1092,"x_min":0,"x_max":0,"o":"m 375 58 l 607 58 l 1039 490 l 608 922 l 376 922 l 692 607 l 53 607 l 53 374 l 689 374 z "},"↘":{"ha":886,"x_min":0,"x_max":0,"o":"m 58 165 l 222 1 l 832 1 l 833 611 l 669 776 l 669 331 l 218 782 l 53 617 l 503 167 z "},"↓":{"ha":969,"x_min":0,"x_max":0,"o":"m 917 664 l 601 350 l 601 986 l 368 986 l 368 347 l 53 663 l 53 431 l 485 0 l 917 432 z "},"↙":{"ha":886,"x_min":0,"x_max":0,"o":"m 828 165 l 383 167 l 833 617 l 668 782 l 217 331 l 217 776 l 53 611 l 54 1 l 664 1 z "},"←":{"ha":1092,"x_min":0,"x_max":0,"o":"m 717 58 l 403 374 l 1039 374 l 1039 607 l 400 607 l 715 922 l 483 922 l 53 490 l 485 58 z "},"↖":{"ha":885,"x_min":0,"x_max":0,"o":"m 217 213 l 218 657 l 668 207 l 832 372 l 381 824 l 826 824 l 663 988 l 53 986 l 53 376 z "},"↔":{"ha":1515,"x_min":0,"x_max":0,"o":"m 799 58 l 1031 58 l 1463 490 l 1032 922 l 800 922 l 1115 607 l 400 607 l 715 922 l 483 922 l 53 490 l 485 58 l 717 58 l 403 374 l 1113 374 z "},"↕":{"ha":969,"x_min":0,"x_max":0,"o":"m 53 378 l 53 146 l 485 -286 l 917 144 l 917 376 l 601 61 l 601 778 l 917 463 l 917 694 l 485 1125 l 53 693 l 53 461 l 368 775 l 368 64 z "},"↝":{"ha":888,"x_min":0,"x_max":0,"o":"m 426 264 b 725 392 531 204 649 268 l 835 328 l 806 688 l 481 535 l 586 474 b 478 407 546 408 508 389 b 439 485 450 424 444 454 b 357 599 428 526 415 565 b 53 396 250 660 85 575 l 213 396 b 303 458 229 454 272 476 b 342 376 329 443 332 417 b 426 264 356 325 382 289 z "},"⇤":{"ha":914,"x_min":0,"x_max":0,"o":"m 526 229 l 526 404 l 861 404 l 861 571 l 525 571 l 525 746 l 218 488 z m 53 217 l 179 217 l 179 758 l 53 758 z "},"⇥":{"ha":914,"x_min":0,"x_max":0,"o":"m 388 229 l 696 488 l 389 746 l 389 571 l 53 571 l 53 404 l 388 404 z m 861 217 l 861 758 l 735 758 l 735 217 z "},"↩":{"ha":910,"x_min":0,"x_max":0,"o":"m 528 313 b 857 632 711 313 857 453 b 528 950 857 811 711 950 l 118 950 l 118 785 l 526 785 b 690 632 618 785 690 718 b 526 479 690 546 618 479 l 339 479 l 492 631 l 286 631 l 53 396 l 288 161 l 493 161 l 342 313 z "},"↪":{"ha":910,"x_min":0,"x_max":0,"o":"m 382 313 l 568 313 l 417 161 l 622 161 l 857 396 l 624 631 l 418 631 l 571 479 l 383 479 b 219 632 292 479 219 546 b 383 785 219 718 292 785 l 792 785 l 792 950 l 382 950 b 53 632 199 950 53 811 b 382 313 53 453 199 313 z "},"↰":{"ha":908,"x_min":0,"x_max":0,"o":"m 688 0 l 856 0 l 856 701 l 386 701 l 386 896 l 53 618 l 388 340 l 388 535 l 688 535 z "},"↱":{"ha":908,"x_min":0,"x_max":0,"o":"m 221 0 l 221 535 l 521 535 l 521 340 l 856 618 l 522 896 l 522 701 l 53 701 l 53 0 z "},"↳":{"ha":908,"x_min":0,"x_max":0,"o":"m 221 986 l 53 986 l 53 285 l 522 285 l 522 90 l 856 368 l 521 646 l 521 451 l 221 451 z "},"↴":{"ha":907,"x_min":0,"x_max":0,"o":"m 596 0 l 854 310 l 679 310 l 679 986 l 53 986 l 53 819 l 514 819 l 514 310 l 339 310 z "},"↵":{"ha":908,"x_min":0,"x_max":0,"o":"m 688 986 l 688 451 l 388 451 l 388 646 l 53 368 l 386 90 l 386 285 l 856 285 l 856 986 z "},"⇧":{"ha":1285,"x_min":0,"x_max":0,"o":"m 353 0 l 936 0 l 936 419 l 1249 419 l 644 1026 l 36 419 l 353 419 z m 518 167 l 518 554 l 383 554 l 644 813 l 903 554 l 769 554 l 769 167 z "},"●":{"ha":1153,"x_min":0,"x_max":0,"o":"m 576 -17 b 1100 494 872 -17 1100 199 b 576 1008 1100 793 872 1008 b 53 494 281 1008 53 793 b 576 -17 53 199 281 -17 z "},"○":{"ha":1153,"x_min":0,"x_max":0,"o":"m 576 -17 b 1100 494 872 -17 1100 199 b 576 1008 1100 793 872 1008 b 53 494 281 1008 53 793 b 576 -17 53 199 281 -17 z m 576 169 b 244 494 389 169 244 307 b 576 822 244 685 389 822 b 908 494 764 822 908 685 b 576 169 908 307 764 169 z "},"◌":{"ha":1153,"x_min":0,"x_max":0,"o":"m 857 249 l 947 158 b 1013 238 971 182 993 208 l 906 308 b 857 249 892 286 875 268 z m 296 81 l 364 188 b 303 236 342 201 322 218 l 215 143 b 296 81 240 119 267 99 z m 147 219 l 251 294 b 214 360 238 314 224 336 l 96 308 b 147 219 110 278 128 247 z m 488 7 l 510 132 b 435 153 483 138 458 144 l 388 35 b 488 7 419 22 453 14 z m 64 407 l 190 433 b 181 510 183 458 181 483 l 53 508 b 64 407 53 474 57 439 z m 576 133 l 576 7 b 678 17 611 7 644 11 l 654 140 b 576 133 626 136 603 133 z m 63 610 l 189 588 b 210 661 193 611 200 638 l 92 708 b 63 610 78 678 68 644 z m 728 164 l 776 46 b 867 94 808 60 839 75 l 796 200 b 728 164 775 186 753 175 z m 140 799 l 247 728 b 296 788 263 750 278 768 l 206 878 b 140 799 182 854 160 828 z m 286 942 l 357 836 b 425 874 376 850 400 861 l 376 990 b 286 942 344 976 314 961 z m 943 375 l 1061 328 b 1090 426 1075 358 1085 392 l 965 449 b 943 375 961 425 953 400 z m 475 1019 l 500 896 b 576 903 525 900 550 903 l 576 1029 b 475 1019 542 1029 508 1025 z m 972 526 l 1100 528 b 1089 629 1100 563 1096 597 l 964 603 b 972 526 969 578 972 553 z m 719 883 l 765 1001 b 665 1029 733 1014 700 1022 l 644 904 b 719 883 671 899 694 892 z m 939 676 l 1057 728 b 1006 817 1043 758 1025 789 l 901 742 b 939 676 917 722 929 700 z m 850 800 l 938 893 b 857 956 913 917 886 938 l 789 849 b 850 800 811 835 832 818 z "},"◊":{"ha":847,"x_min":0,"x_max":0,"o":"m 288 0 l 560 0 l 794 447 l 560 894 l 288 894 l 53 447 z m 278 447 l 424 724 l 569 447 l 424 171 z "},"▲":{"ha":1210,"x_min":0,"x_max":0,"o":"m 36 0 l 1174 0 l 604 986 z "},"▶":{"ha":1117,"x_min":0,"x_max":0,"o":"m 94 -1 l 1081 494 l 94 989 z "},"▼":{"ha":1210,"x_min":0,"x_max":0,"o":"m 36 986 l 604 0 l 1174 986 z "},"◀":{"ha":1117,"x_min":0,"x_max":0,"o":"m 1022 -1 l 1022 989 l 36 494 z "},"△":{"ha":1210,"x_min":0,"x_max":0,"o":"m 36 0 l 1174 0 l 604 986 z m 333 192 l 603 681 l 875 192 z "},"▷":{"ha":1117,"x_min":0,"x_max":0,"o":"m 94 -1 l 1081 494 l 94 989 z m 251 254 l 251 733 l 728 494 z "},"▽":{"ha":1210,"x_min":0,"x_max":0,"o":"m 36 986 l 604 0 l 1174 986 z m 333 794 l 875 794 l 603 306 z "},"◁":{"ha":1117,"x_min":0,"x_max":0,"o":"m 1022 -1 l 1022 989 l 36 494 z m 865 254 l 389 494 l 865 733 z "},"̈":{"ha":0,"x_min":0,"x_max":0,"o":"m 50 819 l 274 819 l 274 997 l 50 997 z m 367 819 l 592 819 l 592 997 l 367 997 z "},"̇":{"ha":0,"x_min":0,"x_max":0,"o":"m 50 819 l 296 819 l 296 997 l 50 997 z "},"̀":{"ha":0,"x_min":0,"x_max":0,"o":"m 175 817 l 354 817 l 276 1029 l 50 1029 z "},"́":{"ha":0,"x_min":0,"x_max":0,"o":"m 50 817 l 229 817 l 354 1029 l 128 1029 z "},"̋":{"ha":0,"x_min":0,"x_max":0,"o":"m 50 817 l 229 817 l 354 1029 l 128 1029 z m 318 817 l 497 817 l 622 1029 l 396 1029 z "},"̂":{"ha":0,"x_min":0,"x_max":0,"o":"m 50 808 l 211 808 l 299 932 l 385 808 l 546 808 l 410 1029 l 186 1029 z "},"̌":{"ha":0,"x_min":0,"x_max":0,"o":"m 50 1029 l 186 808 l 410 808 l 546 1029 l 385 1029 l 299 906 l 211 1029 z "},"̆":{"ha":0,"x_min":0,"x_max":0,"o":"m 275 817 b 500 1029 410 817 494 893 l 367 1029 b 275 940 361 965 328 940 b 183 1029 222 940 190 965 l 50 1029 b 275 817 56 893 142 817 z "},"̊":{"ha":0,"x_min":0,"x_max":0,"o":"m 197 797 b 346 943 281 797 346 860 b 197 1089 346 1026 281 1089 b 50 943 114 1089 50 1026 b 197 797 50 860 114 797 z m 197 894 b 149 943 168 894 149 914 b 197 993 149 972 168 993 b 247 943 226 993 247 972 b 197 894 247 914 226 894 z "},"̃":{"ha":0,"x_min":0,"x_max":0,"o":"m 371 829 b 539 1040 479 829 538 911 l 424 1040 b 375 965 421 983 400 965 b 326 988 358 965 346 972 b 211 1031 289 1018 256 1031 b 50 822 108 1031 50 947 l 164 822 b 215 894 169 876 190 894 b 263 874 232 894 246 888 b 371 829 300 842 326 829 z "},"̄":{"ha":0,"x_min":0,"x_max":0,"o":"m 50 824 l 479 824 l 479 993 l 50 993 z "},"̒":{"ha":0,"x_min":0,"x_max":0,"o":"m 50 806 l 244 806 l 244 979 l 196 979 l 267 1097 l 131 1097 l 50 961 z "},"̦":{"ha":0,"x_min":0,"x_max":0,"o":"m 50 -350 l 186 -350 l 267 -214 l 267 -58 l 72 -58 l 72 -232 l 121 -232 z "},"̧":{"ha":0,"x_min":0,"x_max":0,"o":"m 233 -328 b 415 -175 332 -328 415 -282 b 282 -42 415 -107 376 -51 l 317 14 l 188 14 l 144 -61 l 207 -118 b 292 -169 275 -118 292 -139 b 228 -219 292 -201 267 -219 b 149 -167 186 -219 163 -201 l 50 -211 b 233 -328 76 -281 139 -328 z "},"̨":{"ha":0,"x_min":0,"x_max":0,"o":"m 217 -306 b 369 -269 279 -306 343 -289 l 329 -153 b 272 -171 317 -162 293 -171 b 238 -136 254 -171 238 -160 b 278 -50 238 -112 253 -83 l 317 0 l 151 17 l 108 -35 b 50 -176 74 -76 50 -119 b 217 -306 50 -258 110 -306 z "},"̵":{"ha":0,"x_min":0,"x_max":0,"o":"m 129 383 l 704 383 l 704 504 l 129 504 z "},"¨":{"ha":642,"x_min":0,"x_max":0,"o":"m 50 819 l 274 819 l 274 997 l 50 997 z m 367 819 l 592 819 l 592 997 l 367 997 z "},"˙":{"ha":346,"x_min":0,"x_max":0,"o":"m 50 819 l 296 819 l 296 997 l 50 997 z "},"`":{"ha":404,"x_min":0,"x_max":0,"o":"m 175 817 l 354 817 l 276 1029 l 50 1029 z "},"´":{"ha":404,"x_min":0,"x_max":0,"o":"m 50 817 l 229 817 l 354 1029 l 128 1029 z "},"˝":{"ha":671,"x_min":0,"x_max":0,"o":"m 50 817 l 229 817 l 354 1029 l 128 1029 z m 318 817 l 497 817 l 622 1029 l 396 1029 z "},"ˆ":{"ha":596,"x_min":0,"x_max":0,"o":"m 50 808 l 211 808 l 299 932 l 385 808 l 546 808 l 410 1029 l 186 1029 z "},"ˇ":{"ha":596,"x_min":0,"x_max":0,"o":"m 50 1029 l 186 808 l 410 808 l 546 1029 l 385 1029 l 299 906 l 211 1029 z "},"˘":{"ha":550,"x_min":0,"x_max":0,"o":"m 275 817 b 500 1029 410 817 494 893 l 367 1029 b 275 940 361 965 328 940 b 183 1029 222 940 190 965 l 50 1029 b 275 817 56 893 142 817 z "},"˚":{"ha":394,"x_min":0,"x_max":0,"o":"m 197 797 b 346 943 281 797 346 860 b 197 1089 346 1026 281 1089 b 50 943 114 1089 50 1026 b 197 797 50 860 114 797 z m 197 894 b 149 943 168 894 149 914 b 197 993 149 972 168 993 b 247 943 226 993 247 972 b 197 894 247 914 226 894 z "},"˜":{"ha":588,"x_min":0,"x_max":0,"o":"m 371 829 b 539 1040 479 829 538 911 l 424 1040 b 375 965 421 983 400 965 b 326 988 358 965 346 972 b 211 1031 289 1018 256 1031 b 50 822 108 1031 50 947 l 164 822 b 215 894 169 876 190 894 b 263 874 232 894 246 888 b 371 829 300 842 326 829 z "},"¯":{"ha":529,"x_min":0,"x_max":0,"o":"m 50 824 l 479 824 l 479 993 l 50 993 z "},"¸":{"ha":465,"x_min":0,"x_max":0,"o":"m 233 -328 b 415 -175 332 -328 415 -282 b 282 -42 415 -107 376 -51 l 317 14 l 188 14 l 144 -61 l 207 -118 b 292 -169 275 -118 292 -139 b 228 -219 292 -201 267 -219 b 149 -167 186 -219 163 -201 l 50 -211 b 233 -328 76 -281 139 -328 z "},"˛":{"ha":418,"x_min":0,"x_max":0,"o":"m 217 -306 b 369 -269 279 -306 343 -289 l 329 -153 b 272 -171 317 -162 293 -171 b 238 -136 254 -171 238 -160 b 278 -50 238 -112 253 -83 l 317 0 l 151 17 l 108 -35 b 50 -176 74 -76 50 -119 b 217 -306 50 -258 110 -306 z "},"ʼ":{"ha":353,"x_min":0,"x_max":0,"o":"m 82 594 l 218 594 l 297 986 l 122 986 z "},"ʹ":{"ha":367,"x_min":0,"x_max":0,"o":"m 50 817 l 229 817 l 354 1029 l 128 1029 z "},"ˈ":{"ha":275,"x_min":0,"x_max":0,"o":"m 71 594 l 206 594 l 225 867 l 225 986 l 50 986 l 50 867 z "}}}
